<svg width="17" height="19" viewBox="0 0 17 19" fill="none" xmlns="http://www.w3.org/2000/svg">
<path d="M9.1307 3.37764L7.84795 3.37502C4.92195 3.36802 2.38182 5.74539 2.3617 8.62502V11.9413C2.3617 12.6325 2.2742 13.3071 1.89707 13.882L1.64595 14.2653C1.26357 14.8463 1.67482 15.625 2.3617 15.625H14.6379C15.3248 15.625 15.7352 14.8463 15.3537 14.2653L15.1026 13.882C14.7263 13.3071 14.6379 12.6316 14.6379 11.9404V8.62589C14.6029 5.74539 12.0567 3.38464 9.1307 3.37764V3.37764Z" stroke="#6E6B7B" stroke-width="1.5" stroke-linecap="round" stroke-linejoin="round"/>
<path d="M11.125 15.625C11.125 16.3212 10.8484 16.9889 10.3562 17.4812C9.86387 17.9734 9.19619 18.25 8.5 18.25C7.80381 18.25 7.13613 17.9734 6.64384 17.4812C6.15156 16.9889 5.875 16.3212 5.875 15.625" stroke="#6E6B7B" stroke-width="1.5" stroke-linecap="round" stroke-linejoin="round"/>
<path d="M8.5 0.75C8.96413 0.75 9.40925 0.934374 9.73744 1.26256C10.0656 1.59075 10.25 2.03587 10.25 2.5V3.375H6.75V2.5C6.75 2.03587 6.93437 1.59075 7.26256 1.26256C7.59075 0.934374 8.03587 0.75 8.5 0.75Z" stroke="#6E6B7B" stroke-width="1.5" stroke-linecap="round" stroke-linejoin="round"/>
</svg>
