<svg width="22" height="22" viewBox="0 0 22 22" fill="none" xmlns="http://www.w3.org/2000/svg">
<path d="M21.0001 7.68682V5.2807L20.1182 4.99816C20.0381 4.74916 19.9389 4.50809 19.8216 4.27912L20.2449 3.45681L18.5436 1.7555L17.7212 2.17873C17.4923 2.06165 17.2512 1.96228 17.0022 1.88221L16.7191 1H14.313L14.0304 1.88192C13.7814 1.96199 13.5404 2.06121 13.3114 2.17843L12.4891 1.75521L10.7878 3.45652L11.1832 4.22581H2.6129C1.7235 4.22581 1 4.94931 1 5.83871V15.5161C1 16.4055 1.7235 17.129 2.6129 17.129H6.79466C6.74051 17.6436 6.47308 18.11 6.05401 18.4194H5.1937C4.66013 18.4194 4.22595 18.8535 4.22595 19.3871V20.0323C4.22595 20.5658 4.66013 21 5.1937 21H14.8711C15.4047 21 15.8389 20.5658 15.8389 20.0323V19.3871C15.8389 18.8535 15.4047 18.4194 14.8711 18.4194H14.0111C13.592 18.11 13.3246 17.6436 13.2705 17.129H17.4518C18.3412 17.129 19.0647 16.4055 19.0647 15.5161V10.6911L20.2448 9.51104L19.8215 8.68903C19.9386 8.46035 20.0377 8.21943 20.118 7.96999L21.0001 7.68682ZM15.1936 19.3871V20.0323C15.1936 20.2103 15.0487 20.3548 14.871 20.3548H5.19361C5.01591 20.3548 4.87103 20.2103 4.87103 20.0323V19.3871C4.87103 19.2091 5.01591 19.0645 5.19361 19.0645H14.871C15.0487 19.0645 15.1936 19.2091 15.1936 19.3871ZM13.1062 18.4194H6.95837C7.23516 18.0468 7.40294 17.6013 7.43966 17.129H12.6253C12.662 17.6013 12.8298 18.0468 13.1063 18.4194H13.1062ZM17.4516 16.4839H2.61293C2.07937 16.4839 1.64519 16.0497 1.64519 15.5161V5.83871C1.64519 5.30515 2.07937 4.87097 2.61293 4.87097H10.961C10.9458 4.9136 10.9284 4.95478 10.9144 4.99813L10.0322 5.28097V5.51613H2.93545C2.57961 5.51613 2.29029 5.80545 2.29029 6.16129V13.9032C2.29029 14.2591 2.57961 14.5484 2.93545 14.5484H17.129C17.4848 14.5484 17.7742 14.2591 17.7742 13.9032V10.8168L18.4193 11.1488V15.5159C18.4193 16.0495 17.9851 16.4837 17.4516 16.4837L17.4516 16.4839ZM12.4891 11.2124L13.3114 10.7891C13.5403 10.9062 13.7814 11.0056 14.0304 11.0856L14.3132 11.9679H16.7194L17.0019 11.0859C17.0451 11.0721 17.0864 11.0543 17.1291 11.0394V13.9034H2.93552V6.16142H10.0323V7.68691L10.9142 7.96946C10.9946 8.21888 11.0935 8.45982 11.2107 8.6885L10.7875 9.51051L12.4891 11.2124ZM19.5951 7.45973L19.548 7.62649C19.458 7.94518 19.3328 8.24846 19.176 8.52813L19.0912 8.67948L19.4556 9.38758L18.4198 10.4234L17.7117 10.0592L17.5608 10.1438C17.2804 10.3006 16.9769 10.426 16.6588 10.5158L16.4921 10.5629L16.2488 11.3226H14.784L14.5405 10.5627L14.3737 10.5156C14.0556 10.4256 13.7522 10.3005 13.4718 10.1436L13.3208 10.0591L12.6127 10.4233L11.5769 9.38743L11.9414 8.67934L11.8565 8.52798C11.6997 8.24832 11.5746 7.94476 11.4846 7.62634L11.4375 7.45958L10.6775 7.21649V5.75164L11.4375 5.50812L11.4846 5.34136C11.5746 5.02324 11.6997 4.71983 11.8565 4.43942L11.9411 4.2885L11.5769 3.58041L12.6127 2.54454L13.3208 2.90874L13.4718 2.8242C13.7522 2.66738 14.0556 2.54195 14.3737 2.45222L14.5405 2.40513L14.7837 1.64521H16.2485L16.4921 2.40513L16.6588 2.45222C16.9769 2.54223 17.2804 2.66737 17.5608 2.8242L17.7117 2.90874L18.4198 2.54454L19.4556 3.58041L19.0914 4.2885L19.176 4.43942C19.3328 4.71981 19.4582 5.02324 19.548 5.34136L19.5951 5.50812L20.355 5.75136V7.2162L19.5951 7.45973Z" fill="#6E6B7B" stroke="#6E6B7B" stroke-width="0.25"/>
<path d="M15.5 4C14.1214 4 13 5.12143 13 6.5C13 7.87857 14.1214 9 15.5 9C16.8786 9 18 7.87857 18 6.5C18 5.12143 16.8786 4 15.5 4ZM15.5 8C14.673 8 14 7.32703 14 6.5C14 5.67297 14.673 5 15.5 5C16.327 5 17 5.67297 17 6.5C17 7.32703 16.327 8 15.5 8Z" fill="#6E6B7B" stroke="#6E6B7B" stroke-width="0.25"/>
</svg>
