<svg width="15" height="20" viewBox="0 0 15 20" fill="none" xmlns="http://www.w3.org/2000/svg">
<path fill-rule="evenodd" clip-rule="evenodd" d="M14.8095 4.80222C14.8125 4.81883 14.8125 4.83571 14.8095 4.85218C14.8095 4.85606 14.8267 4.86352 14.8267 4.86352V17.0192C14.8246 17.5595 14.5388 18.0589 14.0741 18.3345C13.9614 18.6169 13.7668 18.8594 13.5153 19.0304C13.2639 19.2015 12.967 19.2934 12.6629 19.2945H2.67886C2.27144 19.2945 1.88076 19.1326 1.59269 18.8445C1.30461 18.5565 1.14282 18.1659 1.14282 17.7585V2.94188C1.14296 2.40507 1.42609 1.90821 1.88775 1.63433C2.00213 1.35147 2.1982 1.10918 2.45093 0.938155C2.70365 0.767128 3.00151 0.675388 3.30673 0.674316H10.6257C10.6427 0.675656 10.6595 0.67887 10.6757 0.683959H10.6929C10.7138 0.693066 10.7334 0.705388 10.7505 0.720388L14.7712 4.72736C14.7869 4.7437 14.7999 4.76258 14.8095 4.78307V4.80222ZM10.8064 4.67178L14.1567 4.67164L10.8064 1.31942V4.67178ZM2.67511 18.9047H12.6495C12.9727 18.9096 13.2826 18.7767 13.5021 18.5397C13.4339 18.5487 13.3653 18.5539 13.2966 18.555H3.31261C2.90519 18.555 2.51452 18.3932 2.22644 18.1051C1.93836 17.817 1.77658 17.4264 1.77658 17.019V2.21988C1.61399 2.42251 1.52466 2.67417 1.52305 2.93412V17.7527C1.52305 18.0582 1.64453 18.3513 1.86055 18.5673C2.07659 18.7833 2.36962 18.9047 2.67511 18.9047ZM3.30686 18.1674H13.2813C13.5854 18.1665 13.8769 18.0449 14.092 17.8298C14.3071 17.6147 14.4283 17.3233 14.4294 17.019V5.05567H10.6144C10.5635 5.05567 10.5146 5.03545 10.4788 4.99942C10.4427 4.96339 10.4225 4.91451 10.4225 4.86362V1.04864H3.30684C3.07044 1.04717 2.83956 1.11842 2.6451 1.25275C2.45078 1.38708 2.30239 1.57778 2.22002 1.7993C2.22096 1.80305 2.22096 1.80707 2.22002 1.81082C2.17623 1.93402 2.15413 2.06393 2.1548 2.19478V17.0155C2.1548 17.321 2.27614 17.614 2.49216 17.83C2.7082 18.0461 3.00124 18.1674 3.30686 18.1674ZM13.4899 7.63547C13.5258 7.59945 13.546 7.5507 13.546 7.4998C13.546 7.44878 13.5258 7.40002 13.4899 7.364C13.4539 7.32797 13.405 7.30775 13.3541 7.30775H9.1301C9.02402 7.30775 8.93804 7.39373 8.93804 7.4998C8.93804 7.60574 9.02402 7.69172 9.1301 7.69172H13.3541C13.405 7.69172 13.4539 7.6715 13.4899 7.63547ZM13.4899 9.32123C13.5258 9.28521 13.546 9.23646 13.546 9.18556C13.546 9.13454 13.5258 9.08578 13.4899 9.04976C13.4539 9.01373 13.405 8.99351 13.3541 8.99351H9.1301C9.02402 8.99351 8.93804 9.07949 8.93804 9.18556C8.93804 9.2915 9.02402 9.37748 9.1301 9.37748H13.3541C13.405 9.37748 13.4539 9.35726 13.4899 9.32123ZM13.4899 11.009C13.5258 10.973 13.546 10.9241 13.546 10.8732C13.546 10.8223 13.5258 10.7734 13.4899 10.7374C13.4539 10.7014 13.405 10.6812 13.3541 10.6812H3.02244C2.91637 10.6812 2.83039 10.7671 2.83039 10.8732C2.83039 10.9793 2.91637 11.0653 3.02244 11.0653H13.3541C13.405 11.0653 13.4539 11.0449 13.4899 11.009ZM13.4899 12.6948C13.5258 12.6587 13.546 12.6099 13.546 12.559C13.546 12.5081 13.5258 12.4592 13.4899 12.4232C13.4539 12.3871 13.405 12.3669 13.3541 12.3669H3.02244C2.91637 12.3669 2.83039 12.4529 2.83039 12.559C2.83039 12.665 2.91637 12.751 3.02244 12.751H13.3541C13.405 12.751 13.4539 12.7307 13.4899 12.6948ZM13.4899 14.3824C13.5258 14.3464 13.546 14.2975 13.546 14.2466C13.546 14.1407 13.4602 14.0547 13.3541 14.0547H3.02244C2.91637 14.0547 2.83039 14.1407 2.83039 14.2466C2.83039 14.3527 2.91637 14.4387 3.02244 14.4387H13.3541C13.405 14.4387 13.4539 14.4184 13.4899 14.3824ZM13.4899 16.0643C13.5258 16.0283 13.546 15.9795 13.546 15.9286C13.546 15.8776 13.5258 15.8289 13.4899 15.7928C13.4539 15.7568 13.405 15.7366 13.3541 15.7366H3.02244C2.91637 15.7366 2.83039 15.8226 2.83039 15.9286C2.83039 16.0346 2.91637 16.1206 3.02244 16.1206H13.3541C13.405 16.1206 13.4539 16.1003 13.4899 16.0643Z" fill="#6E6B7B" stroke="#6E6B7B" stroke-width="0.3"/>
</svg>
