<svg width="14" height="14" viewBox="0 0 14 14" fill="none" xmlns="http://www.w3.org/2000/svg">
<path d="M1.60239 13.9999H11.6086C12.0336 13.9999 12.4412 13.8312 12.7418 13.5306C13.0422 13.2302 13.2111 12.8225 13.2111 12.3976V8.62296C13.2111 8.48126 13.1549 8.34538 13.0546 8.24528C12.9544 8.14506 12.8186 8.08879 12.677 8.08879C12.5367 8.09326 12.4034 8.15089 12.3041 8.25012C12.205 8.34936 12.1473 8.48262 12.1428 8.62297V12.3976C12.1479 12.5408 12.0931 12.6795 11.9919 12.7808C11.8905 12.8821 11.7518 12.9367 11.6086 12.9317H1.60238C1.45918 12.9367 1.32046 12.8821 1.2191 12.7808C1.11788 12.6795 1.06324 12.5408 1.0682 12.3976V2.39134C1.06324 2.24814 1.11788 2.10942 1.2191 2.00806C1.32045 1.90684 1.45917 1.85207 1.60238 1.85717H5.37697C5.51731 1.85269 5.65058 1.79494 5.74982 1.69584C5.84905 1.5966 5.90668 1.46322 5.91115 1.32299C5.91115 1.1814 5.85489 1.04553 5.75466 0.945306C5.65456 0.845081 5.51869 0.788818 5.37698 0.788818H1.60239C1.1774 0.788818 0.769767 0.957724 0.469344 1.25816C0.168792 1.55871 0 1.96631 0 2.39133V12.3976C0 12.8225 0.168782 13.2302 0.469344 13.5306C0.769773 13.8312 1.1774 13.9999 1.60239 13.9999L1.60239 13.9999Z" fill="#6E6B7B"/>
<path d="M12.6416 0.468454C12.3383 0.168397 11.9289 0 11.5021 0C11.0754 0 10.6659 0.16841 10.3626 0.468454L4.27344 6.57545L3.8461 9.13936C3.7948 9.4224 3.88075 9.71302 4.0776 9.92279C4.25321 10.082 4.48148 10.1708 4.71856 10.1721H4.86102L7.42492 9.72694L13.5319 3.63774C13.8278 3.33222 13.9932 2.92361 13.9932 2.49824C13.9932 2.07287 13.8278 1.66428 13.5319 1.35874L12.6416 0.468454ZM11.8761 1.21625L12.7841 2.12426C12.8782 2.22572 12.9293 2.35986 12.9266 2.49822C12.9258 2.63595 12.8753 2.76884 12.7841 2.87205L12.7485 2.9077L11.0927 1.25193L11.1283 1.21628C11.2302 1.12239 11.3637 1.07035 11.5022 1.07035C11.6408 1.07035 11.7742 1.12239 11.8761 1.21628L11.8761 1.21625ZM6.9086 8.72982L4.93228 9.06814L5.2706 7.09182L10.3271 2.01749L11.983 3.67339L6.9086 8.72982Z" fill="#6E6B7B"/>
</svg>
