<svg width="24" height="24" viewBox="0 0 24 24" fill="none" xmlns="http://www.w3.org/2000/svg">
<path d="M12 24C10.9801 24 10.4701 23.4741 10.4701 22.4223V13.3386H1.52988C0.50996 13.3386 0 12.8446 0 11.8566C0 10.8685 0.50996 10.3745 1.52988 10.3745H10.4701V1.57769C10.4701 0.525896 10.9801 0 12 0C13.0199 0 13.5299 0.525896 13.5299 1.57769V10.3745H22.4701C23.49 10.3745 24 10.8685 24 11.8566C24 12.8446 23.49 13.3386 22.4701 13.3386H13.5299V22.4223C13.5299 23.4741 13.0199 24 12 24Z" fill="white"/>
</svg>
