<svg width="25" height="24" viewBox="0 0 25 24" fill="none" xmlns="http://www.w3.org/2000/svg">
<path fill-rule="evenodd" clip-rule="evenodd" d="M16.3277 3.00007C17.0028 3.00007 17.5637 3.51785 17.5637 4.16726V5.01233H18.764C19.4391 5.01233 20 5.5297 20 6.17911V18.7304C20 19.3798 19.4391 19.896 18.764 19.896H9.46436C8.78924 19.896 8.22833 19.3797 8.22833 18.7304V17.8853H7.02847C6.35336 17.8853 5.79207 17.3676 5.79207 16.7182V4.16719C5.79207 3.51778 6.35336 3 7.02847 3L16.3277 3.00007ZM16.3277 3.40279L7.0284 3.40265C6.55873 3.40265 6.19832 3.74671 6.19832 4.16712V16.7181C6.19832 17.1385 6.55873 17.483 7.0284 17.483L16.3277 17.4831C16.7974 17.4831 17.1578 17.1386 17.1578 16.7182V4.16726C17.1578 3.74685 16.7974 3.40279 16.3277 3.40279ZM18.764 5.41467H17.5637V16.7183C17.5637 17.3677 17.0028 17.8855 16.3277 17.8855L8.63434 17.8854V18.7304C8.63434 19.1509 8.99475 19.4934 9.46443 19.4934L18.764 19.4933C19.2337 19.4933 19.5941 19.1507 19.5941 18.7303V6.17901C19.5941 5.7586 19.2336 5.41467 18.764 5.41467Z" fill="black" stroke="white" stroke-width="0.5"/>
<path d="M9.05513 10.1929L4.93098 7.63921C4.30719 7.2576 3.5 7.70524 3.5 8.43907V13.5392C3.5 14.2731 4.29987 14.7207 4.92364 14.3318L9.04779 11.7854C9.64951 11.4184 9.64951 10.5525 9.05511 10.1929L9.05513 10.1929Z" fill="#E5E5E5" stroke="white"/>
<rect x="11" y="7.5" width="1.5" height="7.5" rx="0.75" fill="white"/>
</svg>
