<svg width="25" height="24" viewBox="0 0 25 24" fill="none" xmlns="http://www.w3.org/2000/svg">
<path fill-rule="evenodd" clip-rule="evenodd" d="M10.5313 3C9.84863 3 9.2754 3.47338 9.10959 4.10626H6.47505C5.66426 4.10626 5 4.77052 5 5.58131V19.225C5 20.0357 5.66426 20.7 6.47505 20.7H17.5376C18.3484 20.7 19.0127 20.0357 19.0127 19.225V5.58131C19.0127 4.77052 18.3484 4.10626 17.5376 4.10626H14.9031C14.7373 3.47338 14.164 3 13.4814 3L10.5313 3ZM10.5313 3.73746H13.4814C13.8964 3.73746 14.2189 4.06008 14.2189 4.47505C14.2189 4.89003 13.8964 5.21252 13.4814 5.21252H10.5313C10.1163 5.21252 9.79382 4.89003 9.79382 4.47505C9.79382 4.06008 10.1163 3.73746 10.5313 3.73746ZM6.47511 4.84372H9.10965C9.27547 5.4766 9.84872 5.94998 10.5313 5.94998H13.4815C14.1641 5.94998 14.7373 5.4766 14.9031 4.84372H17.5377C17.9527 4.84372 18.2751 5.16634 18.2751 5.58131V19.225C18.2751 19.6399 17.9527 19.9625 17.5377 19.9625H6.47511C6.06014 19.9625 5.73765 19.6399 5.73765 19.225V5.58131C5.73765 5.16634 6.06014 4.84372 6.47511 4.84372Z" fill="white" stroke="white" stroke-width="0.5"/>
<path d="M9.05495 11.6929L4.93093 9.1392C4.30717 8.75761 3.5 9.20523 3.5 9.93904V15.039C3.5 15.7728 4.29984 16.2205 4.92359 15.8315L9.04761 13.2852C9.64931 12.9183 9.64931 12.0524 9.05493 11.6928L9.05495 11.6929Z" fill="#E5E5E5" stroke="white"/>
</svg>
