<svg width="64" height="64" viewBox="0 0 64 64" fill="none" xmlns="http://www.w3.org/2000/svg">
<path fill-rule="evenodd" clip-rule="evenodd" d="M32 4.92308C17.0458 4.92308 4.92308 17.0458 4.92308 32C4.92308 46.9542 17.0458 59.0769 32 59.0769C46.9542 59.0769 59.0769 46.9542 59.0769 32C59.0769 17.0458 46.9542 4.92308 32 4.92308ZM0 32C0 14.3269 14.3269 0 32 0C49.6731 0 64 14.3269 64 32C64 49.6731 49.6731 64 32 64C14.3269 64 0 49.6731 0 32Z" fill="white"/>
<path fill-rule="evenodd" clip-rule="evenodd" d="M32.0001 14.7693C33.3596 14.7693 34.4617 15.8714 34.4617 17.2308V34.4616C34.4617 35.8211 33.3596 36.9231 32.0001 36.9231C30.6406 36.9231 29.5386 35.8211 29.5386 34.4616V17.2308C29.5386 15.8714 30.6406 14.7693 32.0001 14.7693Z" fill="white"/>
<path d="M31.9999 49.2308C34.0391 49.2308 35.6922 47.5777 35.6922 45.5385C35.6922 43.4993 34.0391 41.8462 31.9999 41.8462C29.9607 41.8462 28.3076 43.4993 28.3076 45.5385C28.3076 47.5777 29.9607 49.2308 31.9999 49.2308Z" fill="white"/>
</svg>
