<svg width="32" height="32" viewBox="0 0 32 32" fill="none" xmlns="http://www.w3.org/2000/svg">
<path fill-rule="evenodd" clip-rule="evenodd" d="M13.1414 4.44934C12.7166 4.81536 12.2095 5.19628 11.6242 5.43843C11.0469 5.6773 10.4234 5.7584 9.87431 5.79404C9.51579 5.81732 9.11548 5.82352 8.75046 5.82917C8.57604 5.83187 8.40967 5.83445 8.25977 5.8387C7.1599 5.86992 6.59992 6.00515 6.30254 6.30254C6.00515 6.59992 5.86992 7.15989 5.83871 8.25976C5.83445 8.40966 5.83188 8.57602 5.82918 8.75044C5.82352 9.11547 5.81733 9.51577 5.79405 9.8743C5.75841 10.4233 5.67731 11.0469 5.43844 11.6242C5.19628 12.2095 4.81537 12.7166 4.44934 13.1414C4.19727 13.434 3.90679 13.7369 3.64364 14.0114C3.53475 14.125 3.43054 14.2337 3.33567 14.3347C2.98231 14.7111 2.70947 15.0301 2.5238 15.3307C2.34287 15.6236 2.28571 15.8345 2.28571 15.9999C2.28571 16.1654 2.34287 16.3763 2.5238 16.6692C2.70948 16.9698 2.98231 17.2889 3.33567 17.6652C3.43054 17.7663 3.53474 17.875 3.64363 17.9886C3.90678 18.263 4.19726 18.566 4.44934 18.8586C4.81536 19.2834 5.19628 19.7905 5.43843 20.3758C5.6773 20.9531 5.7584 21.5766 5.79404 22.1257C5.81732 22.4842 5.82352 22.8845 5.82917 23.2495C5.83187 23.424 5.83445 23.5903 5.8387 23.7402C5.86992 24.8401 6.00515 25.4001 6.30254 25.6975C6.59992 25.9949 7.15989 26.1301 8.25976 26.1613C8.40966 26.1656 8.57602 26.1681 8.75043 26.1708C9.11546 26.1765 9.51577 26.1827 9.8743 26.2059C10.4233 26.2416 11.0469 26.3227 11.6242 26.5616C12.2095 26.8037 12.7166 27.1846 13.1414 27.5507C13.434 27.8027 13.7369 28.0932 14.0114 28.3564C14.125 28.4653 14.2337 28.5695 14.3347 28.6643C14.7111 29.0177 15.0301 29.2905 15.3307 29.4762C15.6236 29.6571 15.8345 29.7143 15.9999 29.7143C16.1654 29.7143 16.3763 29.6571 16.6692 29.4762C16.9698 29.2905 17.2889 29.0177 17.6652 28.6643C17.7663 28.5695 17.875 28.4653 17.9885 28.3564C18.263 28.0932 18.566 27.8027 18.8586 27.5507C19.2834 27.1846 19.7905 26.8037 20.3758 26.5616C20.9531 26.3227 21.5766 26.2416 22.1257 26.206C22.4842 26.1827 22.8845 26.1765 23.2496 26.1708C23.424 26.1681 23.5903 26.1656 23.7402 26.1613C24.8401 26.1301 25.4001 25.9949 25.6975 25.6975C25.9949 25.4001 26.1301 24.8401 26.1613 23.7402C26.1656 23.5903 26.1681 23.424 26.1708 23.2496C26.1765 22.8845 26.1827 22.4842 26.2059 22.1257C26.2416 21.5767 26.3227 20.9531 26.5616 20.3758C26.8037 19.7905 27.1846 19.2834 27.5507 18.8586C27.8027 18.566 28.0932 18.2631 28.3564 17.9886C28.4653 17.875 28.5695 17.7663 28.6643 17.6653C29.0177 17.2889 29.2905 16.9699 29.4762 16.6693C29.6571 16.3764 29.7143 16.1655 29.7143 16.0001C29.7143 15.8346 29.6571 15.6237 29.4762 15.3308C29.2905 15.0302 29.0177 14.7111 28.6643 14.3348C28.5695 14.2337 28.4653 14.125 28.3564 14.0115C28.0932 13.737 27.8027 13.434 27.5507 13.1414C27.1846 12.7166 26.8037 12.2095 26.5616 11.6242C26.3227 11.0469 26.2416 10.4234 26.206 9.87431C26.1827 9.51578 26.1765 9.11547 26.1708 8.75044C26.1681 8.57603 26.1656 8.40967 26.1613 8.25977C26.1301 7.1599 25.9949 6.59992 25.6975 6.30254C25.4001 6.00515 24.8401 5.86992 23.7402 5.83871C23.5903 5.83445 23.424 5.83188 23.2496 5.82918C22.8845 5.82352 22.4842 5.81733 22.1257 5.79405C21.5767 5.75841 20.9531 5.67731 20.3758 5.43844L20.8127 4.3824L20.3758 5.43844C19.7905 5.19628 19.2834 4.81537 18.8586 4.44934C18.5661 4.19727 18.2631 3.90679 17.9886 3.64364C17.875 3.53475 17.7663 3.43054 17.6653 3.33567C17.2889 2.98231 16.9699 2.70947 16.6693 2.5238C16.3764 2.34287 16.1655 2.28571 16.0001 2.28571C15.8346 2.28571 15.6237 2.34287 15.3308 2.5238C15.0302 2.70948 14.7111 2.98231 14.3348 3.33567C14.2337 3.43054 14.125 3.53475 14.0114 3.64365C13.737 3.90679 13.434 4.19727 13.1414 4.44934ZM14.1296 0.579147C14.6446 0.261064 15.2723 0 16.0001 0C16.7278 0 17.3555 0.261069 17.8705 0.579155C18.3778 0.892493 18.8359 1.29946 19.2298 1.66927C19.3704 1.80124 19.5004 1.92604 19.6248 2.0454C19.8766 2.28693 20.1051 2.50621 20.3506 2.71775C20.7062 3.02417 20.9966 3.22164 21.2497 3.32637C21.4811 3.42212 21.8092 3.48298 22.2738 3.51314C22.5801 3.53302 22.8746 3.53732 23.2001 3.54208C23.3886 3.54483 23.5875 3.54774 23.8051 3.55391C24.8185 3.58267 26.2962 3.66882 27.3137 4.68629C28.3312 5.70376 28.4173 7.18146 28.4461 8.19492C28.4523 8.41247 28.4552 8.61136 28.4579 8.7999C28.4627 9.12535 28.467 9.41993 28.4869 9.72624C28.517 10.1908 28.5779 10.5189 28.6736 10.7503L27.6176 11.1873L28.6736 10.7503C28.7784 11.0035 28.9758 11.2938 29.2823 11.6494C29.4938 11.895 29.7131 12.1235 29.9546 12.3752C30.074 12.4996 30.1988 12.6297 30.3307 12.7703C30.7006 13.1642 31.1075 13.6223 31.4209 14.1296C31.7389 14.6446 32 15.2723 32 16.0001C32 16.7278 31.7389 17.3555 31.4208 17.8705C31.1075 18.3778 30.7005 18.8359 30.3307 19.2298C30.1988 19.3703 30.074 19.5004 29.9546 19.6248C29.7131 19.8765 29.4938 20.1051 29.2823 20.3506C28.9758 20.7062 28.7784 20.9966 28.6736 21.2497C28.5779 21.4811 28.517 21.8092 28.4869 22.2738C28.467 22.5801 28.4627 22.8746 28.4579 23.2001C28.4552 23.3886 28.4523 23.5875 28.4461 23.8051C28.4173 24.8185 28.3312 26.2962 27.3137 27.3137C26.2962 28.3312 24.8185 28.4173 23.8051 28.4461C23.5875 28.4523 23.3886 28.4552 23.2001 28.4579C22.8747 28.4627 22.5801 28.467 22.2738 28.4869C21.8092 28.517 21.4811 28.5779 21.2497 28.6736C20.9965 28.7784 20.7062 28.9758 20.3506 29.2823C20.1051 29.4938 19.8765 29.7131 19.6248 29.9546C19.5004 30.074 19.3703 30.1988 19.2297 30.3307C18.8358 30.7006 18.3777 31.1075 17.8704 31.4209C17.3554 31.7389 16.7277 32 15.9999 32C15.2722 32 14.6445 31.7389 14.1295 31.4208C13.6222 31.1075 13.1641 30.7005 12.7702 30.3307C12.6297 30.1988 12.4996 30.074 12.3752 29.9546C12.1235 29.7131 11.8949 29.4938 11.6494 29.2823C11.2938 28.9758 11.0034 28.7784 10.7503 28.6736C10.5189 28.5779 10.1908 28.517 9.72623 28.4869C9.41994 28.467 9.12537 28.4627 8.79995 28.4579C8.61139 28.4552 8.41248 28.4523 8.19492 28.4461C7.18146 28.4173 5.70376 28.3312 4.68629 27.3137C3.66882 26.2962 3.58267 24.8185 3.55391 23.8051C3.54773 23.5875 3.54483 23.3886 3.54207 23.2001C3.53732 22.8746 3.53302 22.5801 3.51313 22.2738C3.48297 21.8092 3.42212 21.4811 3.32636 21.2497C3.22163 20.9965 3.02416 20.7062 2.71773 20.3506C2.50619 20.105 2.28691 19.8765 2.04538 19.6248C1.92602 19.5003 1.80123 19.3703 1.66925 19.2297C1.29945 18.8358 0.892482 18.3777 0.579147 17.8704C0.261064 17.3554 0 16.7277 0 15.9999C0 15.2722 0.261069 14.6445 0.579155 14.1295C0.892493 13.6222 1.29946 13.1641 1.66927 12.7702C1.80124 12.6297 1.92603 12.4996 2.04539 12.3752C2.28692 12.1235 2.50621 11.8949 2.71775 11.6494C3.02417 11.2938 3.22164 11.0034 3.32637 10.7503C3.42212 10.5189 3.48298 10.1908 3.51314 9.72623C3.53302 9.41993 3.53732 9.12536 3.54208 8.79992C3.54483 8.61138 3.54774 8.41247 3.55391 8.19492C3.58267 7.18146 3.66882 5.70376 4.68629 4.68629C5.70376 3.66882 7.18146 3.58267 8.19492 3.55391C8.41248 3.54773 8.61139 3.54483 8.79993 3.54207C9.12537 3.53732 9.41994 3.53302 9.72624 3.51313C10.1908 3.48297 10.5189 3.42212 10.7503 3.32636L11.1873 4.3824L10.7503 3.32636C11.0035 3.22163 11.2938 3.02416 11.6494 2.71773C11.895 2.50619 12.1235 2.28691 12.3752 2.04538C12.4997 1.92602 12.6297 1.80123 12.7703 1.66925C13.1642 1.29945 13.6223 0.892482 14.1296 0.579147Z" fill="white"/>
<path fill-rule="evenodd" clip-rule="evenodd" d="M16 8C16.6312 8 17.1429 8.51167 17.1429 9.14286V17.1429C17.1429 17.774 16.6312 18.2857 16 18.2857C15.3689 18.2857 14.8572 17.774 14.8572 17.1429V9.14286C14.8572 8.51167 15.3689 8 16 8Z" fill="white"/>
<path d="M15.9999 23.9999C16.9467 23.9999 17.7142 23.2323 17.7142 22.2856C17.7142 21.3388 16.9467 20.5713 15.9999 20.5713C15.0532 20.5713 14.2856 21.3388 14.2856 22.2856C14.2856 23.2323 15.0532 23.9999 15.9999 23.9999Z" fill="white"/>
</svg>
