<svg width="32" height="32" viewBox="0 0 32 32" fill="none" xmlns="http://www.w3.org/2000/svg">
<path d="M12 16L15 19L20 14" stroke="white" stroke-width="1.75" stroke-linecap="round" stroke-linejoin="round"/>
<path d="M7 16C7 14.8181 7.23279 13.6478 7.68508 12.5558C8.13738 11.4639 8.80031 10.4718 9.63604 9.63604C10.4718 8.80031 11.4639 8.13738 12.5558 7.68508C13.6478 7.23279 14.8181 7 16 7C17.1819 7 18.3522 7.23279 19.4442 7.68508C20.5361 8.13738 21.5282 8.80031 22.364 9.63604C23.1997 10.4718 23.8626 11.4639 24.3149 12.5558C24.7672 13.6478 25 14.8181 25 16C25 18.3869 24.0518 20.6761 22.364 22.364C20.6761 24.0518 18.3869 25 16 25C13.6131 25 11.3239 24.0518 9.63604 22.364C7.94821 20.6761 7 18.3869 7 16V16Z" stroke="white" stroke-width="1.75" stroke-linecap="round"/>
</svg>
