<svg width="12" height="12" viewBox="0 0 12 12" fill="none" xmlns="http://www.w3.org/2000/svg">
<path fill-rule="evenodd" clip-rule="evenodd" d="M5.86257 0C6.13239 0 6.35112 0.218731 6.35112 0.488549V9.77098C6.35112 10.0408 6.13239 10.2595 5.86257 10.2595C5.59275 10.2595 5.37402 10.0408 5.37402 9.77098V0.488549C5.37402 0.218731 5.59275 0 5.86257 0Z" fill="#2F7DC5"/>
<path fill-rule="evenodd" clip-rule="evenodd" d="M5.51709 0.143093C5.70788 -0.0476976 6.01721 -0.0476976 6.208 0.143093L10.6049 4.54004C10.7957 4.73083 10.7957 5.04016 10.6049 5.23095C10.4142 5.42174 10.1048 5.42174 9.91403 5.23095L5.86254 1.17946L1.81106 5.23095C1.62027 5.42174 1.31093 5.42174 1.12014 5.23095C0.929353 5.04016 0.929353 4.73083 1.12014 4.54004L5.51709 0.143093Z" fill="#2F7DC5"/>
<path fill-rule="evenodd" clip-rule="evenodd" d="M0 11.512C0 11.2422 0.218731 11.0234 0.488549 11.0234H11.2366C11.5064 11.0234 11.7252 11.2422 11.7252 11.512C11.7252 11.7818 11.5064 12.0005 11.2366 12.0005H0.488549C0.218731 12.0005 0 11.7818 0 11.512Z" fill="#2F7DC5"/>
</svg>
