<svg width="32" height="32" viewBox="0 0 32 32" fill="none" xmlns="http://www.w3.org/2000/svg">
<path d="M11 16V18" stroke="#135B80" stroke-width="2" stroke-linecap="round" stroke-linejoin="round"/>
<path d="M11 25V27" stroke="#135B80" stroke-width="2" stroke-linecap="round" stroke-linejoin="round"/>
<path d="M10.5 31C15.7467 31 20 26.7467 20 21.5C20 16.2533 15.7467 12 10.5 12C5.25329 12 1 16.2533 1 21.5C1 26.7467 5.25329 31 10.5 31Z" stroke="#135B80" stroke-width="2" stroke-linecap="round" stroke-linejoin="round"/>
<path d="M7.875 25H11.8125C12.3927 25 12.9491 24.8156 13.3593 24.4874C13.7695 24.1592 14 23.7141 14 23.25C14 22.7859 13.7695 22.3408 13.3593 22.0126C12.9491 21.6844 12.3927 21.5 11.8125 21.5H9.1875C8.60734 21.5 8.05094 21.3156 7.6407 20.9874C7.23047 20.6592 7 20.2141 7 19.75C7 19.2859 7.23047 18.8408 7.6407 18.5126C8.05094 18.1844 8.60734 18 9.1875 18H13.125" stroke="#135B80" stroke-width="2" stroke-linecap="round" stroke-linejoin="round"/>
<path d="M13 5.46512L17.4651 1L21.9302 5.46512H19.6977V9.55814C19.6977 9.65683 19.6585 9.75147 19.5887 9.82125C19.5189 9.89103 19.4243 9.93023 19.3256 9.93023H15.6047C15.506 9.93023 15.4113 9.89103 15.3415 9.82125C15.2718 9.75147 15.2326 9.65683 15.2326 9.55814V5.46512H13Z" stroke="#135B80" stroke-width="1.5" stroke-linecap="round" stroke-linejoin="round"/>
<path d="M21.5581 12.5349L26.0233 17.0001L30.4884 12.5349H28.2558V8.44192C28.2558 8.34323 28.2166 8.24859 28.1468 8.17881C28.077 8.10903 27.9824 8.06982 27.8837 8.06982H24.1628C24.0641 8.06982 23.9695 8.10903 23.8997 8.17881C23.8299 8.24859 23.7907 8.34323 23.7907 8.44192V12.5349H21.5581Z" stroke="#135B80" stroke-width="1.5" stroke-linecap="round" stroke-linejoin="round"/>
</svg>
