<svg width="26" height="26" viewBox="0 0 26 26" fill="none" xmlns="http://www.w3.org/2000/svg">
<circle cx="13" cy="12" r="12" fill="#E9E9E9"/>
<path d="M17.9654 10.3087C17.931 10.2173 17.8727 10.1392 17.798 10.0843C17.7232 10.0293 17.6354 10 17.5455 10H8.45455C8.36465 10 8.27676 10.0293 8.20201 10.0843C8.12726 10.1392 8.069 10.2173 8.0346 10.3087C8.0002 10.4 7.9912 10.5006 8.00874 10.5976C8.02628 10.6945 8.06957 10.7836 8.13314 10.8536L12.6786 15.8535C12.7208 15.9 12.7709 15.9368 12.8261 15.9619C12.8812 15.9871 12.9403 16 13 16C13.0597 16 13.1188 15.9871 13.1739 15.9619C13.2291 15.9368 13.2792 15.9 13.3214 15.8535L17.8669 10.8536C17.9304 10.7836 17.9737 10.6945 17.9913 10.5975C18.0088 10.5006 17.9998 10.4 17.9654 10.3087Z" fill="#7A7A7A"/>
</svg>
