<svg width="46" height="50" viewBox="0 0 46 50" fill="none" xmlns="http://www.w3.org/2000/svg">
<path d="M45.9204 34.8034C45.4204 31.7034 45.0204 28.7034 44.5204 25.6034C44.4204 24.8034 44.0204 24.3034 43.2204 23.9034C42.5204 23.6034 41.8204 23.8034 41.3204 24.4034C39.0204 26.5034 36.7204 28.7034 34.5204 30.8034C33.2204 32.0034 33.5204 33.8034 35.2204 34.4034C35.7204 34.5034 36.2204 34.8034 36.7204 34.9034C34.8204 40.2034 29.9204 43.5034 26.0204 44.0034C25.9204 43.8034 26.0204 43.7034 26.0204 43.4034C26.0204 33.6034 26.1204 23.6034 26.1204 13.8034C26.1204 13.5034 26.3204 13.2034 26.6204 13.0034C29.3204 11.7034 30.7204 8.60342 30.2204 5.60342C29.6204 2.60342 27.0204 0.303423 24.0204 0.00342331C20.7204 -0.0965767 17.7204 2.00342 16.9204 5.10342C16.0204 8.20342 17.5204 11.5034 20.3204 13.0034C20.7204 13.2034 20.7204 13.4034 20.7204 13.8034C20.7204 23.6034 20.7204 33.4034 20.6204 43.4034C20.6204 43.6034 20.6204 43.7034 20.6204 44.0034C15.1204 43.1034 10.8204 38.7034 9.62037 34.6034C10.0204 34.5034 10.5204 34.2034 10.9204 34.1034C12.7204 33.5034 13.0204 31.7034 11.7204 30.5034C9.62037 28.4034 7.22037 26.3034 5.12037 24.1034C4.52037 23.6034 3.82037 23.2034 2.92037 23.5034C2.12037 23.7034 1.72037 24.4034 1.52037 25.2034C1.02037 28.1034 0.520371 31.2034 0.0203706 34.2034C-0.179629 35.8034 1.12037 37.0034 2.72037 36.7034C3.12037 36.6034 3.62037 36.3034 4.02037 36.2034C7.52037 44.6034 13.5204 49.6034 22.8204 49.6034C32.1204 49.6034 38.2204 44.6034 41.6204 36.3034C42.1204 36.4034 42.5204 36.6034 43.0204 36.7034C44.8204 37.6034 46.2204 36.4034 45.9204 34.8034ZM23.3204 10.1034C21.7204 10.1034 20.5204 8.80342 20.4204 7.40342C20.4204 5.80342 21.7204 4.60342 23.1204 4.50342C24.7204 4.50342 25.9204 5.80342 25.9204 7.40342C26.1204 8.60342 24.8204 10.0034 23.3204 10.1034Z" fill="white"/>
</svg>
