<svg width="16" height="16" viewBox="0 0 100 100" fill="none" xmlns="http://www.w3.org/2000/svg">
<path d="M1.95312 40.2344H30.4688V50C30.4688 51.0787 31.3434 51.9531 32.4219 51.9531C33.5004 51.9531 34.375 51.0787 34.375 50V40.2344H38.2812C39.3598 40.2344 40.2344 39.36 40.2344 38.2812V16.2109H48.0469V25.9766C48.0469 27.0553 48.9215 27.9297 50 27.9297C51.0785 27.9297 51.9531 27.0553 51.9531 25.9766V14.2578C51.9531 13.1791 51.0785 12.3047 50 12.3047H40.2344V1.95312C40.2344 0.874414 39.3598 0 38.2812 0H7.8125C3.50469 0 0 3.50469 0 7.8125V38.2812C0 39.36 0.874609 40.2344 1.95312 40.2344ZM3.90625 7.8125C3.90625 5.65859 5.65859 3.90625 7.8125 3.90625H36.3281V36.3281H3.90625V7.8125Z" fill="#135B80"/>
<path d="M25.9766 12.3047H14.2578C13.1793 12.3047 12.3047 13.1791 12.3047 14.2578V25.9766C12.3047 27.0553 13.1793 27.9297 14.2578 27.9297H25.9766C27.0551 27.9297 27.9297 27.0553 27.9297 25.9766V14.2578C27.9297 13.1791 27.0551 12.3047 25.9766 12.3047ZM24.0234 24.0234H16.2109V16.2109H24.0234V24.0234Z" fill="#135B80"/>
<path d="M27.9297 85.7422V74.0234C27.9297 72.9447 27.0551 72.0703 25.9766 72.0703H14.2578C13.1793 72.0703 12.3047 72.9447 12.3047 74.0234V85.7422C12.3047 86.8209 13.1793 87.6953 14.2578 87.6953H25.9766C27.0551 87.6953 27.9297 86.8209 27.9297 85.7422ZM24.0234 83.7891H16.2109V75.9766H24.0234V83.7891Z" fill="#135B80"/>
<path d="M92.1875 0H61.7188C60.6402 0 59.7656 0.874414 59.7656 1.95312V38.2812C59.7656 39.36 60.6402 40.2344 61.7188 40.2344H98.0469C99.1254 40.2344 100 39.36 100 38.2812V7.8125C100 3.50469 96.4953 0 92.1875 0ZM96.0938 36.3281H63.6719V3.90625H92.1875C94.3414 3.90625 96.0938 5.65859 96.0938 7.8125V36.3281Z" fill="#135B80"/>
<path d="M85.7422 12.3047H74.0234C72.9449 12.3047 72.0703 13.1791 72.0703 14.2578V25.9766C72.0703 27.0553 72.9449 27.9297 74.0234 27.9297H85.7422C86.8207 27.9297 87.6953 27.0553 87.6953 25.9766V14.2578C87.6953 13.1791 86.8207 12.3047 85.7422 12.3047ZM83.7891 24.0234H75.9766V16.2109H83.7891V24.0234Z" fill="#135B80"/>
<path d="M98.0469 59.7656C96.9684 59.7656 96.0938 60.64 96.0938 61.7188V74.0234C96.0938 75.1021 96.9684 75.9766 98.0469 75.9766C99.1254 75.9766 100 75.1021 100 74.0234V61.7188C100 60.64 99.1254 59.7656 98.0469 59.7656Z" fill="#135B80"/>
<path d="M98.0469 83.7891C96.9684 83.7891 96.0938 84.6635 96.0938 85.7422V92.1875C96.0938 94.3414 94.3414 96.0938 92.1875 96.0938H74.0234C72.9449 96.0938 72.0703 96.9684 72.0703 98.0469C72.0703 99.1254 72.9449 100 74.0234 100H92.1875C96.4953 100 100 96.4953 100 92.1875V85.7422C100 84.6635 99.1254 83.7891 98.0469 83.7891Z" fill="#135B80"/>
<path d="M61.7188 83.7891C60.6402 83.7891 59.7656 84.6635 59.7656 85.7422V98.0469C59.7656 99.1254 60.6402 100 61.7188 100C62.7973 100 63.6719 99.1254 63.6719 98.0469V85.7422C63.6719 84.6635 62.7973 83.7891 61.7188 83.7891Z" fill="#135B80"/>
<path d="M61.7188 59.7656C60.6402 59.7656 59.7656 60.64 59.7656 61.7188V74.0234C59.7656 75.1021 60.6402 75.9766 61.7188 75.9766C62.7973 75.9766 63.6719 75.1021 63.6719 74.0234V63.6719H85.7422C86.8207 63.6719 87.6953 62.7975 87.6953 61.7188V50C87.6953 48.9213 86.8207 48.0469 85.7422 48.0469H74.0234C72.9449 48.0469 72.0703 48.9213 72.0703 50C72.0703 51.0787 72.9449 51.9531 74.0234 51.9531H83.7891V59.7656H61.7188Z" fill="#135B80"/>
<path d="M85.7422 72.0703H74.0234C72.9449 72.0703 72.0703 72.9447 72.0703 74.0234V85.7422C72.0703 86.8209 72.9449 87.6953 74.0234 87.6953H85.7422C86.8207 87.6953 87.6953 86.8209 87.6953 85.7422V74.0234C87.6953 72.9447 86.8207 72.0703 85.7422 72.0703ZM83.7891 83.7891H75.9766V75.9766H83.7891V83.7891Z" fill="#135B80"/>
<path d="M61.7188 48.0469H51.9531V38.2812C51.9531 37.2025 51.0785 36.3281 50 36.3281C48.9215 36.3281 48.0469 37.2025 48.0469 38.2812V50C48.0469 51.0787 48.9215 51.9531 50 51.9531H61.7188C62.7973 51.9531 63.6719 51.0787 63.6719 50C63.6719 48.9213 62.7973 48.0469 61.7188 48.0469Z" fill="#135B80"/>
<path d="M50 83.7891C48.9215 83.7891 48.0469 84.6635 48.0469 85.7422V92.1875C48.0469 93.2662 48.9215 94.1406 50 94.1406C51.0785 94.1406 51.9531 93.2662 51.9531 92.1875V85.7422C51.9531 84.6635 51.0785 83.7891 50 83.7891Z" fill="#135B80"/>
<path d="M20.1172 100C21.1959 100 22.0703 99.1256 22.0703 98.0469C22.0703 96.9682 21.1959 96.0938 20.1172 96.0938C19.0385 96.0938 18.1641 96.9682 18.1641 98.0469C18.1641 99.1256 19.0385 100 20.1172 100Z" fill="#135B80"/>
<path d="M7.8125 100H11.3281C12.4066 100 13.2812 99.1254 13.2812 98.0469C13.2812 96.9684 12.4066 96.0938 11.3281 96.0938H7.8125C5.65859 96.0938 3.90625 94.3414 3.90625 92.1875V63.6719H36.3281V96.0938H28.9062C27.8277 96.0938 26.9531 96.9684 26.9531 98.0469C26.9531 99.1254 27.8277 100 28.9062 100H38.2812C39.3598 100 40.2344 99.1254 40.2344 98.0469V69.5312H48.0469V74.0234C48.0469 75.1021 48.9215 75.9766 50 75.9766C51.0785 75.9766 51.9531 75.1021 51.9531 74.0234V67.5781C51.9531 66.4994 51.0785 65.625 50 65.625H40.2344V61.7188C40.2344 60.64 39.3598 59.7656 38.2812 59.7656H9.76562V51.9531H20.1172C21.1957 51.9531 22.0703 51.0787 22.0703 50C22.0703 48.9213 21.1957 48.0469 20.1172 48.0469H7.8125C6.73398 48.0469 5.85938 48.9213 5.85938 50V59.7656H1.95312C0.874609 59.7656 0 60.64 0 61.7188V92.1875C0 96.4953 3.50469 100 7.8125 100Z" fill="#135B80"/>
</svg>
