<svg width="32" height="32" viewBox="0 0 32 32" fill="none" xmlns="http://www.w3.org/2000/svg">
<path d="M25 17H31" stroke="#135B80" stroke-width="2" stroke-linecap="round" stroke-linejoin="round"/>
<path d="M28 14V20" stroke="#135B80" stroke-width="2" stroke-linecap="round" stroke-linejoin="round"/>
<path d="M13.5 20C17.6421 20 21 16.6421 21 12.5C21 8.35786 17.6421 5 13.5 5C9.35786 5 6 8.35786 6 12.5C6 16.6421 9.35786 20 13.5 20Z" stroke="#135B80" stroke-width="2" stroke-miterlimit="10"/>
<path d="M2.776 24.9997C4.09017 23.434 5.73124 22.1751 7.58392 21.3113C9.43659 20.4476 11.4559 20 13.5001 20C15.5442 20 17.5635 20.4476 19.4162 21.3114C21.2689 22.1751 22.9099 23.4341 24.2241 24.9998" stroke="#135B80" stroke-width="2" stroke-linecap="round" stroke-linejoin="round"/>
</svg>
