<svg width="15" height="20" viewBox="0 0 15 20" fill="none" xmlns="http://www.w3.org/2000/svg">
<path d="M12.6864 7.2613H12.1022V4.84087C12.1022 2.17004 9.93212 0 7.2613 0C4.59048 0 2.42043 2.17004 2.42043 4.84087V7.2613H1.83619C0.834632 7.2613 0 8.01247 0 9.01403V17.4438C0 18.4454 0.834632 19.28 1.83619 19.28H12.6864C13.688 19.28 14.5226 18.4454 14.5226 17.4438V9.01403C14.4391 8.01247 13.688 7.2613 12.6864 7.2613ZM3.58892 4.84087C3.58892 2.83775 5.17472 1.25195 7.17784 1.25195C9.18095 1.25195 10.7668 2.83775 10.7668 4.84087V7.2613H3.58892V4.84087ZM13.2706 17.4438C13.2706 17.7777 13.0203 18.0281 12.6864 18.0281H1.83619C1.50234 18.0281 1.25195 17.7777 1.25195 17.4438V9.01403C1.25195 8.68017 1.50234 8.42978 1.83619 8.42978H12.6864C13.0203 8.42978 13.2706 8.68017 13.2706 9.01403V17.4438Z" fill="#547588"/>
<path d="M7.26158 10.4329C6.34349 10.4329 5.67578 11.184 5.67578 12.0187C5.67578 12.6864 6.0931 13.2706 6.67734 13.521V15.4407C6.67734 15.7745 6.92773 16.0249 7.26158 16.0249C7.59543 16.0249 7.84582 15.7745 7.84582 15.4407V13.521C8.43007 13.2706 8.84738 12.6864 8.84738 12.0187C8.84738 11.184 8.09621 10.4329 7.26158 10.4329ZM7.26158 11.6848C7.51197 11.6848 7.6789 11.8517 7.6789 12.1021C7.6789 12.3525 7.51197 12.5194 7.26158 12.5194C7.01119 12.5194 6.84427 12.3525 6.84427 12.1021C6.84427 11.8517 7.01119 11.6848 7.26158 11.6848Z" fill="#547588"/>
</svg>
