<svg width="18" height="12" viewBox="0 0 18 12" fill="none" xmlns="http://www.w3.org/2000/svg">
<path d="M10.9865 4.2842C9.68999 3.8394 8.28168 3.84261 6.98717 4.2933C6.89308 4.3269 6.80935 4.38441 6.74423 4.46019C6.67911 4.53597 6.63485 4.62739 6.6158 4.72547L6.18772 6.86708C6.16878 6.96179 6.12652 7.05029 6.06476 7.12455C6.00299 7.19881 5.92368 7.25649 5.83399 7.29236L2.40014 8.66591C2.2838 8.71287 2.15535 8.72076 2.03414 8.68838C1.91293 8.65599 1.80552 8.5851 1.72811 8.48636C1.20958 7.81589 0.953225 6.97941 1.00703 6.13353C1.06084 5.28766 1.42113 4.4904 2.02043 3.89103C3.87152 2.03994 6.38215 1 9 1C11.6178 1 14.1285 2.03994 15.9796 3.89103C16.5789 4.4904 16.9392 5.28766 16.993 6.13353C17.0468 6.97941 16.7904 7.81589 16.2719 8.48636C16.1945 8.5851 16.0871 8.65599 15.9659 8.68838C15.8447 8.72076 15.7162 8.71287 15.5999 8.66591L12.163 7.29117C12.0741 7.25561 11.9954 7.19862 11.9339 7.12527C11.8723 7.05192 11.8299 6.9645 11.8103 6.87077L11.3595 4.71244C11.3397 4.61489 11.2949 4.52416 11.2295 4.4491C11.1642 4.37404 11.0804 4.31722 10.9865 4.2842Z" stroke="#F58A20" stroke-linecap="round" stroke-linejoin="round"/>
<path d="M2.61312 11.4512H15.3869" stroke="#F58A20" stroke-linecap="round" stroke-linejoin="round"/>
</svg>
