<svg width="16" height="16" viewBox="0 0 17 18" fill="none" xmlns="http://www.w3.org/2000/svg">
<path d="M16.2367 3.66667L1.57007 3.66667" stroke="#135B80" stroke-width="1.5" stroke-linecap="round" stroke-linejoin="round"/>
<path d="M6.90372 7.66667V13" stroke="#135B80" stroke-width="1.5" stroke-linecap="round" stroke-linejoin="round"/>
<path d="M10.9037 7.66667V13" stroke="#135B80" stroke-width="1.5" stroke-linecap="round" stroke-linejoin="round"/>
<path d="M14.9037 3.66667V16.3333C14.9037 16.5101 14.8335 16.6797 14.7085 16.8047C14.5834 16.9298 14.4139 17 14.2371 17H3.57039C3.39358 17 3.22401 16.9298 3.09899 16.8047C2.97396 16.6797 2.90372 16.5101 2.90372 16.3333V3.66667" stroke="#135B80" stroke-width="1.5" stroke-linecap="round" stroke-linejoin="round"/>
<path d="M12.2371 3.66667V2.33333C12.2371 1.97971 12.0966 1.64057 11.8465 1.39052C11.5965 1.14048 11.2574 1 10.9037 1H6.90373C6.55011 1 6.21097 1.14048 5.96092 1.39052C5.71087 1.64057 5.5704 1.97971 5.5704 2.33333V3.66667" stroke="#135B80" stroke-width="1.5" stroke-linecap="round" stroke-linejoin="round"/>
</svg>
