<?xml version="1.0" encoding="utf-8"?>
<!-- Generator: Adobe Illustrator 22.0.1, SVG Export Plug-In . SVG Version: 6.00 Build 0)  -->
<svg version="1.1" id="Layer_1" xmlns="http://www.w3.org/2000/svg" xmlns:xlink="http://www.w3.org/1999/xlink" x="0px" y="0px"
	 viewBox="0 0 79.6 29.4" style="enable-background:new 0 0 79.6 29.4;" xml:space="preserve">
<style type="text/css">
	.st0{fill:#CECECD;}
</style>
<polygon class="st0" points="0,23.6 3.7,23.6 3.7,8.7 0,5.4 "/>
<polygon class="st0" points="22.3,20.3 4.5,4.4 3.7,4.4 3.7,8.7 20.4,23.6 22.3,23.6 "/>
<polygon class="st0" points="0,4.4 0,5.4 3.7,8.7 3.7,4.4 "/>
<polygon class="st0" points="26,23.6 26,4.4 22.3,4.4 22.3,20.3 26,23.6 "/>
<polygon class="st0" points="26,23.6 22.3,20.3 22.3,23.6 "/>
<polygon class="st0" points="71.4,4.4 71.4,23.6 75.1,23.6 75.1,23.6 75.1,4.4 "/>
<rect x="35.2" y="16.5" class="st0" width="4.5" height="4.5"/>
<path class="st0" d="M0.2,27.5l0.8-0.1c0,0.3,0.2,0.5,0.3,0.6c0.2,0.1,0.4,0.2,0.6,0.2c0.3,0,0.5-0.1,0.6-0.2
	c0.1-0.1,0.2-0.3,0.2-0.4c0-0.1,0-0.2-0.1-0.3c-0.1-0.1-0.2-0.1-0.3-0.2c-0.1,0-0.3-0.1-0.7-0.2c-0.5-0.1-0.8-0.3-1-0.4
	c-0.3-0.2-0.4-0.5-0.4-0.9c0-0.2,0.1-0.4,0.2-0.6c0.1-0.2,0.3-0.3,0.5-0.4c0.2-0.1,0.5-0.1,0.8-0.1c0.5,0,0.9,0.1,1.2,0.4
	c0.3,0.2,0.4,0.6,0.4,1l-0.9,0c0-0.2-0.1-0.4-0.2-0.5c-0.1-0.1-0.3-0.1-0.5-0.1c-0.3,0-0.4,0.1-0.6,0.2c-0.1,0.1-0.1,0.2-0.1,0.3
	c0,0.1,0,0.2,0.1,0.3c0.1,0.1,0.4,0.2,0.8,0.3c0.4,0.1,0.7,0.2,0.9,0.3c0.2,0.1,0.4,0.3,0.5,0.4c0.1,0.2,0.2,0.4,0.2,0.7
	c0,0.2-0.1,0.5-0.2,0.7c-0.1,0.2-0.3,0.4-0.6,0.5C2.7,29,2.3,29,2,29c-0.5,0-1-0.1-1.2-0.4C0.4,28.4,0.3,28,0.2,27.5"/>
<path class="st0" d="M10.2,26.8c0-0.4,0.1-0.8,0.2-1.1c0.1-0.2,0.2-0.4,0.4-0.6c0.2-0.2,0.3-0.3,0.5-0.4c0.3-0.1,0.6-0.2,0.9-0.2
	c0.6,0,1.1,0.2,1.5,0.6c0.4,0.4,0.6,0.9,0.6,1.6c0,0.7-0.2,1.2-0.6,1.6c-0.4,0.4-0.9,0.6-1.5,0.6c-0.6,0-1.1-0.2-1.5-0.6
	C10.4,28,10.2,27.5,10.2,26.8 M11.1,26.8c0,0.5,0.1,0.9,0.3,1.1c0.2,0.3,0.5,0.4,0.8,0.4c0.3,0,0.6-0.1,0.8-0.4
	c0.2-0.3,0.3-0.6,0.3-1.1c0-0.5-0.1-0.9-0.3-1.1c-0.2-0.2-0.5-0.4-0.9-0.4c-0.4,0-0.6,0.1-0.9,0.4C11.2,25.9,11.1,26.3,11.1,26.8"/>
<polygon class="st0" points="20.9,28.9 20.9,24.6 23.9,24.6 23.9,25.3 21.8,25.3 21.8,26.4 23.6,26.4 23.6,27.1 21.8,27.1 
	21.8,28.9 "/>
<polygon class="st0" points="31.5,28.9 31.5,25.3 30.2,25.3 30.2,24.6 33.6,24.6 33.6,25.3 32.3,25.3 32.3,28.9 "/>
<polygon class="st0" points="40.7,28.9 39.7,24.6 40.6,24.6 41.2,27.6 42,24.6 43,24.6 43.8,27.6 44.4,24.6 45.3,24.6 44.2,28.9 
	43.3,28.9 42.5,25.7 41.6,28.9 "/>
<path class="st0" d="M55.2,28.9h-0.9l-0.4-1h-1.7l-0.4,1h-0.9l1.7-4.3h0.9L55.2,28.9z M53.6,27.2L53,25.6l-0.6,1.6H53.6z"/>
<path class="st0" d="M61.6,28.9v-4.3h1.8c0.5,0,0.8,0,1,0.1c0.2,0.1,0.4,0.2,0.5,0.4c0.1,0.2,0.2,0.4,0.2,0.7c0,0.3-0.1,0.6-0.3,0.8
	c-0.2,0.2-0.5,0.3-0.8,0.4c0.2,0.1,0.3,0.2,0.5,0.4c0.1,0.1,0.3,0.4,0.5,0.7l0.5,0.8h-1L63.8,28c-0.2-0.3-0.4-0.5-0.5-0.6
	c-0.1-0.1-0.2-0.1-0.3-0.2c-0.1,0-0.2,0-0.4,0h-0.2v1.8H61.6z M62.4,26.4h0.6c0.4,0,0.7,0,0.8-0.1c0.1,0,0.2-0.1,0.2-0.2
	c0.1-0.1,0.1-0.2,0.1-0.3c0-0.1,0-0.3-0.1-0.4c-0.1-0.1-0.2-0.1-0.3-0.2c-0.1,0-0.3,0-0.6,0h-0.7V26.4z"/>
<polygon class="st0" points="71.8,28.9 71.8,24.6 75,24.6 75,25.3 72.7,25.3 72.7,26.3 74.8,26.3 74.8,27 72.7,27 72.7,28.2 
	75.1,28.2 75.1,28.9 "/>
<path class="st0" d="M77.3,0.2c0.4,0,0.8,0.1,1.1,0.3c0.4,0.2,0.6,0.5,0.8,0.8c0.2,0.4,0.3,0.7,0.3,1.1c0,0.4-0.1,0.8-0.3,1.1
	c-0.2,0.4-0.5,0.6-0.8,0.8c-0.4,0.2-0.7,0.3-1.1,0.3s-0.8-0.1-1.1-0.3c-0.4-0.2-0.6-0.5-0.8-0.8C75.1,3.2,75,2.9,75,2.5
	c0-0.4,0.1-0.8,0.3-1.1c0.2-0.4,0.5-0.6,0.8-0.8C76.5,0.3,76.9,0.2,77.3,0.2 M77.3,0.7c-0.3,0-0.6,0.1-0.9,0.2
	c-0.3,0.2-0.5,0.4-0.7,0.7s-0.2,0.6-0.2,0.9c0,0.3,0.1,0.6,0.2,0.9c0.2,0.3,0.4,0.5,0.7,0.7c0.3,0.2,0.6,0.2,0.9,0.2
	c0.3,0,0.6-0.1,0.9-0.2c0.3-0.2,0.5-0.4,0.7-0.7s0.2-0.6,0.2-0.9c0-0.3-0.1-0.6-0.2-0.9S78.5,1,78.2,0.9C77.9,0.7,77.6,0.7,77.3,0.7
	 M76.3,3.7V1.3h0.5c0.5,0,0.7,0,0.8,0c0.2,0,0.3,0,0.4,0.1c0.1,0.1,0.2,0.1,0.2,0.2c0.1,0.1,0.1,0.2,0.1,0.3c0,0.2-0.1,0.3-0.2,0.4
	c-0.1,0.1-0.3,0.2-0.5,0.2c0.1,0,0.1,0.1,0.2,0.1c0,0,0.1,0.1,0.2,0.2c0,0,0.1,0.1,0.2,0.3l0.3,0.5h-0.6l-0.2-0.4
	c-0.1-0.3-0.2-0.4-0.3-0.5c-0.1-0.1-0.2-0.1-0.3-0.1h-0.1v1H76.3z M76.8,2.3H77c0.3,0,0.5,0,0.5,0c0.1,0,0.1-0.1,0.2-0.1
	c0-0.1,0.1-0.1,0.1-0.2c0-0.1,0-0.1-0.1-0.2c0-0.1-0.1-0.1-0.2-0.1c-0.1,0-0.2,0-0.5,0h-0.2V2.3z"/>
<path class="st0" d="M28.4,1.9c2.8-2.3,11.9,3.3,20.3,12.5c0.8,0.9,1.6,1.8,2.4,2.7c-0.9-1.2-1.8-2.4-2.8-3.5
	c-8-9.6-17-15.4-20-13.1c-1.9,1.5-1,5.8,1.8,11.2c-0.3-0.6-0.6-1.2-0.8-1.8C27.5,6,27,3.1,28.4,1.9"/>
<path class="st0" d="M51.1,17.2c-0.8-0.9-1.6-1.8-2.4-2.7C40.3,5.2,31.2-0.4,28.4,1.9c-1.4,1.2-1,4.1,0.9,7.9c-1.1-2.8-1.2-5,0-5.9
	c2.8-2.3,11.9,3.3,20.3,12.5c2,2.1,3.7,4.3,5.2,6.4c1.7,2.3,3.1,4.6,4,6.6C57.5,26,54.8,21.6,51.1,17.2"/>
<path class="st0" d="M49,13.6c1,1.2,1.9,2.4,2.8,3.5c1.8,2.2,3.4,4.4,4.7,6.5h1.6l13-19.2h-7.3c0.7,1.2,1.1,2.6,1.1,4.1
	c0,4.5-3.6,8.1-8.1,8.1s-8.1-3.6-8.1-8.1c0-1.5,0.4-2.9,1.1-4.1H39.6C42.6,6.8,45.9,9.9,49,13.6"/>
<path class="st0" d="M49.3,16.7c-4.1-4.4-8.3-8-11.8-10.3L26,23.6h7.5c-1.4-1.2-2.3-2.9-2.3-4.9c0-3.5,2.8-6.3,6.3-6.3
	c3.5,0,6.3,2.8,6.3,6.3c0,1.9-0.9,3.7-2.3,4.9h13.2C54.7,23.4,51.2,18.9,49.3,16.7"/>
</svg>
