<?xml version="1.0"?>
<svg xmlns="http://www.w3.org/2000/svg" xmlns:xlink="http://www.w3.org/1999/xlink" xmlns:svgjs="http://svgjs.com/svgjs" version="1.1" width="18" height="18" x="0" y="0" viewBox="0 0 512 512" style="enable-background:new 0 0 512 512" xml:space="preserve" class=""><g><g xmlns="http://www.w3.org/2000/svg"><path d="m512 347c0-17.49-10.036-32.67-24.646-40.114 2.969-6.001 4.646-12.75 4.646-19.886 0-24.813-20.187-45-45-45h-55v-75.496c24.873-17.719 40-46.616 40-77.374 0-38.866-23.303-73.421-59.367-88.032-4.623-1.872-9.877-1.325-14.015 1.463s-6.618 7.45-6.618 12.439v49.13h-30v-49.13c0-4.989-2.48-9.651-6.618-12.439-4.137-2.788-9.391-3.336-14.015-1.463-36.064 14.611-59.367 49.166-59.367 88.032 0 30.758 15.127 59.655 40 77.374v35.496h-21.752c-40.587 0-76.877 23.706-93.45 60h-34.798v-5c0-8.284-6.716-15-15-15h-102c-8.284 0-15 6.716-15 15v220c0 8.284 6.716 15 15 15h102c8.284 0 15-6.716 15-15v-5h36.292c15.986 24.89 43.339 40 73.434 40h185.274c24.813 0 45-20.187 45-45 0-7.136-1.677-13.885-4.646-19.886 14.61-7.444 24.646-22.624 24.646-40.114 0-7.136-1.677-13.885-4.646-19.886 14.61-7.444 24.646-22.624 24.646-40.114zm-410 115h-72v-190h72zm365-100h-95v-30h95c8.271 0 15 6.729 15 15s-6.729 15-15 15zm-5 45c0 8.271-6.729 15-15 15h-80c-8.271 0-15-6.729-15-15s6.729-15 15-15h80c8.271 0 15 6.728 15 15zm-150-25.271c4.342 2.787 9.033 5.069 13.996 6.769-2.559 5.648-3.996 11.908-3.996 18.502 0 11.517 4.353 22.032 11.495 30-7.142 7.967-11.495 18.483-11.495 30 0 5.259.915 10.305 2.58 15h-12.58zm150-94.729c0 8.271-6.729 15-15 15h-75v-30h75c8.271 0 15 6.728 15 15zm-157.48-141.639c-20.059-11.62-32.52-33.167-32.52-56.231 0-18.148 7.432-34.924 20-46.925v36.925c0 8.284 6.716 15 15 15h60c8.284 0 15-6.716 15-15v-36.925c12.568 12.001 20 28.776 20 46.925 0 23.065-12.461 44.612-32.519 56.231-4.631 2.683-7.481 7.628-7.481 12.979v67.095c-9.961-14.157-26.412-23.435-45-23.435h-5v-43.659c0-5.352-2.851-10.297-7.48-12.98zm-114.114 304.928c-2.541-5.08-7.734-8.289-13.415-8.289h-44.991v-150h44.991c6.456 0 12.188-4.131 14.229-10.255 9.923-29.754 37.663-49.745 69.028-49.745h56.752c13.785 0 25 11.215 25 25v104.644c-16.939-2.434-30-17.042-30-34.644v-30c0-8.284-6.716-15-15-15s-15 6.716-15 15c0 35.841-29.159 65-65 65-8.284 0-15 6.716-15 15s6.716 15 15 15c25.122 0 47.994-9.806 65-25.787v115.787h-40.275c-21.87 0-41.535-12.15-51.319-31.711zm236.594 31.711h-60c-8.271 0-15-6.729-15-15s6.729-15 15-15h60c8.271 0 15 6.729 15 15s-6.729 15-15 15z" fill="#135B80" data-original="#000000" style="" class=""/></g></g></svg>
