<svg width="15" height="15" viewBox="0 0 15 15" fill="none" xmlns="http://www.w3.org/2000/svg">
<path d="M14.5067 1.30007C14.5421 1.29503 14.5782 1.29824 14.6121 1.30959C14.646 1.32094 14.6767 1.34004 14.702 1.36538C14.7272 1.39072 14.7464 1.42163 14.7576 1.45559C14.7688 1.48955 14.7721 1.52567 14.7669 1.56106V14.5921C14.7719 14.6274 14.7684 14.6633 14.7571 14.6972C14.7458 14.731 14.7272 14.7617 14.702 14.7869C14.6767 14.8121 14.6459 14.8311 14.6121 14.8424C14.5783 14.8537 14.542 14.8571 14.5067 14.8521H0.432923C0.397537 14.8573 0.361412 14.854 0.327454 14.8428C0.293497 14.8316 0.262459 14.8126 0.237122 14.7874C0.211785 14.7621 0.192808 14.7313 0.181458 14.6974C0.170109 14.6635 0.166651 14.6275 0.171693 14.5921V1.56106C0.166693 1.52562 0.17011 1.48941 0.181458 1.45547C0.192807 1.42152 0.211813 1.39069 0.237122 1.36538C0.262432 1.34007 0.293508 1.32106 0.327454 1.30971C0.3614 1.29837 0.397481 1.29507 0.432923 1.30007H2.25665V2.63601C2.25834 2.81281 2.30233 2.9867 2.38458 3.14321C2.46684 3.29972 2.58514 3.43437 2.7298 3.53603C3.03864 3.78438 3.42436 3.91702 3.82062 3.91103C4.21688 3.91702 4.60309 3.78438 4.91193 3.53603C5.05665 3.43443 5.17488 3.29973 5.25714 3.14321C5.3394 2.98669 5.38298 2.81282 5.38458 2.63601V1.30007H9.55499V2.63601C9.55728 2.81435 9.60279 2.98947 9.68781 3.14626C9.77282 3.30305 9.89458 3.43682 10.0428 3.53603C10.3591 3.78278 10.7496 3.91497 11.1507 3.91103C11.5366 3.91291 11.9111 3.78031 12.2098 3.53603C12.3544 3.43438 12.4729 3.29974 12.555 3.14321C12.6371 2.98668 12.6805 2.81275 12.6819 2.63601V1.30007H14.5067ZM13.2068 13.289V4.949H1.73859V13.289H13.2068ZM4.57306 3.08901C4.47476 3.1863 4.35713 3.2625 4.22833 3.31289C4.09953 3.36327 3.96226 3.38675 3.82404 3.38198C3.68582 3.38669 3.54804 3.36315 3.41925 3.31277C3.29046 3.26238 3.17335 3.18625 3.07501 3.08901C2.97765 2.99056 2.90128 2.87326 2.85089 2.74428C2.80051 2.61531 2.7772 2.47739 2.78204 2.33901V1.29702C2.7771 1.15878 2.8005 1.02094 2.85089 0.892112C2.90129 0.763287 2.97758 0.646188 3.07501 0.547996C3.17316 0.450428 3.28994 0.374074 3.41876 0.323509C3.54758 0.272944 3.68573 0.249295 3.82404 0.254051C3.96236 0.249176 4.09998 0.272693 4.22882 0.323264C4.35766 0.373836 4.47499 0.450331 4.57306 0.547996C4.67072 0.646068 4.7471 0.763152 4.79767 0.89199C4.84824 1.02083 4.87188 1.1587 4.867 1.29702V2.33901C4.87111 2.47735 4.84679 2.61504 4.79572 2.74367C4.74464 2.87231 4.66753 2.98921 4.56964 3.08706L4.57306 3.08901ZM11.8729 3.08901C11.7745 3.18616 11.6574 3.26227 11.5286 3.31264C11.3999 3.36302 11.262 3.38657 11.1238 3.38198C10.9855 3.38677 10.8475 3.36327 10.7186 3.31289C10.5896 3.26251 10.4723 3.18633 10.3738 3.08901C10.2766 2.99049 10.2006 2.87312 10.1502 2.74416C10.0998 2.61521 10.0761 2.47738 10.0809 2.33901V1.29702C10.076 1.15879 10.0993 1.02104 10.1497 0.892234C10.2001 0.763426 10.2765 0.646258 10.3738 0.547996C10.4721 0.450303 10.5896 0.373833 10.7186 0.323264C10.8476 0.272695 10.9854 0.249157 11.1238 0.254051C11.2621 0.249354 11.3998 0.272947 11.5286 0.323509C11.6574 0.37407 11.7747 0.450476 11.8729 0.547996C11.9701 0.646328 12.0461 0.763565 12.0965 0.892356C12.1469 1.02115 12.1705 1.1588 12.1658 1.29702V2.33901C12.1695 2.47739 12.1448 2.61508 12.0936 2.74367C12.0423 2.87227 11.9658 2.98912 11.868 3.08706L11.8729 3.08901Z" fill="#757575"/>
</svg>
