<svg id="Layer_1" data-name="Layer 1" xmlns="http://www.w3.org/2000/svg" viewBox="0 0 12.27 12.27"><defs><style>.cls-1{fill:#164989;}</style></defs><title>icon-close-upload</title><path class="cls-1" d="M1.79,1.79A6,6,0,0,1,6.13,0a6,6,0,0,1,4.35,1.79,6,6,0,0,1,1.79,4.34,6,6,0,0,1-1.79,4.35,6,6,0,0,1-4.35,1.79,6,6,0,0,1-4.34-1.79A6,6,0,0,1,0,6.13,6,6,0,0,1,1.79,1.79Zm7.3,6.4L7,6.13l2.08-2a.21.21,0,0,0,0-.33l-.6-.57a.24.24,0,0,0-.17-.09.21.21,0,0,0-.13.09l-2.09,2-2.08-2a.21.21,0,0,0-.13-.09.24.24,0,0,0-.17.09l-.57.57a.21.21,0,0,0,0,.33L5.26,6.13,3.18,8.22s-.06.06-.06.13a.22.22,0,0,0,.06.17l.57.6a.22.22,0,0,0,.17.05.21.21,0,0,0,.16-.05L6.13,7,8.22,9.09a.19.19,0,0,0,.13.08.22.22,0,0,0,.17-.08l.57-.57a.18.18,0,0,0,.08-.17A.21.21,0,0,0,9.09,8.19Z"/></svg>