<svg id="Layer_1" data-name="Layer 1" xmlns="http://www.w3.org/2000/svg" viewBox="0 0 16.07 12.61"><defs><style>.cls-1{fill:#777;}</style></defs><title>icon-list</title><path class="cls-1" d="M3.42,1.72A1.69,1.69,0,0,1,2.92,3a1.68,1.68,0,0,1-1.21.5A1.68,1.68,0,0,1,.5,3,1.69,1.69,0,0,1,0,1.72,1.68,1.68,0,0,1,.5.5,1.68,1.68,0,0,1,1.71,0,1.68,1.68,0,0,1,2.92.5,1.68,1.68,0,0,1,3.42,1.72Zm0,4.58a1.71,1.71,0,0,1-.5,1.23A1.68,1.68,0,0,1,1.71,8,1.68,1.68,0,0,1,.5,7.53,1.71,1.71,0,0,1,0,6.3,1.67,1.67,0,0,1,.5,5.08a1.68,1.68,0,0,1,1.21-.5,1.68,1.68,0,0,1,1.21.5A1.67,1.67,0,0,1,3.42,6.3Zm0,4.58a1.67,1.67,0,0,1-.5,1.22,1.65,1.65,0,0,1-1.21.51A1.65,1.65,0,0,1,.5,12.1a1.74,1.74,0,0,1,0-2.44,1.64,1.64,0,0,1,1.21-.5,1.64,1.64,0,0,1,1.21.5A1.67,1.67,0,0,1,3.42,10.88ZM16.07.85V2.57a.26.26,0,0,1-.1.21.27.27,0,0,1-.18.07H4.86a.27.27,0,0,1-.2-.07.32.32,0,0,1-.08-.21V.85A.29.29,0,0,1,4.66.66a.26.26,0,0,1,.2-.1H15.79a.28.28,0,0,1,.18.1A.24.24,0,0,1,16.07.85ZM16,5.24a.27.27,0,0,1,.1.22V7.15a.28.28,0,0,1-.1.22.26.26,0,0,1-.18.09H4.86a.25.25,0,0,1-.2-.09.35.35,0,0,1-.08-.22V5.46a.33.33,0,0,1,.08-.22.23.23,0,0,1,.2-.1H15.79A.24.24,0,0,1,16,5.24Zm0,4.59a.23.23,0,0,1,.1.2v1.73A.27.27,0,0,1,16,12a.26.26,0,0,1-.18.09H4.86a.25.25,0,0,1-.2-.09.34.34,0,0,1-.08-.19V10a.27.27,0,0,1,.28-.28H15.79A.29.29,0,0,1,16,9.83Z"/></svg>