<svg id="Layer_1" data-name="Layer 1" xmlns="http://www.w3.org/2000/svg" viewBox="0 0 13.62 13.65"><defs><style>.cls-1{fill:#164989;}</style></defs><title>icon-search</title><path class="cls-1" d="M13.62,12.48a1.15,1.15,0,0,1-.34.82,1.06,1.06,0,0,1-.8.35,1.07,1.07,0,0,1-.82-.35L9.92,11.56a6.12,6.12,0,0,1-3.59,1.13,6.25,6.25,0,0,1-2.46-.5,6.43,6.43,0,0,1-2-1.36A6.32,6.32,0,0,1,.5,3.89a6.29,6.29,0,0,1,1.36-2A6.43,6.43,0,0,1,3.87.5,6.25,6.25,0,0,1,6.33,0a6.4,6.4,0,0,1,4.5,1.86,5.94,5.94,0,0,1,1.34,2,6.26,6.26,0,0,1,.49,2.44,6.24,6.24,0,0,1-1.1,3.59l1.74,1.74A1.19,1.19,0,0,1,13.62,12.48ZM9.36,3.32A4.11,4.11,0,0,0,6.33,2a4.11,4.11,0,0,0-3,1.28A4.15,4.15,0,0,0,2,6.35a4.1,4.1,0,0,0,1.26,3,4.13,4.13,0,0,0,3,1.26,4.13,4.13,0,0,0,3-1.26,4.1,4.1,0,0,0,1.26-3A4.15,4.15,0,0,0,9.36,3.32Z"/></svg>