<svg id="Layer_1" data-name="Layer 1" xmlns="http://www.w3.org/2000/svg" xmlns:xlink="http://www.w3.org/1999/xlink" viewBox="0 0 22 12.73"><defs><style>.cls-1{fill:none;}.cls-2{clip-path:url(#clip-path);}.cls-3{opacity:0.03;}.cls-4{fill:#015b9c;}.cls-5{fill:#539cd3;}</style><clipPath id="clip-path"><rect class="cls-1" x="-1281" y="-1124.81" width="1922" height="1081"/></clipPath></defs><title>icon-version</title><g class="cls-2"><g class="cls-3"><path class="cls-4" d="M218.48-97.14c-92.67-34.59-190.25-57.09-288-61.8-6.32-.48-12.61.21-18.92,0a922.41,922.41,0,0,0-71.74,75.11s208.07-18.42,470,144.57L422.89.87C357.45-36.52,289.28-69.85,218.48-97.14Z"/><path class="cls-4" d="M-239.85-73.78c338.38-340.74,522-282.16,522-282.16-433.45-261-651.34.7-830.48,178.49S-956.18-19.87-956.18-19.87-578.21,267-239.85-73.78Z"/></g></g><polygon class="cls-5" points="16.58 0 17.55 4.19 22 4.86 17.8 8.12 17.39 12.73 13.82 10.55 9.12 12.73 11.11 8.12 8.62 4.86 13.42 4.19 16.58 0"/><rect class="cls-5" x="5.56" y="0.23" width="7.58" height="0.51"/><rect class="cls-5" y="3.76" width="8.09" height="0.51"/><rect class="cls-5" x="3.04" y="7.28" width="5.56" height="0.51"/><rect class="cls-5" x="5.07" y="10.8" width="3.54" height="0.51"/></svg>