<svg id="Layer_1" data-name="Layer 1" xmlns="http://www.w3.org/2000/svg" viewBox="0 0 17.42 13.97"><defs><style>.cls-1{fill:#3d3d3d;}</style></defs><title>icon-bread-dark</title><path class="cls-1" d="M17.39,6.86l-.13-.22L13.53.4l-.1-.17L13.32.15a10.67,10.67,0,0,0-2.47,2.38L13.52,7,9.38,13.93h3.78a.5.5,0,0,0,.25-.13l.14-.22,3.71-6.22.13-.21a.8.8,0,0,0,0-.15A.58.58,0,0,0,17.39,6.86Z"/><path class="cls-1" d="M11.31,0,10.12,0a.21.21,0,0,0,0,.06h1.2Z"/><path class="cls-1" d="M9.53.81A11,11,0,0,0,8.44,2.72,7.33,7.33,0,0,0,8,4.08,4.31,4.31,0,0,0,8.66,5a5.36,5.36,0,0,1,.58-2,11,11,0,0,1,.94-1.55L9.69.59C9.64.67,9.58.73,9.53.81Z"/><path class="cls-1" d="M10.18,1.41A14.12,14.12,0,0,1,11.28.08h-1.2c-.14.17-.26.34-.39.51Z"/><path class="cls-1" d="M7.82,3.58a6.34,6.34,0,0,1,.39-1A11,11,0,0,1,9.61.46L9.38.08h.55L10,0,8.9,0A3.66,3.66,0,0,0,7.82,3.58Z"/><path class="cls-1" d="M9.61.46c.11-.13.21-.26.32-.38H9.38Z"/><path class="cls-1" d="M13.09.08l-1.66,0,0,0h1.69Z"/><path class="cls-1" d="M9.48,3.07A6.15,6.15,0,0,0,9,5.15a.65.65,0,0,0,0,.14,5.35,5.35,0,0,0,.61.52A5.54,5.54,0,0,1,10.77,2.4l-.49-.82A10.68,10.68,0,0,0,9.48,3.07Z"/><path class="cls-1" d="M13.09.08H11.4c-.29.35-.57.7-.83,1.08l-.29.42.49.82A10.33,10.33,0,0,1,13.09.08Z"/><path class="cls-1" d="M7.81,13.17A11.33,11.33,0,0,0,8.9,11.26a7.21,7.21,0,0,0,.41-1.37A4.26,4.26,0,0,0,8.68,9a5.23,5.23,0,0,1-.58,2,10.33,10.33,0,0,1-.91,1.5l.49.82Z"/><path class="cls-1" d="M6,13.93l1.19,0,0,0Z"/><path class="cls-1" d="M7.19,12.52A12.07,12.07,0,0,1,6,13.93H7.24c.15-.19.3-.39.44-.59Z"/><path class="cls-1" d="M9.52,10.4a6.78,6.78,0,0,1-.39,1,10.91,10.91,0,0,1-1.37,2.11l.27.45H7.39l0,0,1.08,0A3.64,3.64,0,0,0,9.52,10.4Z"/><path class="cls-1" d="M7.76,13.48l-.37.45H8Z"/><path class="cls-1" d="M7.86,10.91a6.4,6.4,0,0,0,.51-2.09.66.66,0,0,1,0-.14c-.19-.17-.39-.34-.62-.52A5.51,5.51,0,0,1,6.6,11.53l.49.82A11,11,0,0,0,7.86,10.91Z"/><path class="cls-1" d="M7.09,12.35l-.49-.82A10.21,10.21,0,0,1,4.25,13.9l1.66,0a12.7,12.7,0,0,0,.86-1.11C6.88,12.66,7,12.51,7.09,12.35Z"/><path class="cls-1" d="M9.67,6.28C6.88,3.83,7.36,2.49,7.36,2.49c-2.13,3.15,0,4.73,1.46,6a3.74,3.74,0,0,1,1.29,3A3.63,3.63,0,0,0,9.67,6.28Z"/><path class="cls-1" d="M6.46,11.32,3.9,7,8,.08H4.29A.51.51,0,0,0,4,.23L3.88.4.16,6.64,0,6.86A.58.58,0,0,0,0,7a.8.8,0,0,0,0,.15l.13.21,3.71,6.22L4,13.8H4A15.12,15.12,0,0,0,6.46,11.32Z"/></svg>