<svg width="22" height="22" viewBox="0 0 22 22" fill="none" xmlns="http://www.w3.org/2000/svg">
<path d="M14.4797 14.766C14.3261 14.6133 14.128 14.513 13.9139 14.4799C13.6998 14.4466 13.4807 14.4822 13.288 14.5813L12.9347 14.228C13.5401 13.5294 13.8868 12.6437 13.9167 11.7197C13.9464 10.7957 13.6575 9.88969 13.0985 9.15345C13.0386 9.07425 12.9498 9.02231 12.8516 9.009C12.7534 8.99553 12.6539 9.02198 12.5752 9.0822C12.4965 9.14241 12.445 9.23152 12.4322 9.32972C12.4194 9.42808 12.4463 9.52741 12.507 9.6058C14.1449 11.7275 12.5892 14.8865 9.90381 14.8653C8.14422 14.9016 6.59372 13.3513 6.63008 11.5915C6.59891 9.16067 9.30149 7.52494 11.4367 8.69775C11.6184 8.79416 11.8437 8.72502 11.9401 8.54323C12.0365 8.36161 11.9674 8.13617 11.7858 8.03976C11.0336 7.64422 10.1762 7.49508 9.33462 7.61354C6.07418 8.07221 4.72706 12.1097 7.06279 14.4328C8.43982 15.8654 10.8689 16.001 12.3967 14.7425L12.7662 15.1121C12.6713 15.3031 12.6385 15.5192 12.6727 15.7298C12.7068 15.9403 12.806 16.1351 12.9564 16.2864L14.9613 18.3143C15.394 18.747 16.0909 18.6972 16.4832 18.2364C16.6743 18.045 16.7817 17.7858 16.782 17.5154C16.7824 17.245 16.6754 16.9854 16.4847 16.7938L14.4797 14.766ZM15.9565 17.71L15.8788 17.7877H15.8786C15.7713 17.8953 15.5972 17.896 15.4891 17.7894L13.4844 15.7613C13.3766 15.6534 13.3766 15.4786 13.4844 15.3705L13.5622 15.2927C13.6696 15.1851 13.8436 15.1845 13.9519 15.2911L15.9567 17.319C16.0643 17.4271 16.0643 17.6019 15.9565 17.7098L15.9565 17.71Z" fill="#6E6B7B" stroke="#6E6B7B" stroke-width="0.3"/>
<path d="M7.80737 11.7197C7.80737 11.821 7.84763 11.918 7.9192 11.9895C7.99078 12.061 8.08784 12.1013 8.18896 12.1013C8.69471 12.0826 8.69455 11.3566 8.18896 11.3381C7.97828 11.3381 7.80737 11.509 7.80737 11.7197V11.7197Z" fill="#6E6B7B" stroke="#6E6B7B" stroke-width="0.3"/>
<path d="M9.51831 11.7197C9.51831 11.821 9.55856 11.918 9.63014 11.9895C9.70172 12.061 9.79878 12.1013 9.89989 12.1013C10.4056 12.0826 10.4055 11.3566 9.89989 11.3381C9.68922 11.3381 9.51831 11.509 9.51831 11.7197V11.7197Z" fill="#6E6B7B" stroke="#6E6B7B" stroke-width="0.3"/>
<path d="M11.6113 11.3381C11.4006 11.3381 11.2297 11.5089 11.2297 11.7197C11.2484 12.2255 11.9744 12.2253 11.9929 11.7197H11.993C11.993 11.5089 11.8221 11.3381 11.6113 11.3381H11.6113Z" fill="#6E6B7B" stroke="#6E6B7B" stroke-width="0.3"/>
<path d="M19.6438 1H2.81493C2.33386 1.00049 1.8724 1.19185 1.53222 1.53222C1.19203 1.87242 1.0005 2.33369 1 2.81493V19.1851C1.00065 19.6663 1.19201 20.1276 1.53222 20.4678C1.87242 20.8081 2.33386 20.9995 2.81493 21H19.6438C20.125 20.9995 20.5863 20.8082 20.9267 20.4678C21.2669 20.1276 21.4582 19.6663 21.4589 19.1851V2.81493C21.4582 2.33369 21.2669 1.8724 20.9267 1.53222C20.5863 1.19186 20.125 1.0005 19.6438 1ZM19.6438 20.2558H2.81493C2.53122 20.2555 2.25919 20.1427 2.05842 19.9419C1.85781 19.7413 1.745 19.4693 1.74468 19.1856V2.81503C1.745 2.53132 1.85781 2.25912 2.05842 2.05852C2.25919 1.85791 2.53122 1.74494 2.81493 1.74461H19.6438C19.9277 1.74494 20.1997 1.85791 20.4003 2.05852C20.6011 2.25913 20.7139 2.53132 20.7142 2.81503V5.18666H3.26126C3.05561 5.18666 2.88893 5.35318 2.88893 5.55883C2.88893 5.76447 3.05561 5.93116 3.26126 5.93116H20.7142V19.1854C20.7139 19.4693 20.6011 19.7413 20.4003 19.9419C20.1997 20.1427 19.9277 20.2555 19.6438 20.2558V20.2558Z" fill="#6E6B7B" stroke="#6E6B7B" stroke-width="0.3"/>
<path d="M3.26121 3.90707C3.36233 3.90707 3.45939 3.86682 3.53097 3.79524C3.60255 3.72366 3.6428 3.6266 3.6428 3.52549C3.62413 3.01974 2.89813 3.01991 2.87964 3.52549C2.87964 3.73616 3.05039 3.90707 3.26122 3.90707H3.26121Z" fill="#6E6B7B" stroke="#6E6B7B" stroke-width="0.3"/>
<path d="M4.46849 3.90707C4.56977 3.90707 4.66683 3.86682 4.73841 3.79524C4.80982 3.72366 4.85007 3.6266 4.85007 3.52549C4.83141 3.01974 4.1054 3.01991 4.08691 3.52549C4.08691 3.73616 4.25782 3.90707 4.4685 3.90707H4.46849Z" fill="#6E6B7B" stroke="#6E6B7B" stroke-width="0.3"/>
<path d="M5.67577 3.90707C5.77705 3.90707 5.8741 3.86682 5.94568 3.79524C6.01726 3.72366 6.05735 3.6266 6.05735 3.52549C6.03868 3.01974 5.31268 3.01991 5.29419 3.52549C5.29419 3.6266 5.33444 3.72366 5.40602 3.79524C5.4776 3.86682 5.57466 3.90707 5.67577 3.90707H5.67577Z" fill="#6E6B7B" stroke="#6E6B7B" stroke-width="0.3"/>
</svg>
