<svg width="18" height="19" viewBox="0 0 18 19" fill="none" xmlns="http://www.w3.org/2000/svg">
<path d="M7.36457 0.424283C7.70687 0.149666 8.13259 0 8.57143 0C9.01027 0 9.43599 0.149666 9.77829 0.424283L16.4211 5.754C16.6465 5.9348 16.8284 6.16392 16.9533 6.42444C17.0782 6.68496 17.143 6.97022 17.1429 7.25914V16.9277C17.1429 17.4392 16.9397 17.9297 16.578 18.2914C16.2163 18.6531 15.7258 18.8563 15.2143 18.8563H12.6429C12.1314 18.8563 11.6408 18.6531 11.2792 18.2914C10.9175 17.9297 10.7143 17.4392 10.7143 16.9277V11.7849C10.7143 11.6144 10.6466 11.4508 10.526 11.3303C10.4054 11.2097 10.2419 11.142 10.0714 11.142H7.07143C6.90093 11.142 6.73742 11.2097 6.61686 11.3303C6.4963 11.4508 6.42857 11.6144 6.42857 11.7849V16.9277C6.42857 17.4392 6.22538 17.9297 5.86371 18.2914C5.50203 18.6531 5.01149 18.8563 4.5 18.8563H1.92857C1.41708 18.8563 0.926543 18.6531 0.564866 18.2914C0.203188 17.9297 0 17.4392 0 16.9277V7.25914C0 6.67457 0.265714 6.12086 0.721714 5.75486L7.36457 0.42514V0.424283ZM8.97343 1.42714C8.85938 1.33574 8.71758 1.28594 8.57143 1.28594C8.42527 1.28594 8.28348 1.33574 8.16943 1.42714L1.52657 6.75686C1.45144 6.81706 1.39079 6.89338 1.3491 6.98017C1.30741 7.06696 1.28575 7.162 1.28571 7.25828V16.9269C1.28571 17.2826 1.57371 17.5697 1.92857 17.5697H4.5C4.6705 17.5697 4.83401 17.502 4.95457 17.3814C5.07513 17.2609 5.14286 17.0974 5.14286 16.9269V11.784C5.14286 11.2725 5.34605 10.782 5.70772 10.4203C6.0694 10.0586 6.55994 9.85543 7.07143 9.85543H10.0714C10.3248 9.85543 10.5756 9.90534 10.8097 10.0023C11.0437 10.0993 11.2563 10.2414 11.4354 10.4206C11.6145 10.5998 11.7566 10.8125 11.8534 11.0466C11.9503 11.2806 12.0001 11.5315 12 11.7849V16.9277C12 17.2834 12.288 17.5706 12.6429 17.5706H15.2143C15.3848 17.5706 15.5483 17.5028 15.6689 17.3823C15.7894 17.2617 15.8571 17.0982 15.8571 16.9277V7.25914C15.8572 7.16293 15.8357 7.06793 15.7941 6.98114C15.7526 6.89436 15.6921 6.81801 15.6171 6.75771L8.97429 1.428L8.97343 1.42714Z" fill="#A73733"/>
</svg>
