<svg width="20" height="10" viewBox="0 0 20 10" fill="none" xmlns="http://www.w3.org/2000/svg">
<path d="M14.6465 0.542725H5.35373C2.89613 0.542725 0.880127 2.5396 0.880127 5.01632C0.880127 7.49305 2.89616 9.48992 5.35373 9.48992H14.6465C17.1041 9.48992 19.1201 7.49305 19.1201 5.01632C19.1201 2.5396 17.1041 0.542725 14.6465 0.542725ZM5.35373 8.29952C3.54889 8.29952 2.07046 6.82112 2.07046 5.01625C2.07046 3.21145 3.54889 1.73297 5.35373 1.73297C7.15853 1.73297 8.63701 3.21145 8.63701 5.01625C8.63686 6.82112 7.15853 8.29952 5.35373 8.29952ZM14.6465 8.29952H8.38733C9.27061 7.474 9.82733 6.32192 9.82733 5.01625C9.82733 3.71072 9.27061 2.55865 8.38733 1.73297H14.6273C16.4321 1.73297 17.9106 3.21145 17.9106 5.01625C17.9105 6.82112 16.4513 8.29952 14.6465 8.29952H14.6465Z" fill="#6E6B7B"/>
<path d="M15.4335 3.28853C15.2223 3.07733 14.8384 3.07733 14.6271 3.28853L13.7056 4.21013L12.8032 3.28853C12.592 3.07733 12.208 3.07733 11.9968 3.28853C11.7664 3.51893 11.7664 3.8646 11.9968 4.09493L12.9183 5.01653L11.9968 5.93813C11.7664 6.16845 11.7664 6.51413 11.9968 6.74453C12.112 6.85965 12.2464 6.91725 12.4 6.91725C12.5536 6.91725 12.688 6.85965 12.8033 6.74453L13.7248 5.82293L14.6464 6.74453C14.7616 6.85965 14.8961 6.91725 15.0497 6.91725C15.2033 6.91725 15.3376 6.85965 15.4529 6.74453C15.6833 6.51413 15.6833 6.16845 15.4529 5.93813L14.5311 5.01653L15.4527 4.09493C15.6639 3.88373 15.6639 3.51893 15.4335 3.28853Z" fill="#6E6B7B"/>
</svg>
