<svg width="23" height="22" viewBox="0 0 23 22" fill="none" xmlns="http://www.w3.org/2000/svg">
<path d="M3.03372 17.6216C3.03372 17.6216 3.06649 17.6216 3.03372 17.6216V16.4078C3.03372 16.2111 3.16495 16.0798 3.36173 16.0798H12.5467C12.7435 16.0798 12.8747 16.2111 12.8747 16.4078V17.6871L14.1868 19.3929C14.2195 19.4584 14.2523 19.5241 14.2523 19.5896V20.6721C14.2523 20.8689 14.1211 21.0001 13.9243 21.0001H1.91827C1.7215 21.0001 1.59026 20.8689 1.59026 20.6721V19.5896C1.59026 19.5241 1.62303 19.4584 1.6558 19.3929L3.03372 17.6216ZM3.72265 16.7687V17.5232H12.2187V16.7687H3.72265ZM2.24644 20.4099H13.5964V19.7538L12.3827 18.1793L3.46018 18.1792L2.24644 19.7537V20.4099Z" fill="#6E6B7B" stroke="#6E6B7B" stroke-width="0.3"/>
<path d="M1.2952 9.42089C1.49198 9.19135 1.75445 9.06011 2.08245 9.02717C2.04967 8.73194 2.14799 8.43671 2.34492 8.20715C2.64016 7.84636 3.13216 7.7479 3.55867 7.87913L7.03572 3.84452C6.83894 3.4508 6.90448 2.95881 7.19972 2.59803C7.3965 2.36848 7.65897 2.23725 7.98697 2.20431C7.9542 1.90907 8.05251 1.61384 8.24944 1.38428C8.6759 0.925029 9.36472 0.859499 9.85671 1.28581L13.2027 4.13958C13.6619 4.56604 13.7274 5.25486 13.3011 5.74685C13.1044 5.9764 12.8091 6.10763 12.5139 6.14057C12.5467 6.43581 12.4483 6.73104 12.2514 6.9606C11.9562 7.28861 11.5297 7.45263 11.0377 7.28861L10.0864 8.37111L22.0267 18.7696C22.2235 18.9336 22.322 19.2289 22.2892 19.5241C22.2237 20.1802 21.5675 20.8034 20.9442 20.8034C20.7475 20.8034 20.5505 20.7379 20.4195 20.6066L8.47916 10.241L7.52791 11.3235C7.72469 11.7172 7.65915 12.2092 7.36391 12.57C7.16713 12.7995 6.87187 12.9307 6.57666 12.9637C6.60943 13.2589 6.51112 13.5541 6.31419 13.7837C5.88773 14.243 5.19891 14.3085 4.70692 13.8822L1.39375 11.0283C1.1642 10.8315 1.03297 10.5362 1.00003 10.241C1.00003 9.94577 1.0985 9.65055 1.29527 9.42098L1.2952 9.42089ZM7.1341 10.8314C10.1191 7.4199 8.77432 8.92886 10.4801 6.96069L7.46214 4.33645L4.11619 8.20715L7.1341 10.8314ZM12.8091 5.32032C12.9731 5.12355 12.9731 4.82829 12.7763 4.66429L9.4633 1.77759C9.26653 1.61358 8.97127 1.61358 8.77452 1.81036C8.61052 2.00713 8.61052 2.30239 8.80729 2.49913L12.1203 5.38584C12.3171 5.55 12.6451 5.51707 12.8091 5.3203V5.32032ZM11.7595 6.53407C11.9235 6.3373 11.9235 6.04204 11.7268 5.84529L8.38081 2.99137C8.18403 2.82737 7.88877 2.82737 7.69187 3.02414C7.52787 3.22092 7.52787 3.51618 7.72464 3.71292L11.0377 6.59963C11.2674 6.76363 11.5626 6.76363 11.7595 6.53408V6.53407ZM20.8788 20.1144C21.0428 20.2456 21.6005 19.8848 21.666 19.4583C21.666 19.3599 21.666 19.2943 21.6333 19.2616L9.69294 8.89589L8.93844 9.74882L20.8788 20.1144ZM6.90454 12.1433C7.06854 11.9466 7.06854 11.6513 6.87177 11.4546L3.55875 8.56785C3.36198 8.40384 3.06672 8.40384 2.86997 8.60062C2.70597 8.79739 2.70597 9.09265 2.90275 9.2894L6.21576 12.1761C6.41254 12.373 6.70779 12.3401 6.90454 12.1433ZM1.8199 10.5361L5.13292 13.4228C5.32969 13.5868 5.62495 13.5868 5.8217 13.39C5.9857 13.1932 5.9857 12.898 5.78892 12.7012L2.47606 9.78157C2.27929 9.61757 1.98403 9.61756 1.78729 9.81434C1.68882 9.91281 1.65606 10.0439 1.65606 10.1751C1.68883 10.3064 1.75437 10.4376 1.81991 10.5361L1.8199 10.5361Z" fill="#6E6B7B" stroke="#6E6B7B" stroke-width="0.3"/>
</svg>
