<svg width="13" height="16" viewBox="0 0 13 16" fill="none" xmlns="http://www.w3.org/2000/svg">
<path d="M5.41079 12.7418H5.4195C5.64315 12.737 5.82089 12.5519 5.81603 12.3281L5.65389 4.58239C5.64936 4.36145 5.46879 4.18562 5.24899 4.18562H5.24028C5.01663 4.19037 4.83889 4.37547 4.84375 4.59935L5.0059 12.345C5.01064 12.566 5.19099 12.7418 5.41079 12.7418ZM7.78153 12.7418C8.00134 12.7418 8.18191 12.566 8.18643 12.345L8.34857 4.59935C8.35332 4.3757 8.1758 4.19037 7.95204 4.18562H7.94333C7.72352 4.18562 7.54295 4.36145 7.53843 4.58239L7.37629 12.3281C7.37154 12.5517 7.54906 12.737 7.77282 12.7418H7.78153ZM10.9699 4.1862C10.7482 4.17908 10.5587 4.35321 10.5506 4.57686L10.226 13.6914C10.226 13.9661 10.003 14.1895 9.72887 14.1895H3.46409C3.18944 14.1895 2.96601 13.966 2.96567 13.6769L2.6415 4.57686C2.63358 4.3532 2.44453 4.17975 2.22213 4.1862C1.99848 4.19412 1.82354 4.38204 1.83159 4.60557L2.15544 13.6914C2.15544 14.4131 2.74249 15 3.464 15H9.72878C10.4498 15 11.0364 14.4129 11.0361 13.7058L11.3603 4.60575C11.3685 4.38232 11.1936 4.19451 10.97 4.18649L10.9699 4.1862ZM11.7861 2.56523H9.31639V1.40524C9.31639 1.18136 9.13503 1 8.91115 1H4.28152C4.05764 1 3.87628 1.18136 3.87628 1.40524V2.56523H1.40524C1.18136 2.56523 1 2.74659 1 2.97047C1 3.19435 1.18136 3.37572 1.40524 3.37572H11.7859C12.0097 3.37572 12.1911 3.19435 12.1911 2.97047C12.1911 2.74659 12.0095 2.56523 11.7859 2.56523H11.7861ZM8.5059 2.56523H4.68677V1.81049H8.5059V2.56523Z" fill="#6E6B7B" stroke="#6E6B7B" stroke-width="0.25"/>
</svg>
