<svg width="17" height="16" viewBox="0 0 17 16" fill="none" xmlns="http://www.w3.org/2000/svg">
<path fill-rule="evenodd" clip-rule="evenodd" d="M11.124 1.61308V3.96208C12.73 4.84908 13.756 6.58608 13.756 8.54008C13.756 11.3941 11.406 13.7091 8.50799 13.7091C5.61199 13.7091 3.26199 11.3951 3.26199 8.54008C3.26199 6.52308 4.27399 4.79108 5.95799 3.93908V1.61108C3.02099 2.58608 1.06299 5.30408 1.06299 8.54008C1.06299 12.5921 4.39699 15.8751 8.50699 15.8751C12.618 15.8751 15.953 12.5921 15.953 8.54008C15.954 5.36308 13.98 2.63808 11.124 1.61308Z" fill="#6E6B7B"/>
<path fill-rule="evenodd" clip-rule="evenodd" d="M8.4601 7.87304C9.2381 7.87304 9.8721 7.39304 9.8721 6.79804V1.11504C9.8721 0.521039 9.2381 0.0400391 8.4601 0.0400391C7.6811 0.0400391 7.0481 0.521039 7.0481 1.11504V6.79804C7.0481 7.39304 7.6811 7.87304 8.4601 7.87304Z" fill="#6E6B7B"/>
</svg>
