<svg width="22" height="20" viewBox="0 0 22 20" fill="none" xmlns="http://www.w3.org/2000/svg">
<path d="M20.6656 17.3335H11.3327C10.9647 17.3335 10.666 17.0348 10.666 16.6669C10.666 16.2989 10.666 3.7021 10.666 3.33412C10.666 2.96613 10.9647 2.66748 11.3327 2.66748H20.6656C21.0336 2.66748 21.3322 2.96613 21.3322 3.33412V16.6669C21.3322 17.0348 21.0336 17.3335 20.6656 17.3335Z" fill="#ECEFF1"/>
<path d="M13.9992 6.66726H11.3327C10.9647 6.66726 10.666 6.3686 10.666 6.00062C10.666 5.63264 10.9647 5.33398 11.3327 5.33398H13.9992C14.3672 5.33398 14.6659 5.63264 14.6659 6.00062C14.6659 6.3686 14.3672 6.66726 13.9992 6.66726Z" fill="#388E3C"/>
<path d="M13.9992 9.33376H11.3327C10.9647 9.33376 10.666 9.03511 10.666 8.66713C10.666 8.29914 10.9647 8.00049 11.3327 8.00049H13.9992C14.3672 8.00049 14.6658 8.29914 14.6658 8.66713C14.6658 9.03511 14.3672 9.33376 13.9992 9.33376Z" fill="#388E3C"/>
<path d="M13.9992 12.0004H11.3327C10.9647 12.0004 10.666 11.7017 10.666 11.3338C10.666 10.9658 10.9647 10.6671 11.3327 10.6671H13.9992C14.3672 10.6671 14.6658 10.9658 14.6658 11.3338C14.6658 11.7017 14.3672 12.0004 13.9992 12.0004Z" fill="#388E3C"/>
<path d="M13.9992 14.6669H11.3327C10.9647 14.6669 10.666 14.3682 10.666 14.0003C10.666 13.6323 10.9647 13.3336 11.3327 13.3336H13.9992C14.3672 13.3336 14.6658 13.6323 14.6658 14.0003C14.6658 14.3682 14.3672 14.6669 13.9992 14.6669Z" fill="#388E3C"/>
<path d="M17.999 6.66726H16.6658C16.2978 6.66726 15.9991 6.3686 15.9991 6.00062C15.9991 5.63264 16.2978 5.33398 16.6658 5.33398H17.999C18.367 5.33398 18.6657 5.63264 18.6657 6.00062C18.6657 6.3686 18.367 6.66726 17.999 6.66726Z" fill="#388E3C"/>
<path d="M17.999 9.33376H16.6658C16.2978 9.33376 15.9991 9.03511 15.9991 8.66713C15.9991 8.29914 16.2978 8.00049 16.6658 8.00049H17.999C18.367 8.00049 18.6657 8.29914 18.6657 8.66713C18.6657 9.03511 18.367 9.33376 17.999 9.33376Z" fill="#388E3C"/>
<path d="M17.999 12.0004H16.6658C16.2978 12.0004 15.9991 11.7017 15.9991 11.3338C15.9991 10.9658 16.2978 10.6671 16.6658 10.6671H17.999C18.367 10.6671 18.6657 10.9658 18.6657 11.3338C18.6657 11.7017 18.367 12.0004 17.999 12.0004Z" fill="#388E3C"/>
<path d="M17.999 14.6669H16.6658C16.2978 14.6669 15.9991 14.3682 15.9991 14.0003C15.9991 13.6323 16.2978 13.3336 16.6658 13.3336H17.999C18.367 13.3336 18.6657 13.6323 18.6657 14.0003C18.6657 14.3682 18.367 14.6669 17.999 14.6669Z" fill="#388E3C"/>
<path d="M11.7581 0.154225C11.6061 0.0275638 11.4022 -0.0271004 11.2102 0.0128978L0.543976 2.01281C0.22799 2.07147 0 2.34613 0 2.66745V17.3335C0 17.6534 0.22799 17.9294 0.543976 17.9881L11.2102 19.988C11.2502 19.996 11.2915 20 11.3328 20C11.4875 20 11.6381 19.9467 11.7581 19.8467C11.9115 19.72 11.9995 19.5307 11.9995 19.3334V0.667535C11.9995 0.468877 11.9115 0.280886 11.7581 0.154225Z" fill="#2E7D32"/>
<path d="M9.16761 12.2283L7.0597 9.81907L9.19161 7.07786C9.41827 6.7872 9.36493 6.36856 9.07561 6.1419C8.78629 5.91524 8.36765 5.96857 8.13966 6.25789L6.16508 8.79645L4.50115 6.8952C4.25716 6.61521 3.83585 6.58988 3.56119 6.83254C3.28387 7.07519 3.25588 7.49651 3.49853 7.77249L5.33178 9.8684L3.4732 12.2576C3.24654 12.5483 3.29987 12.9669 3.58919 13.1936C3.71185 13.2882 3.85718 13.3336 3.99984 13.3336C4.1985 13.3336 4.39449 13.2456 4.52648 13.0763L6.22641 10.8897L8.16499 13.1043C8.29698 13.2562 8.48097 13.3336 8.6663 13.3336C8.82229 13.3336 8.97828 13.2789 9.10495 13.1683C9.38227 12.9256 9.41027 12.5043 9.16761 12.2283Z" fill="#FAFAFA"/>
</svg>
