<?xml version="1.0" standalone="no"?>
<!DOCTYPE svg PUBLIC "-//W3C//DTD SVG 20010904//EN"
 "http://www.w3.org/TR/2001/REC-SVG-20010904/DTD/svg10.dtd">
<svg version="1.0" xmlns="http://www.w3.org/2000/svg"
 width="1280.000000pt" height="828.000000pt" viewBox="0 0 1280.000000 828.000000"
 preserveAspectRatio="xMidYMid meet">

<g transform="translate(0.000000,828.000000) scale(0.100000,-0.100000)"
fill="#000000" stroke="none">
<path d="M6010 8273 c-152 -4 -461 -24 -630 -39 -1172 -106 -2168 -366 -3025
-789 -556 -274 -954 -553 -1336 -934 -295 -296 -503 -581 -678 -931 -193 -385
-295 -750 -330 -1183 -50 -601 100 -1268 411 -1831 191 -345 397 -617 692
-911 420 -420 871 -730 1416 -976 788 -354 1837 -590 2890 -648 102 -6 228
-14 280 -17 123 -10 577 -10 700 0 52 3 178 11 280 17 1404 77 2836 478 3733
1046 188 120 376 263 399 306 10 19 8 20 -24 14 -19 -3 -185 -61 -369 -130
-633 -237 -1064 -367 -1599 -481 -164 -35 -197 -41 -510 -96 -451 -79 -1026
-139 -1554 -160 -285 -12 -1002 -3 -1255 15 -1565 110 -2756 472 -3566 1084
-242 182 -556 482 -718 686 -418 524 -641 1076 -688 1697 -29 396 60 872 234
1243 221 471 569 892 1018 1232 634 480 1503 849 2492 1058 1424 300 3075 279
4557 -56 992 -225 1868 -593 2450 -1030 137 -103 207 -163 319 -278 668 -680
855 -1527 495 -2232 -105 -205 -211 -345 -405 -534 -329 -321 -757 -566 -1164
-669 -312 -78 -428 -90 -865 -91 -404 0 -440 4 -668 70 -390 112 -713 352
-873 650 -36 67 -99 230 -99 257 0 7 402 9 1308 7 l1307 -4 53 30 c134 74 170
184 142 437 -73 666 -530 1229 -1170 1442 -178 59 -284 77 -485 83 -219 6
-367 -15 -570 -82 -447 -147 -773 -416 -988 -815 -269 -503 -279 -1057 -27
-1575 192 -396 487 -664 925 -843 363 -147 884 -228 1306 -202 552 33 1087
172 1476 381 791 424 1315 1062 1458 1773 46 229 55 427 30 657 -31 297 -103
544 -240 824 -146 299 -317 540 -567 796 -173 178 -341 315 -584 477 -1259
839 -3319 1319 -5384 1255z m3325 -3248 c384 -80 696 -330 832 -669 18 -46 36
-98 40 -116 l6 -33 -694 6 c-382 4 -872 7 -1091 7 l-396 0 14 48 c21 69 85
199 139 280 241 367 721 566 1150 477z"/>
<path d="M3495 5650 c-434 -31 -804 -209 -1115 -537 -238 -251 -385 -540 -439
-863 -40 -243 -37 -444 10 -675 122 -603 623 -1133 1219 -1288 173 -45 233
-52 465 -51 233 0 335 14 495 66 154 50 215 129 215 278 -1 91 -26 150 -87
205 -89 81 -175 93 -343 48 -92 -25 -115 -27 -290 -27 -175 0 -198 2 -290 27
-408 109 -741 463 -821 872 -24 120 -23 349 1 460 59 278 215 518 449 692 259
192 626 262 931 176 180 -50 277 -36 368 52 50 48 74 99 82 171 14 120 -29
225 -114 278 -71 45 -279 99 -426 110 -161 13 -202 13 -310 6z"/>
<path d="M5743 5650 c-277 -28 -527 -175 -704 -412 -147 -198 -211 -456 -180
-725 38 -322 168 -517 437 -655 112 -57 209 -92 454 -163 393 -113 426 -126
509 -201 200 -180 133 -524 -126 -647 l-68 -32 -515 -5 c-500 -5 -516 -6 -561
-26 -57 -27 -118 -86 -144 -139 -24 -50 -31 -161 -15 -221 17 -59 86 -135 152
-168 l52 -26 497 0 c537 0 595 4 734 55 298 109 526 352 622 662 26 84 27 98
27 288 0 230 -13 294 -85 443 -32 67 -58 102 -122 167 -140 140 -283 208 -649
310 -413 114 -481 142 -562 236 -58 67 -87 137 -93 227 -16 225 132 416 348
452 35 5 218 10 407 10 l343 0 54 26 c221 104 216 424 -7 525 -52 24 -58 24
-388 25 -184 1 -372 -2 -417 -6z"/>
</g>
</svg>
