<svg width="25" height="24" viewBox="0 0 25 24" fill="none" xmlns="http://www.w3.org/2000/svg">
<path d="M12.7234 2.14439C12.826 2.14439 12.9284 2.1835 13.0068 2.26185L15.8406 5.0959C15.9973 5.2526 15.9973 5.50613 15.8406 5.66268C15.7624 5.74089 15.6598 5.78014 15.5572 5.78014C15.4547 5.78014 15.3523 5.7409 15.2739 5.66268L14.1405 6.79613L21.792 14.4477C22.0193 14.6747 22.1442 14.9768 22.1442 15.2978C22.1442 15.6191 22.0193 15.9209 21.7921 16.1479C21.5651 16.3749 21.2631 16.5 20.9418 16.5C20.6208 16.5 20.3188 16.3749 20.0919 16.1478L12.44 8.49625L11.3063 9.6298C11.463 9.7865 11.463 10.04 11.3063 10.1966C11.2281 10.2748 11.1255 10.314 11.0231 10.314C10.9205 10.314 10.818 10.2748 10.7397 10.1966L7.9056 7.36266C7.74904 7.2061 7.74904 6.95257 7.9056 6.79588C8.06217 6.63932 8.31569 6.63932 8.47224 6.79588L12.4401 2.82835C12.2836 2.67178 12.2836 2.41825 12.4401 2.26157C12.5183 2.18336 12.6208 2.14439 12.7234 2.14439ZM13.0069 3.39527L9.03903 7.36281L10.7398 9.06331L14.7073 5.09612L13.0069 3.39527ZM13.5737 7.36281L13.0069 7.92959L18.2468 13.1691L18.8143 12.6034L13.5737 7.36281ZM19.381 13.1701L18.8134 13.7358L19.3654 14.2878L19.933 13.7219L19.381 13.1701ZM20.4996 14.2886L19.9321 14.8544L20.6588 15.5811C20.8099 15.7328 21.074 15.7328 21.2251 15.5811C21.3006 15.5056 21.3428 15.4048 21.3428 15.2977C21.3428 15.1908 21.301 15.0902 21.2253 15.0143L20.4996 14.2886Z" fill="white" stroke="white" stroke-width="0.25"/>
<path d="M6.02057 13.9685L3.51364 12.4162C3.13446 12.1842 2.6438 12.4563 2.6438 12.9024V16.0026C2.6438 16.4486 3.13001 16.7208 3.50918 16.4843L6.01611 14.9365C6.38187 14.7134 6.38188 14.1871 6.02057 13.9685Z" stroke="white"/>
<path d="M7.29831 12.5C7.29831 12.2239 7.52217 12 7.79831 12C8.07445 12 8.29831 12.2239 8.29831 12.5V16.375C8.29831 16.6511 8.07445 16.875 7.79831 16.875C7.52217 16.875 7.29831 16.6511 7.29831 16.375V12.5Z" fill="white"/>
<path d="M3.3938 18.75C3.18669 18.75 3.0188 18.5821 3.0188 18.375C3.0188 18.1679 3.18669 18 3.3938 18L7.5188 18C7.72591 18 7.8938 18.1679 7.8938 18.375C7.8938 18.5821 7.72591 18.75 7.5188 18.75L3.3938 18.75Z" fill="white"/>
<path d="M3.0188 20.25C2.81169 20.25 2.6438 20.0821 2.6438 19.875C2.6438 19.6679 2.81169 19.5 3.0188 19.5L8.2688 19.5C8.47591 19.5 8.6438 19.6679 8.6438 19.875C8.6438 20.0821 8.47591 20.25 8.2688 20.25L3.0188 20.25Z" fill="white"/>
<path d="M2.2688 21.75C2.06169 21.75 1.8938 21.5821 1.8938 21.375C1.8938 21.1679 2.06169 21 2.2688 21L9.0188 21C9.22591 21 9.3938 21.1679 9.3938 21.375C9.3938 21.5821 9.22591 21.75 9.0188 21.75L4.3313 21.75L2.2688 21.75Z" fill="white"/>
</svg>
