<svg width="26" height="26" viewBox="0 0 26 26" fill="none" xmlns="http://www.w3.org/2000/svg">
<path d="M24.52 10.6H23.2317C22.9879 10.6077 22.768 10.4543 22.6911 10.2228C22.4781 9.48159 22.1805 8.7674 21.8042 8.09444C21.6996 7.88951 21.7429 7.64032 21.9107 7.48283L22.843 6.55058C23.0305 6.36308 23.0303 6.05954 22.8428 5.872L20.128 3.15719C19.9405 2.96969 19.6367 2.96969 19.4492 3.15719L18.517 4.08829C18.3598 4.25666 18.1105 4.30054 17.9055 4.19573C17.2326 3.8181 16.5184 3.51903 15.7772 3.30399C15.5457 3.22786 15.3921 3.00811 15.4 2.76457V1.48C15.4 1.35269 15.3494 1.23062 15.2594 1.14062C15.1694 1.05063 15.0473 1 14.92 1H11.08C10.8149 1 10.6 1.21488 10.6 1.48V2.76831C10.6077 3.01206 10.4543 3.232 10.2228 3.30888C9.48141 3.52169 8.76722 3.81965 8.09446 4.19688C7.88896 4.29925 7.64053 4.25519 7.48285 4.08832L6.5506 3.15722C6.3631 2.96972 6.05956 2.96972 5.87202 3.15722L3.15721 5.87203C2.96971 6.05953 2.96971 6.36326 3.15721 6.5508L4.08946 7.48305C4.25727 7.64054 4.30039 7.88955 4.19577 8.09447C3.81946 8.76743 3.5219 9.48157 3.30888 10.2228C3.232 10.4543 3.01207 10.6077 2.76831 10.6H1.48C1.21488 10.6 1 10.8149 1 11.08V14.92C1 15.0473 1.05063 15.1694 1.14062 15.2594C1.23062 15.3494 1.35269 15.4 1.48 15.4H2.76831C3.01206 15.3923 3.232 15.5457 3.30888 15.7772C3.52188 16.5184 3.81945 17.2326 4.19577 17.9056C4.3004 18.1105 4.25708 18.3597 4.08927 18.5172L3.15702 19.4494C2.96952 19.6369 2.96971 19.9405 3.15721 20.128L5.87202 22.8428C6.05952 23.0303 6.36325 23.0303 6.55079 22.8428L7.48304 21.9117C7.64016 21.7433 7.88953 21.6995 8.09446 21.8043C8.76756 22.1804 9.48175 22.4783 10.2228 22.6923C10.4543 22.7684 10.6079 22.9881 10.6 23.2317V24.52C10.6 24.6473 10.6506 24.7694 10.7406 24.8594C10.8306 24.9494 10.9527 25 11.08 25H14.92C15.0473 25 15.1694 24.9494 15.2594 24.8594C15.3494 24.7694 15.4 24.6473 15.4 24.52V23.2317C15.3923 22.9879 15.5457 22.768 15.7772 22.6911C16.5186 22.4783 17.2328 22.1804 17.9055 21.8031C18.111 21.7 18.3597 21.7442 18.5172 21.9117L19.4494 22.8428C19.6369 23.0303 19.9404 23.0303 20.128 22.8428L22.8428 20.128C23.0303 19.9405 23.0303 19.6367 22.8428 19.4492L21.9105 18.517C21.7427 18.3595 21.6996 18.1105 21.8042 17.9055C22.1805 17.2326 22.4781 16.5184 22.6911 15.7772C22.768 15.5457 22.9879 15.3923 23.2317 15.4H24.52C24.6473 15.4 24.7694 15.3493 24.8594 15.2593C24.9494 15.1693 25 15.0473 25 14.92V11.08C25 10.9527 24.9494 10.8306 24.8594 10.7406C24.7694 10.6506 24.6473 10.6 24.52 10.6ZM24.04 14.44H23.2317C22.9047 14.4366 22.5854 14.5392 22.3216 14.7325C22.0579 14.926 21.8639 15.1995 21.7686 15.5123C21.5759 16.1811 21.3066 16.8253 20.9661 17.4323C20.8137 17.7148 20.7574 18.0392 20.8052 18.3565C20.8532 18.6739 21.003 18.9672 21.232 19.1919L21.8243 19.7843L19.788 21.8205L19.1957 21.2282C18.9711 20.9992 18.6781 20.8494 18.3608 20.8016C18.0437 20.7536 17.7195 20.8099 17.4372 20.9621C16.8299 21.3022 16.1856 21.5715 15.5172 21.7648C15.2027 21.8595 14.9279 22.0538 14.7336 22.3183C14.5392 22.5829 14.4363 22.9033 14.44 23.2316V24.0399H11.56V23.2316C11.5632 22.9046 11.4605 22.5855 11.2672 22.3217C11.074 22.058 10.8005 21.864 10.4877 21.7686C9.8191 21.5754 9.17485 21.3062 8.56775 20.9661C8.28537 20.8138 7.96098 20.7574 7.64375 20.8056C7.3265 20.8537 7.03363 21.0037 6.80899 21.2329L6.21667 21.8242L4.17573 19.7882L4.76804 19.1959C4.9966 18.971 5.14604 18.6776 5.19367 18.3606C5.2411 18.0433 5.18448 17.7193 5.03204 17.4372C4.69173 16.8301 4.42249 16.1858 4.22953 15.5172C4.13522 15.2037 3.94191 14.9294 3.6785 14.7351C3.41506 14.5409 3.09573 14.4374 2.76838 14.44H1.96006V11.56H2.76838C3.09537 11.5634 3.41469 11.4608 3.6785 11.2675C3.94212 11.074 4.13618 10.8004 4.23145 10.4877C4.4242 9.81887 4.69345 9.17466 5.03396 8.56771C5.1864 8.28515 5.24265 7.96075 5.19484 7.64352C5.14684 7.32608 4.99703 7.03282 4.76809 6.80804L4.17577 6.21572L6.21183 4.17573L6.80414 4.76805C7.02895 4.99661 7.32239 5.14605 7.63943 5.19367C7.95668 5.24111 8.28066 5.18448 8.56285 5.03205C9.17014 4.69193 9.81439 4.42269 10.4828 4.22954C10.7961 4.13504 11.0704 3.94173 11.2647 3.67831C11.459 3.41489 11.5624 3.09555 11.56 2.76838V1.96007H14.44V2.76838C14.4368 3.09538 14.5396 3.41451 14.7329 3.67831C14.926 3.94194 15.1996 4.136 15.5123 4.23141C16.1809 4.42453 16.8252 4.69378 17.4323 5.03392C17.7146 5.18617 18.039 5.24261 18.3563 5.19442C18.6735 5.14623 18.9664 4.99624 19.191 4.76711L19.7833 4.17576L21.8196 6.212L21.2273 6.80432C20.9995 7.02969 20.851 7.32315 20.8041 7.64038C20.7574 7.95744 20.815 8.28127 20.968 8.56288C21.3083 9.16998 21.5775 9.81424 21.7705 10.4829C21.8648 10.7964 22.0581 11.0707 22.3215 11.2649C22.5849 11.4592 22.9043 11.5627 23.2316 11.5601H24.0399L24.04 14.44Z" fill="white" stroke="white" stroke-width="0.5"/>
<path d="M13.0003 5.80029C11.0909 5.80029 9.25937 6.55891 7.90907 7.90907C6.55877 9.25923 5.80029 11.0907 5.80029 13.0003C5.80029 14.9099 6.55891 16.7412 7.90907 18.0915C9.25922 19.4418 11.0907 20.2003 13.0003 20.2003C14.9099 20.2003 16.7412 19.4417 18.0915 18.0915C19.4418 16.7414 20.2003 14.9099 20.2003 13.0003C20.1982 11.0914 19.4391 9.26129 18.0893 7.91147C16.7395 6.5617 14.9094 5.8025 13.0005 5.80048L13.0003 5.80029ZM13.0003 19.2399C11.3454 19.2399 9.75832 18.5826 8.58796 17.4124C7.4178 16.2421 6.76046 14.655 6.76046 13.0001C6.76046 11.3452 7.4178 9.75812 8.58796 8.58777C9.75832 7.41761 11.3454 6.76027 13.0003 6.76027C14.6551 6.76027 16.2423 7.41761 17.4126 8.58777C18.5828 9.75812 19.2401 11.3452 19.2401 13.0001C19.2381 14.6544 18.58 16.2404 17.4104 17.4102C16.2406 18.5798 14.6546 19.2379 13.0003 19.2399Z" fill="white" stroke="white" stroke-width="0.5"/>
<path d="M13.9724 12.719L11.4654 11.1667C11.0862 10.9347 10.5956 11.2068 10.5956 11.6529V14.7531C10.5956 15.1991 11.0818 15.4712 11.461 15.2348L13.9679 13.687C14.3337 13.4639 14.3337 12.9376 13.9724 12.719Z" stroke="white"/>
<path d="M15.2499 11.25C15.2499 10.9739 15.4738 10.75 15.7499 10.75C16.0261 10.75 16.2499 10.9739 16.2499 11.25V15.125C16.2499 15.4011 16.0261 15.625 15.7499 15.625C15.4738 15.625 15.2499 15.4011 15.2499 15.125V11.25Z" fill="white"/>
</svg>
