<svg width="24" height="24" viewBox="0 0 24 24" fill="none" xmlns="http://www.w3.org/2000/svg">
<path d="M18.5101 8.13914C18.4884 8.09507 18.46 8.05463 18.4261 8.01914L13.539 3.13205C13.4528 3.05049 13.3396 3.00348 13.2211 3H6.15C5.71258 3.0008 5.2934 3.17491 4.98415 3.48415C4.67491 3.79339 4.50079 4.21258 4.5 4.65V19.05C4.5008 19.4874 4.67491 19.9066 4.98415 20.2158C5.29339 20.5251 5.71258 20.6992 6.15 20.7H16.9078C17.3452 20.6992 17.7644 20.5251 18.0737 20.2158C18.3829 19.9066 18.557 19.4874 18.5578 19.05V8.33708C18.5577 8.26811 18.5414 8.20047 18.5101 8.13914ZM13.671 4.53914L17.0219 7.88721H13.671V4.53914ZM16.9079 19.8H6.15009C5.9512 19.8 5.76036 19.721 5.61972 19.5804C5.4791 19.4398 5.40008 19.2489 5.40008 19.05V4.65005C5.40008 4.45116 5.4791 4.26032 5.61972 4.11968C5.76035 3.97906 5.9512 3.90004 6.15009 3.90004H12.771V8.33695C12.771 8.58539 12.9724 8.78695 13.221 8.78695H17.6579V19.05C17.6579 19.2489 17.5789 19.4398 17.4383 19.5804C17.2976 19.721 17.1068 19.8 16.9079 19.8Z" fill="white" stroke="white" stroke-width="0.5"/>
<path d="M14.3844 13.5071C14.7244 13.5071 15 13.7827 15 14.1226C15 14.4626 14.7244 14.7382 14.3844 14.7382H8.11557C7.7756 14.7382 7.5 14.4626 7.5 14.1226C7.5 13.7827 7.7756 13.5071 8.11557 13.5071H14.3844ZM11.2538 10.5C11.6377 10.5 11.9489 10.8112 11.9489 11.1951V17.3049C11.9489 17.6888 11.6377 18 11.2538 18C10.8698 18 10.5586 17.6888 10.5586 17.3049V11.1951C10.5586 10.8112 10.8698 10.5 11.2538 10.5Z" fill="white"/>
</svg>
