<svg width="25" height="26" viewBox="0 0 25 26" fill="none" xmlns="http://www.w3.org/2000/svg">
<path d="M24.02 10.6H22.7317C22.4879 10.6077 22.268 10.4543 22.1911 10.2228C21.9781 9.48159 21.6805 8.7674 21.3042 8.09444C21.1996 7.88951 21.2429 7.64032 21.4107 7.48283L22.343 6.55058C22.5305 6.36308 22.5303 6.05954 22.3428 5.872L19.628 3.15719C19.4405 2.96969 19.1367 2.96969 18.9492 3.15719L18.017 4.08829C17.8598 4.25666 17.6105 4.30054 17.4055 4.19573C16.7326 3.8181 16.0184 3.51903 15.2772 3.30399C15.0457 3.22786 14.8921 3.00811 14.9 2.76457V1.48C14.9 1.35269 14.8494 1.23062 14.7594 1.14062C14.6694 1.05063 14.5473 1 14.42 1H10.58C10.3149 1 10.1 1.21488 10.1 1.48V2.76831C10.1077 3.01206 9.95433 3.232 9.72277 3.30888C8.98141 3.52169 8.26722 3.81965 7.59446 4.19688C7.38896 4.29925 7.14053 4.25519 6.98285 4.08832L6.0506 3.15722C5.8631 2.96972 5.55956 2.96972 5.37202 3.15722L2.65721 5.87203C2.46971 6.05953 2.46971 6.36326 2.65721 6.5508L3.58946 7.48305C3.75727 7.64054 3.80039 7.88955 3.69577 8.09447C3.31946 8.76743 3.0219 9.48157 2.80888 10.2228C2.732 10.4543 2.51207 10.6077 2.26831 10.6H0.979997C0.714875 10.6 0.5 10.8149 0.5 11.08V14.92C0.5 15.0473 0.550625 15.1694 0.640624 15.2594C0.730624 15.3494 0.852687 15.4 0.979997 15.4H2.26831C2.51206 15.3923 2.732 15.5457 2.80888 15.7772C3.02188 16.5184 3.31945 17.2326 3.69577 17.9056C3.8004 18.1105 3.75708 18.3597 3.58927 18.5172L2.65702 19.4494C2.46952 19.6369 2.46971 19.9405 2.65721 20.128L5.37202 22.8428C5.55952 23.0303 5.86325 23.0303 6.05079 22.8428L6.98304 21.9117C7.14016 21.7433 7.38953 21.6995 7.59446 21.8043C8.26756 22.1804 8.98175 22.4783 9.72277 22.6923C9.95433 22.7684 10.1079 22.9881 10.1 23.2317V24.52C10.1 24.6473 10.1506 24.7694 10.2406 24.8594C10.3306 24.9494 10.4527 25 10.58 25H14.42C14.5473 25 14.6694 24.9494 14.7594 24.8594C14.8494 24.7694 14.9 24.6473 14.9 24.52V23.2317C14.8923 22.9879 15.0457 22.768 15.2772 22.6911C16.0186 22.4783 16.7328 22.1804 17.4055 21.8031C17.611 21.7 17.8597 21.7442 18.0172 21.9117L18.9494 22.8428C19.1369 23.0303 19.4404 23.0303 19.628 22.8428L22.3428 20.128C22.5303 19.9405 22.5303 19.6367 22.3428 19.4492L21.4105 18.517C21.2427 18.3595 21.1996 18.1105 21.3042 17.9055C21.6805 17.2326 21.9781 16.5184 22.1911 15.7772C22.268 15.5457 22.4879 15.3923 22.7317 15.4H24.02C24.1473 15.4 24.2694 15.3493 24.3594 15.2593C24.4494 15.1693 24.5 15.0473 24.5 14.92V11.08C24.5 10.9527 24.4494 10.8306 24.3594 10.7406C24.2694 10.6506 24.1473 10.6 24.02 10.6ZM23.54 14.44H22.7317C22.4047 14.4366 22.0854 14.5392 21.8216 14.7325C21.5579 14.926 21.3639 15.1995 21.2686 15.5123C21.0759 16.1811 20.8066 16.8253 20.4661 17.4323C20.3137 17.7148 20.2574 18.0392 20.3052 18.3565C20.3532 18.6739 20.503 18.9672 20.732 19.1919L21.3243 19.7843L19.288 21.8205L18.6957 21.2282C18.4711 20.9992 18.1781 20.8494 17.8608 20.8016C17.5437 20.7536 17.2195 20.8099 16.9372 20.9621C16.3299 21.3022 15.6856 21.5715 15.0172 21.7648C14.7027 21.8595 14.4279 22.0538 14.2336 22.3183C14.0392 22.5829 13.9363 22.9033 13.94 23.2316V24.0399H11.06V23.2316C11.0632 22.9046 10.9605 22.5855 10.7672 22.3217C10.574 22.058 10.3005 21.864 9.98773 21.7686C9.3191 21.5754 8.67485 21.3062 8.06775 20.9661C7.78537 20.8138 7.46098 20.7574 7.14375 20.8056C6.8265 20.8537 6.53363 21.0037 6.30899 21.2329L5.71667 21.8242L3.67573 19.7882L4.26804 19.1959C4.4966 18.971 4.64604 18.6776 4.69367 18.3606C4.7411 18.0433 4.68448 17.7193 4.53204 17.4372C4.19173 16.8301 3.92249 16.1858 3.72953 15.5172C3.63522 15.2037 3.44191 14.9294 3.1785 14.7351C2.91506 14.5409 2.59573 14.4374 2.26838 14.44H1.46006V11.56H2.26838C2.59537 11.5634 2.91469 11.4608 3.1785 11.2675C3.44212 11.074 3.63618 10.8004 3.73145 10.4877C3.9242 9.81887 4.19345 9.17466 4.53396 8.56771C4.6864 8.28515 4.74265 7.96075 4.69484 7.64352C4.64684 7.32608 4.49703 7.03282 4.26809 6.80804L3.67577 6.21572L5.71183 4.17573L6.30414 4.76805C6.52895 4.99661 6.82239 5.14605 7.13943 5.19367C7.45668 5.24111 7.78066 5.18448 8.06285 5.03205C8.67014 4.69193 9.31439 4.42269 9.98283 4.22954C10.2961 4.13504 10.5704 3.94173 10.7647 3.67831C10.959 3.41489 11.0624 3.09555 11.06 2.76838V1.96007H13.94V2.76838C13.9368 3.09538 14.0396 3.41451 14.2329 3.67831C14.426 3.94194 14.6996 4.136 15.0123 4.23141C15.6809 4.42453 16.3252 4.69378 16.9323 5.03392C17.2146 5.18617 17.539 5.24261 17.8563 5.19442C18.1735 5.14623 18.4664 4.99624 18.691 4.76711L19.2833 4.17576L21.3196 6.212L20.7273 6.80432C20.4995 7.02969 20.351 7.32315 20.3041 7.64038C20.2574 7.95744 20.315 8.28127 20.468 8.56288C20.8083 9.16998 21.0775 9.81424 21.2705 10.4829C21.3648 10.7964 21.5581 11.0707 21.8215 11.2649C22.0849 11.4592 22.4043 11.5627 22.7316 11.5601H23.5399L23.54 14.44Z" fill="white" stroke="white" stroke-width="0.5"/>
<path d="M12.5003 5.80029C10.5909 5.80029 8.75937 6.55891 7.40907 7.90907C6.05877 9.25923 5.30029 11.0907 5.30029 13.0003C5.30029 14.9099 6.05891 16.7412 7.40907 18.0915C8.75922 19.4418 10.5907 20.2003 12.5003 20.2003C14.4099 20.2003 16.2412 19.4417 17.5915 18.0915C18.9418 16.7414 19.7003 14.9099 19.7003 13.0003C19.6982 11.0914 18.9391 9.26129 17.5893 7.91147C16.2395 6.5617 14.4094 5.8025 12.5005 5.80048L12.5003 5.80029ZM12.5003 19.2399C10.8454 19.2399 9.25832 18.5826 8.08796 17.4124C6.9178 16.2421 6.26046 14.655 6.26046 13.0001C6.26046 11.3452 6.9178 9.75812 8.08796 8.58777C9.25832 7.41761 10.8454 6.76027 12.5003 6.76027C14.1551 6.76027 15.7423 7.41761 16.9126 8.58777C18.0828 9.75812 18.7401 11.3452 18.7401 13.0001C18.7381 14.6544 18.08 16.2404 16.9104 17.4102C15.7406 18.5798 14.1546 19.2379 12.5003 19.2399Z" fill="white" stroke="white" stroke-width="0.5"/>
<path d="M14.3423 12.719L11.8354 11.1667C11.4562 10.9347 10.9656 11.2068 10.9656 11.6529V14.7531C10.9656 15.1991 11.4518 15.4712 11.831 15.2348L14.3379 13.687C14.7037 13.4639 14.7037 12.9376 14.3423 12.719Z" stroke="white"/>
</svg>
