<svg width="24" height="24" viewBox="0 0 24 24" fill="none" xmlns="http://www.w3.org/2000/svg">
<path d="M18.9815 8.29343C18.9598 8.24937 18.9314 8.20893 18.8975 8.17343L14.0105 3.28635C13.9242 3.20479 13.811 3.15778 13.6925 3.1543H6.62143C6.18402 3.1551 5.76484 3.32921 5.45558 3.63845C5.14634 3.94768 4.97222 4.36688 4.97144 4.8043V19.2043C4.97224 19.6417 5.14635 20.0609 5.45558 20.3701C5.76482 20.6794 6.18402 20.8535 6.62143 20.8543H17.3792C17.8167 20.8535 18.2358 20.6794 18.5451 20.3701C18.8543 20.0609 19.0285 19.6417 19.0292 19.2043V8.49138C19.0291 8.42241 19.0128 8.35477 18.9815 8.29343ZM14.1424 4.69344L17.4933 8.0415H14.1424V4.69344ZM17.3793 19.9543H6.62152C6.42264 19.9543 6.2318 19.8753 6.09116 19.7347C5.95053 19.5941 5.87152 19.4032 5.87152 19.2043V4.80434C5.87152 4.60546 5.95053 4.41462 6.09116 4.27398C6.23178 4.13335 6.42263 4.05434 6.62152 4.05434H13.2424V8.49125C13.2424 8.73969 13.4439 8.94125 13.6924 8.94125H18.1293V19.2043C18.1293 19.4032 18.0503 19.5941 17.9097 19.7347C17.7691 19.8753 17.5782 19.9543 17.3793 19.9543Z" fill="white" stroke="white" stroke-width="0.5"/>
<path d="M8.55513 11.6929L4.43098 9.13921C3.80719 8.7576 3 9.20524 3 9.93907V15.0392C3 15.7731 3.79987 16.2207 4.42364 15.8318L8.54779 13.2854C9.14951 12.9184 9.14951 12.0525 8.55511 11.6929L8.55513 11.6929Z" fill="#388E3C" stroke="white"/>
</svg>
