<svg width="24" height="24" viewBox="0 0 24 24" fill="none" xmlns="http://www.w3.org/2000/svg">
<path d="M19.5 12L16.5 9V11.25H10.5V12.75H16.5V15L19.5 12ZM18 16.5C17.0555 17.7593 15.7388 18.6895 14.2363 19.1589C12.7337 19.6282 11.1216 19.6129 9.62829 19.1151C8.13495 18.6173 6.83609 17.6623 5.91568 16.3853C4.99528 15.1083 4.5 13.5741 4.5 12C4.5 10.4259 4.99528 8.89166 5.91568 7.61467C6.83609 6.33768 8.13495 5.38266 9.62829 4.88488C11.1216 4.3871 12.7337 4.3718 14.2363 4.84115C15.7388 5.3105 17.0555 6.24071 18 7.5H15.9525C15.0865 6.73625 14.0185 6.23861 12.8767 6.06679C11.7348 5.89498 10.5677 6.05629 9.51525 6.53137C8.46282 7.00645 7.56984 7.77512 6.94345 8.74514C6.31706 9.71516 5.98387 10.8453 5.98387 12C5.98387 13.1547 6.31706 14.2848 6.94345 15.2549C7.56984 16.2249 8.46282 16.9935 9.51525 17.4686C10.5677 17.9437 11.7348 18.105 12.8767 17.9332C14.0185 17.7614 15.0865 17.2638 15.9525 16.5H18Z" fill="white"/>
</svg>
