<svg width="20" height="20" viewBox="0 0 20 20" fill="none" xmlns="http://www.w3.org/2000/svg">
<path d="M17.967 16.9297H17.517V6.28844C17.5167 6.00772 17.405 5.73866 17.2065 5.54018C17.0081 5.3417 16.739 5.23 16.4583 5.22974H15.5757C15.295 5.23 15.0259 5.3417 14.8275 5.54018C14.629 5.73867 14.5173 6.00774 14.517 6.28844V16.9297H13.617V9.58844C13.6167 9.30772 13.5051 9.03867 13.3066 8.84019C13.1081 8.6417 12.839 8.53001 12.5583 8.52974H11.6757C11.395 8.53001 11.126 8.6417 10.9275 8.84019C10.729 9.03867 10.6173 9.30774 10.617 9.58844V16.9297H9.41704V6.28844C9.41677 6.00772 9.30507 5.73866 9.10659 5.54018C8.90811 5.3417 8.63903 5.23 8.35834 5.22974H7.47575C7.19504 5.23 6.92598 5.3417 6.7275 5.54018C6.52902 5.73867 6.41732 6.00774 6.41706 6.28844V16.9297H5.21706V9.58844C5.21679 9.30772 5.10509 9.03867 4.90661 8.84019C4.70813 8.6417 4.43905 8.53001 4.15836 8.52974H3.27577C2.99506 8.53001 2.726 8.6417 2.52752 8.84019C2.32904 9.03867 2.21734 9.30774 2.21708 9.58844V16.9297H2.06708C1.69196 16.9297 1.34533 17.1298 1.15772 17.4547C0.970214 17.7796 0.970214 18.1798 1.15772 18.5047C1.34535 18.8296 1.69196 19.0297 2.06708 19.0297H17.9671C18.3422 19.0297 18.6888 18.8296 18.8764 18.5047C19.0639 18.1798 19.0639 17.7796 18.8764 17.4547C18.6888 17.1298 18.3422 16.9297 17.9671 16.9297H17.967ZM15.117 6.28844C15.1173 6.03518 15.3224 5.83 15.5757 5.82973H16.4583C16.7115 5.82999 16.9167 6.03517 16.917 6.28844V16.9297H15.117V6.28844ZM11.217 9.58844C11.2173 9.33518 11.4224 9.13 11.6757 9.12973H12.5583C12.8115 9.13 13.0167 9.33518 13.017 9.58844V16.9297H11.217V9.58844ZM7.01699 6.28844C7.01726 6.03518 7.22244 5.83 7.4757 5.82973H8.35829C8.61154 5.82999 8.81672 6.03517 8.81699 6.28844V16.9297H7.01699V6.28844ZM2.81699 9.58844C2.81726 9.33518 3.02244 9.13 3.2757 9.12973H4.15829C4.41154 9.13 4.61672 9.33518 4.61699 9.58844V16.9297H2.81699V9.58844ZM17.9672 18.4297H2.06717C1.81859 18.4297 1.61717 18.2283 1.61717 17.9797C1.61717 17.7311 1.81859 17.5297 2.06717 17.5297H17.9672C18.2157 17.5297 18.4172 17.7311 18.4172 17.9797C18.4172 18.2283 18.2157 18.4297 17.9672 18.4297Z" fill="#6E6B7B" stroke="#6E6B7B" stroke-width="0.3"/>
<path d="M3.71675 7.32968C4.23735 7.33236 4.72163 7.06343 4.99482 6.62027C5.2679 6.1771 5.29041 5.62372 5.05416 5.15977L6.949 3.67235C7.21873 3.90285 7.56199 4.02954 7.91688 4.02954C8.27181 4.02954 8.61504 3.90285 8.88477 3.67235L10.7793 5.1595C10.5412 5.6288 10.5664 6.18862 10.8458 6.63457C11.1251 7.08056 11.6177 7.34747 12.1439 7.33811C12.6701 7.3286 13.1528 7.04401 13.416 6.58825C13.6792 6.13249 13.6841 5.57212 13.4293 5.11184L15.0897 3.70667C15.4884 4.02609 16.0201 4.12547 16.5072 3.97159C16.9943 3.81783 17.3725 3.43104 17.5154 2.94061C17.6583 2.45016 17.547 1.92075 17.2188 1.52941C16.8905 1.13808 16.3886 0.936374 15.8807 0.991677C15.373 1.04699 14.9262 1.35209 14.69 1.80504C14.4537 2.25799 14.4591 2.79891 14.7043 3.24706L13.0438 4.6525C12.7729 4.43781 12.4358 4.32384 12.0901 4.33C11.7445 4.3363 11.4117 4.46232 11.1488 4.68678L9.25392 3.19964C9.49017 2.73465 9.46794 2.18032 9.19513 1.73567C8.92245 1.29102 8.4383 1.02009 7.91665 1.02009C7.39499 1.02009 6.91084 1.29103 6.63803 1.73567C6.36535 2.18032 6.34311 2.73465 6.57937 3.19964L4.6848 4.68678C4.41507 4.45602 4.07167 4.32932 3.71678 4.32973C3.18092 4.32973 2.68567 4.61566 2.41779 5.07973C2.1498 5.54378 2.1498 6.11567 2.41779 6.57973C2.68565 7.04378 3.18092 7.32973 3.71678 7.32973L3.71675 7.32968ZM16.0168 1.62968C16.3383 1.62968 16.6354 1.80124 16.7962 2.07968C16.957 2.35812 16.957 2.70124 16.7962 2.97968C16.6354 3.25812 16.3383 3.42968 16.0168 3.42968C15.7523 3.43021 15.5012 3.3133 15.3313 3.11053C15.182 2.93535 15.1057 2.70942 15.118 2.4796C15.1303 2.24978 15.2305 2.03348 15.3978 1.87532C15.565 1.71715 15.7866 1.62915 16.0168 1.62969L16.0168 1.62968ZM12.1168 4.92968C12.3813 4.92914 12.6324 5.04606 12.8022 5.24883C12.9931 5.47316 13.062 5.77652 12.9872 6.06109C12.9122 6.34583 12.7027 6.57593 12.4263 6.67717C12.1499 6.77842 11.8414 6.73811 11.6003 6.5691C11.3593 6.40021 11.216 6.12407 11.2168 5.82969C11.2176 5.5913 11.3126 5.36282 11.4813 5.1942C11.6499 5.02559 11.8784 4.9305 12.1167 4.9297L12.1168 4.92968ZM7.91676 1.62968C8.15542 1.62968 8.38446 1.7245 8.55318 1.89325C8.7219 2.062 8.81675 2.29103 8.81675 2.52966C8.81675 2.85122 8.64519 3.14828 8.36675 3.30911C8.08831 3.46983 7.74518 3.46983 7.46675 3.30911C7.18831 3.14827 7.01674 2.85123 7.01674 2.52966C7.01674 2.291 7.11157 2.06197 7.28032 1.89325C7.44907 1.72453 7.6781 1.62968 7.91673 1.62968H7.91676ZM3.71675 4.92968C3.99318 4.92928 4.25422 5.05678 4.4239 5.27494C4.54952 5.43244 4.61756 5.62825 4.61676 5.82968C4.61676 6.06834 4.52193 6.29737 4.35318 6.46609C4.18443 6.63481 3.9554 6.72966 3.71677 6.72966C3.47814 6.72966 3.24908 6.63484 3.08036 6.46609C2.91164 6.29734 2.81679 6.06831 2.81679 5.82968C2.81679 5.59105 2.91161 5.36199 3.08036 5.19327C3.24911 5.02455 3.47814 4.9297 3.71677 4.9297L3.71675 4.92968Z" fill="#6E6B7B" stroke="#6E6B7B" stroke-width="0.3"/>
</svg>
