<svg width="18" height="18" viewBox="0 0 18 18" fill="none" xmlns="http://www.w3.org/2000/svg">
<path d="M16.3333 17H1.66667C1.48986 17 1.32029 16.9298 1.19526 16.8047C1.07024 16.6797 1 16.5101 1 16.3333V1.66667C1 1.48986 1.07024 1.32029 1.19526 1.19526C1.32029 1.07024 1.48986 1 1.66667 1H12.3333L17 5.66667V16.3333C17 16.4209 16.9828 16.5076 16.9493 16.5885C16.9158 16.6693 16.8666 16.7428 16.8047 16.8047C16.7428 16.8666 16.6693 16.9157 16.5885 16.9493C16.5076 16.9828 16.4209 17 16.3333 17Z" stroke="#6E6B7B" stroke-width="1.5" stroke-linecap="round" stroke-linejoin="round"/>
<path d="M12 1V5.66667H16.6673" stroke="#135B80" stroke-width="1.5" stroke-linecap="round" stroke-linejoin="round"/>
<path d="M7 8L11 12" stroke="#6E6B7B" stroke-width="1.5" stroke-linecap="round" stroke-linejoin="round"/>
<path d="M11 8L7 12" stroke="#6E6B7B" stroke-width="1.5" stroke-linecap="round" stroke-linejoin="round"/>
</svg>
