<svg width="20" height="10" viewBox="0 0 20 10" fill="none" xmlns="http://www.w3.org/2000/svg">
<path d="M7.77294 3.32666C7.61934 3.34586 7.48501 3.40346 7.38901 3.51873L5.94901 5.22753L5.29623 4.45961C5.10417 4.22929 4.73949 4.19081 4.48983 4.38289C4.25934 4.61306 4.24018 4.97794 4.43223 5.20841L5.50741 6.49481C5.62261 6.62929 5.77621 6.70601 5.94894 6.70601C6.12174 6.70601 6.27534 6.62929 6.39054 6.49481L8.27206 4.26754C8.36814 4.15241 8.42574 3.99881 8.40654 3.84514C8.38741 3.69154 8.32981 3.55721 8.21454 3.46121C8.08021 3.36521 7.92654 3.32674 7.77294 3.32674V3.32666Z" fill="#6E6B7B"/>
<path d="M14.6465 0.542725H5.35373C2.89613 0.542725 0.880127 2.5396 0.880127 5.01632C0.880127 7.49305 2.89616 9.48992 5.35373 9.48992H14.6465C17.1041 9.48992 19.1201 7.49305 19.1201 5.01632C19.1201 2.5396 17.1041 0.542725 14.6465 0.542725ZM5.35373 8.29952C3.54889 8.29952 2.07046 6.82112 2.07046 5.01625C2.07046 3.21145 3.54889 1.73297 5.35373 1.73297H11.5937C10.7105 2.55857 10.1537 3.71057 10.1537 5.01625C10.1537 6.30265 10.7105 7.47385 11.5937 8.29952H5.35373ZM14.6465 8.29952C12.8417 8.29952 11.3633 6.82112 11.3633 5.01625C11.3633 3.21145 12.8417 1.73297 14.6465 1.73297C16.4513 1.73297 17.9105 3.21145 17.9105 5.01625C17.9105 6.82112 16.4513 8.29952 14.6465 8.29952Z" fill="#6E6B7B"/>
</svg>
