<svg width="14" height="14" viewBox="0 0 14 14" fill="none" xmlns="http://www.w3.org/2000/svg">
<path d="M7 0C10.866 0 14 3.13413 14 7.00035C14 10.8659 10.866 14 7 14C3.13397 14 0 10.8659 0 7.00035C0 3.13413 3.13397 0 7 0ZM7 1.04984C6.21322 1.04131 5.43257 1.18891 4.70321 1.48411C3.97386 1.7793 3.31029 2.21623 2.75091 2.7696C2.19154 3.32297 1.74746 3.9818 1.44439 4.70794C1.14131 5.43409 0.985259 6.21314 0.985259 7C0.985259 7.78686 1.14131 8.56591 1.44439 9.29206C1.74746 10.0182 2.19154 10.677 2.75091 11.2304C3.31029 11.7838 3.97386 12.2207 4.70321 12.5159C5.43257 12.8111 6.21322 12.9587 7 12.9502C8.5621 12.9262 10.0521 12.2888 11.1483 11.1756C12.2445 10.0624 12.859 8.56272 12.859 7.00035C12.859 5.43798 12.2445 3.9383 11.1483 2.8251C10.0521 1.7119 8.5621 1.0745 7 1.05054V1.04984ZM6.9972 5.94911C7.12416 5.94894 7.24688 5.99481 7.34262 6.0782C7.43836 6.16159 7.50063 6.27685 7.5179 6.40264L7.52279 6.47403L7.52489 10.3249C7.52485 10.4578 7.47433 10.5859 7.38354 10.6831C7.29275 10.7802 7.16846 10.8393 7.03578 10.8484C6.9031 10.8575 6.77192 10.8158 6.66876 10.7319C6.56559 10.648 6.49813 10.528 6.48 10.3962L6.4751 10.3256L6.473 6.47473C6.473 6.33551 6.52831 6.202 6.62674 6.10355C6.72518 6.00511 6.85869 5.94981 6.9979 5.94981L6.9972 5.94911ZM7 3.50227C7.09363 3.49931 7.1869 3.51519 7.27427 3.54898C7.36164 3.58277 7.44134 3.63377 7.50862 3.69895C7.57589 3.76414 7.62939 3.84218 7.66592 3.92845C7.70245 4.01471 7.72128 4.10744 7.72128 4.20112C7.72128 4.2948 7.70245 4.38753 7.66592 4.47379C7.62939 4.56006 7.57589 4.6381 7.50862 4.70328C7.44134 4.76847 7.36164 4.81947 7.27427 4.85326C7.1869 4.88705 7.09363 4.90293 7 4.89996C6.81849 4.89422 6.64634 4.81807 6.51998 4.68764C6.39362 4.55721 6.32296 4.38273 6.32296 4.20112C6.32296 4.01951 6.39362 3.84503 6.51998 3.7146C6.64634 3.58417 6.81849 3.50802 7 3.50227Z" fill="#6E6B7B"/>
</svg>
