<svg width="22" height="22" viewBox="0 0 22 22" fill="none" xmlns="http://www.w3.org/2000/svg">
<path d="M11.002 1C16.526 1 21.004 5.478 21.004 11.002C21.004 16.525 16.526 21.003 11.002 21.003C5.478 21.003 1 16.525 1 11.002C1 5.478 5.478 1 11.002 1ZM11.002 2.5C9.87781 2.48781 8.76236 2.6987 7.72022 3.12047C6.67807 3.54224 5.72993 4.16652 4.93066 4.95717C4.13139 5.74781 3.49687 6.68913 3.06382 7.72664C2.63077 8.76415 2.4078 9.87724 2.4078 11.0015C2.4078 12.1258 2.63077 13.2389 3.06382 14.2764C3.49687 15.3139 4.13139 16.2552 4.93066 17.0458C5.72993 17.8365 6.67807 18.4608 7.72022 18.8825C8.76236 19.3043 9.87781 19.5152 11.002 19.503C13.234 19.4688 15.363 18.5581 16.9294 16.9675C18.4957 15.377 19.3736 13.2343 19.3736 11.002C19.3736 8.76972 18.4957 6.62698 16.9294 5.03646C15.363 3.44594 13.234 2.53524 11.002 2.501V2.5ZM10.998 9.5C11.1794 9.49977 11.3548 9.56529 11.4916 9.68444C11.6284 9.80359 11.7173 9.96828 11.742 10.148L11.749 10.25L11.752 15.752C11.7519 15.942 11.6798 16.1249 11.55 16.2638C11.4203 16.4026 11.2427 16.4871 11.0531 16.5C10.8635 16.513 10.6761 16.4535 10.5287 16.3336C10.3813 16.2137 10.2849 16.0423 10.259 15.854L10.252 15.753L10.249 10.251C10.249 10.0521 10.328 9.86132 10.4687 9.72067C10.6093 9.58002 10.8001 9.501 10.999 9.501L10.998 9.5ZM11.002 6.004C11.1358 5.99977 11.2691 6.02246 11.3939 6.07073C11.5187 6.11901 11.6326 6.19188 11.7287 6.28501C11.8249 6.37815 11.9013 6.48966 11.9535 6.61291C12.0057 6.73616 12.0326 6.86865 12.0326 7.0025C12.0326 7.13635 12.0057 7.26884 11.9535 7.39209C11.9013 7.51534 11.8249 7.62685 11.7287 7.71999C11.6326 7.81312 11.5187 7.88599 11.3939 7.93427C11.2691 7.98254 11.1358 8.00523 11.002 8.001C10.7427 7.99279 10.4967 7.884 10.3161 7.69764C10.1356 7.51128 10.0346 7.26198 10.0346 7.0025C10.0346 6.74302 10.1356 6.49372 10.3161 6.30736C10.4967 6.121 10.7427 6.01221 11.002 6.004Z" fill="#A73733" stroke="#A73733" stroke-width="0.25"/>
</svg>
