<svg width="14" height="18" viewBox="0 0 14 18" fill="none" xmlns="http://www.w3.org/2000/svg">
<path fill-rule="evenodd" clip-rule="evenodd" d="M0.362719 6.99095e-05H11.057V2.06866C11.057 2.48917 11.3986 2.83078 11.8191 2.83078H13.8877V17.6372C13.8877 17.8372 13.7246 18 13.5249 18H0.362788C0.162834 18 8.56587e-08 17.8369 8.56587e-08 17.6372V0.362928C-0.000136392 0.162973 0.16283 0 0.362788 0L0.362719 6.99095e-05ZM11.6374 0.0314619V2.06867C11.6374 2.16858 11.7188 2.25006 11.8188 2.25006H13.856C13.8385 2.21157 13.8134 2.17609 13.7812 2.14388L11.7436 0.10628C11.7114 0.0740692 11.6759 0.0490929 11.6374 0.0314864L11.6374 0.0314619ZM4.03987 13.5025C3.91007 13.5025 3.80429 13.6085 3.80429 13.738V16.2268C3.80429 16.3565 3.91007 16.4623 4.03987 16.4623H4.5985C4.7283 16.4623 4.83408 16.3566 4.83408 16.2268V13.738C4.83408 13.6082 4.7283 13.5025 4.5985 13.5025H4.03987ZM10.688 10.0216C10.5582 10.0216 10.4524 10.1274 10.4524 10.2572V16.2268C10.4524 16.3566 10.5582 16.4624 10.688 16.4624H11.2467C11.3765 16.4624 11.4822 16.3566 11.4822 16.2268V10.2576C11.4822 10.1278 11.3765 10.022 11.2467 10.022H10.688V10.0216ZM8.47188 11.1819C8.34208 11.1819 8.2363 11.2877 8.2363 11.4175V16.2267C8.2363 16.3565 8.34208 16.4623 8.47188 16.4623H9.03051C9.16031 16.4623 9.26609 16.3565 9.26609 16.2267V11.4175C9.26609 11.2877 9.16031 11.1819 9.03051 11.1819H8.47188ZM6.25588 12.342C6.12608 12.342 6.0203 12.4481 6.0203 12.5776V16.2265C6.0203 16.3563 6.12607 16.462 6.25588 16.462H6.81451C6.9443 16.462 7.05008 16.3563 7.05008 16.2265V12.5776C7.05008 12.4478 6.94431 12.342 6.81451 12.342H6.25588ZM3.50647 9.86958H5.70829C5.86866 9.86958 5.99859 9.73951 5.99859 9.57927C5.99859 9.4189 5.86852 9.28897 5.70829 9.28897L3.50647 9.2891C3.3461 9.2891 3.21616 9.41918 3.21616 9.57941C3.2163 9.73951 3.3461 9.86958 3.50647 9.86958ZM2.33064 11.2628H2.62819C2.78856 11.2628 2.91849 11.1328 2.91849 10.9725C2.91849 10.8122 2.78842 10.6822 2.62819 10.6822H2.33064C2.17027 10.6822 2.04034 10.8123 2.04034 10.9725C2.0402 11.1328 2.17027 11.2628 2.33064 11.2628ZM2.33064 9.86958H2.62819C2.78856 9.86958 2.91849 9.73951 2.91849 9.57927C2.91849 9.4189 2.78842 9.28897 2.62819 9.28897H2.33064C2.17027 9.28897 2.04034 9.41904 2.04034 9.57927C2.0402 9.73951 2.17027 9.86958 2.33064 9.86958ZM3.50647 11.2628H5.70829C5.86866 11.2628 5.99859 11.1328 5.99859 10.9725C5.99859 10.8122 5.86852 10.6822 5.70829 10.6822L3.50647 10.6824C3.3461 10.6824 3.21616 10.8124 3.21616 10.9727C3.2163 11.1328 3.3461 11.2628 3.50647 11.2628ZM9.28041 7.21008H11.8891C12.0494 7.21008 12.1794 7.08 12.1794 6.91977C12.1794 6.75954 12.0493 6.62946 11.8891 6.62946L9.28041 6.6296C9.12004 6.6296 8.9901 6.75967 8.9901 6.91991C8.99023 7.08001 9.12004 7.21008 9.28041 7.21008ZM9.28041 5.81668H11.8891C12.0494 5.81668 12.1794 5.68661 12.1794 5.52637C12.1794 5.36614 12.0493 5.23607 11.8891 5.23607L9.28041 5.2362C9.12004 5.2362 8.9901 5.36628 8.9901 5.52651C8.99023 5.68661 9.12004 5.81668 9.28041 5.81668V5.81668ZM9.28041 4.42343H11.8891C12.0494 4.42343 12.1794 4.29335 12.1794 4.13312C12.1794 3.97275 12.0493 3.84281 11.8891 3.84281L9.28041 3.84295C9.12004 3.84295 8.9901 3.97302 8.9901 4.13325C8.99023 4.29335 9.12004 4.42343 9.28041 4.42343V4.42343ZM4.31325 2.28754C2.8325 2.43331 1.67565 3.68202 1.67565 5.20113C1.67565 6.81822 2.98648 8.12905 4.60357 8.12905C5.03365 8.12905 5.44214 8.03638 5.80982 7.86973L4.36293 5.36344C4.33154 5.31717 4.31325 5.26107 4.31325 5.20102L4.31325 2.28754ZM6.31129 7.57965C6.97639 7.10127 7.43267 6.35099 7.5173 5.49152H5.1057L6.31129 7.57965ZM7.51716 4.91078C7.38081 3.52556 6.27908 2.42398 4.89403 2.28765V4.91078H7.51716Z" fill="#6E6B7B"/>
</svg>
