<svg width="32" height="32" viewBox="0 0 32 32" fill="none" xmlns="http://www.w3.org/2000/svg">
<path d="M10 25C12.2091 25 14 23.2091 14 21C14 18.7909 12.2091 17 10 17C7.79086 17 6 18.7909 6 21C6 23.2091 7.79086 25 10 25Z" stroke="#6E6B7B" stroke-width="1.5" stroke-linecap="round" stroke-linejoin="round"/>
<path d="M3.99965 27.9997C4.69836 27.0684 5.60429 26.3124 6.64572 25.7918C7.68716 25.2711 8.8355 25 9.99983 25C11.1642 25 12.3125 25.271 13.354 25.7916C14.3954 26.3122 15.3014 27.0681 16.0001 27.9995" stroke="#6E6B7B" stroke-width="1.5" stroke-linecap="round" stroke-linejoin="round"/>
<path d="M10 12C12.2091 12 14 10.2091 14 8C14 5.79086 12.2091 4 10 4C7.79086 4 6 5.79086 6 8C6 10.2091 7.79086 12 10 12Z" stroke="#6E6B7B" stroke-width="1.5" stroke-linecap="round" stroke-linejoin="round"/>
<path d="M3.99965 14.9997C4.69836 14.0684 5.60429 13.3124 6.64572 12.7918C7.68716 12.2711 8.8355 12 9.99983 12C11.1642 12 12.3125 12.271 13.354 12.7916C14.3954 13.3122 15.3014 14.0681 16.0001 14.9995" stroke="#6E6B7B" stroke-width="1.5" stroke-linecap="round" stroke-linejoin="round"/>
<path d="M22 25C24.2091 25 26 23.2091 26 21C26 18.7909 24.2091 17 22 17C19.7909 17 18 18.7909 18 21C18 23.2091 19.7909 25 22 25Z" stroke="#6E6B7B" stroke-width="1.5" stroke-linecap="round" stroke-linejoin="round"/>
<path d="M15.9996 27.9997C16.6984 27.0684 17.6043 26.3124 18.6457 25.7918C19.6872 25.2711 20.8355 25 21.9998 25C23.1642 25 24.3125 25.271 25.354 25.7916C26.3954 26.3122 27.3014 27.0681 28.0001 27.9995" stroke="#6E6B7B" stroke-width="1.5" stroke-linecap="round" stroke-linejoin="round"/>
<path d="M22 12C24.2091 12 26 10.2091 26 8C26 5.79086 24.2091 4 22 4C19.7909 4 18 5.79086 18 8C18 10.2091 19.7909 12 22 12Z" stroke="#6E6B7B" stroke-width="1.5" stroke-linecap="round" stroke-linejoin="round"/>
<path d="M15.9996 14.9997C16.6984 14.0684 17.6043 13.3124 18.6457 12.7918C19.6872 12.2711 20.8355 12 21.9998 12C23.1642 12 24.3125 12.271 25.354 12.7916C26.3954 13.3122 27.3014 14.0681 28.0001 14.9995" stroke="#6E6B7B" stroke-width="1.5" stroke-linecap="round" stroke-linejoin="round"/>
</svg>
