<svg id="Layer_1" data-name="Layer 1" xmlns="http://www.w3.org/2000/svg" viewBox="0 0 13.64 13.64"><defs><style>.cls-1{fill:#fcfcfc;}</style></defs><title>icon-messagerwh-19</title><path class="cls-1" d="M6.82,13.15A6.7,6.7,0,0,1,2,11.23,6.2,6.2,0,0,1,0,6.59,6.27,6.27,0,0,1,2,1.93,6.71,6.71,0,0,1,6.82,0a6.71,6.71,0,0,1,4.82,1.93,6.27,6.27,0,0,1,2,4.66,6.21,6.21,0,0,1-1.08,3.54l-.07.07a.09.09,0,0,0,0,.06,1.1,1.1,0,0,0-.13.5l.72,2.88-2.75-1a.84.84,0,0,0-.4-.07,1.6,1.6,0,0,0-.36.07h0s0,0,0,0A7,7,0,0,1,6.82,13.15ZM4.43,6.07a1,1,0,0,0-.76-.3,1,1,0,0,0-.75.3,1,1,0,0,0-.3.75,1,1,0,0,0,.3.76,1.05,1.05,0,0,0,.75.29,1.06,1.06,0,0,0,.76-.29,1.06,1.06,0,0,0,.29-.76A1,1,0,0,0,4.43,6.07Zm3.15,0a1,1,0,0,0-.76-.3A1,1,0,0,0,5.77,6.82a1,1,0,0,0,1.05,1,1,1,0,0,0,1-1A1,1,0,0,0,7.58,6.07Zm3.14,0a1,1,0,0,0-.75-.3A1,1,0,0,0,8.92,6.82a1,1,0,0,0,1.05,1,1,1,0,0,0,1-1A1,1,0,0,0,10.72,6.07Z"/></svg>