<svg id="Layer_1" data-name="Layer 1" xmlns="http://www.w3.org/2000/svg" viewBox="0 0 159 150"><defs><style>.cls-1{fill:#777;}</style></defs><title>msb</title><path class="cls-1" d="M56,94.92H40.18V78.13a8,8,0,0,0-8-8h-.42a8,8,0,0,0-8,8V94.92H8a8,8,0,0,0,0,16H23.81v17a8,8,0,0,0,8,8h.42a8,8,0,0,0,8-8v-17H56a8,8,0,0,0,0-16Z"/><path class="cls-1" d="M150.47,97.63q-10.25-4.17-10.88-4.49c-1.07-.84-1.6-3.52-1.6-8a10.89,10.89,0,0,1,2.08-5.77,24.2,24.2,0,0,0,3-9.27,12,12,0,0,1,1.12-3.52A31,31,0,0,0,146,61.13a6.37,6.37,0,0,0,.16-3.68,7.67,7.67,0,0,1-.48-2.08,24.8,24.8,0,0,1,.32-3.2,29.91,29.91,0,0,0,.32-3.85c.2-3.2-1.24-6.76-4.32-10.71s-7.84-5.93-14.23-5.93-11.1,1.92-14.08,5.77-4.38,7.47-4.16,10.87a26.7,26.7,0,0,0,.32,3.85,26.8,26.8,0,0,1,.32,3.2,16.77,16.77,0,0,1-.48,2.24,5.59,5.59,0,0,0,.16,3.52,29.39,29.39,0,0,0,1.76,5.45,12.62,12.62,0,0,1,1.12,3.52q1,6.08,2.88,9.11a11.15,11.15,0,0,1,1.92,5.93v3.68a10.62,10.62,0,0,1-.16,1.44,2.24,2.24,0,0,1-.8,1.44c-.44.32-1,.7-1.6,1.12a19.63,19.63,0,0,1-2.24,1.28c.64.22,1.65.59,3,1.12s2.4.91,3,1.12A45.26,45.26,0,0,1,131,103.07c2.77,2.35,4.32,4.05,4.64,5.12a25.88,25.88,0,0,1,.8,4.16q.31,1.94.32,24.65H159V101.21Q155.48,99.5,150.47,97.63Z"/><path class="cls-1" d="M128.79,112.81q-1.29-5.76-22.08-13.76c-3.41-1.29-5.43-2-6.07-2.25-2.78-1.06-4.8-1.86-6.08-2.39a5.4,5.4,0,0,1-2.88-3,9.71,9.71,0,0,1-1-3.52V81.44a9.63,9.63,0,0,1,2.56-6.24q2.55-3,3.84-11a10,10,0,0,1,1.6-4.48c.84-1.28,1.6-3.62,2.24-7a9.25,9.25,0,0,0,0-4.81,9.83,9.83,0,0,1-.64-2.56c.42-3,.74-6.08,1-9.28q.63-6.08-5.44-13.77T77.28,14.54q-12.47,0-18.39,7.52T53.61,36c.21,3.2.53,6.3,1,9.28A15.91,15.91,0,0,1,54.09,48a9.88,9.88,0,0,0,.16,4.65,24.32,24.32,0,0,0,2.08,7,11.94,11.94,0,0,1,1.44,4.48q1.27,8,3.84,11a9.68,9.68,0,0,1,2.56,6.24c0,4.51-.29,7.68-.85,9.53a13.5,13.5,0,0,1-5.11,26H52.57v20.5h76.86v-9.6A113.61,113.61,0,0,0,128.79,112.81Z"/></svg>