<svg width="52" height="51" viewBox="0 0 52 51" fill="none" xmlns="http://www.w3.org/2000/svg">
<path d="M33.1001 5.79996C32.5001 2.79996 29.9001 0.499957 26.9001 0.199957C23.6001 0.0999565 20.6001 2.19996 19.8001 5.29996C18.9001 8.39996 20.4001 11.7 23.2001 13.2C23.6001 13.4 23.7001 13.6 23.6001 14V20.3L29.0001 15V14C29.0001 13.7 29.2001 13.4 29.5001 13.2C32.2001 11.9 33.6001 8.79996 33.1001 5.79996ZM26.3001 10.1C24.7001 10.1 23.5001 8.79996 23.4001 7.39996C23.4001 5.79996 24.7001 4.59996 26.1001 4.49996C27.7001 4.49996 28.9001 5.79996 28.9001 7.39996C29.1001 8.59996 27.7001 9.99996 26.3001 10.1ZM8.20008 24.3C7.60008 23.8 6.90008 23.4 6.00008 23.8C5.20008 24 4.80008 24.7 4.60008 25.5C4.10008 28.5 3.60008 31.5 3.10008 34.5C2.90008 36.2 4.20008 37.3 5.80008 37C6.20008 36.9 6.70008 36.6 7.20008 36.5C7.20008 36.6 7.30008 36.7 7.30008 36.8L14.1001 30C12.1001 28.1 10.1001 26.2 8.20008 24.3ZM48.8001 34.8C48.3001 31.7 47.9001 28.7 47.4001 25.6C47.3001 24.8 46.9001 24.3 46.1001 23.9C45.3001 23.6 44.7001 23.8 44.2001 24.4C41.9001 26.5 39.6001 28.7 37.4001 30.8C36.1001 32 36.4001 33.8 38.1001 34.4C38.6001 34.5 39.1001 34.8 39.6001 34.9C37.7001 40.2 32.8001 43.4 28.9001 44C28.8001 43.8 28.9001 43.7 28.9001 43.5C28.9001 38.7 28.9001 33.9 28.9001 29.1L23.5001 34.5C23.5001 37.5 23.5001 40.5 23.4001 43.6C23.5001 43.8 23.4001 43.9 23.4001 44.2C20.9001 43.8 18.6001 42.7 16.8001 41.1L12.8001 45.1C16.1001 48.1 20.4001 49.8 25.8001 49.8C35.1001 49.8 41.2001 44.8 44.6001 36.5C45.1001 36.6 45.5001 36.8 46.0001 36.9C47.8001 37.6 49.2001 36.4 48.8001 34.8Z" fill="white"/>
<path d="M50.2 5.1L15.5 39.7L11.5 43.7L6.00002 49.2C5.40002 49.8 4.70002 50.1 3.90002 50.1C3.10002 50.1 2.40002 49.8 1.80002 49.2C0.600024 48 0.600024 46.1 1.80002 44.9L45.8 0.9C47 -0.3 48.9 -0.3 50 0.9C51.3 2.1 51.3 4 50.2 5.1Z" fill="white"/>
</svg>
