<svg width="32" height="32" viewBox="0 0 32 32" fill="none" xmlns="http://www.w3.org/2000/svg">
<path d="M23.0209 12.4644H28.0209V7.46436" stroke="#135B80" stroke-width="2" stroke-linecap="round" stroke-linejoin="round"/>
<path d="M11.7905 26.1627C9.78049 25.3301 8.06253 23.9202 6.85383 22.1113C5.64514 20.3023 5 18.1756 5 16C5 13.8244 5.64514 11.6977 6.85383 9.88873C8.06253 8.07979 9.78049 6.66989 11.7905 5.83733C13.8005 5.00477 16.0122 4.78693 18.146 5.21137C20.2798 5.6358 22.2398 6.68345 23.7782 8.22183L28.0208 12.4645" stroke="#135B80" stroke-width="2" stroke-linecap="round" stroke-linejoin="round"/>
<path d="M28.1491 21.4185H17.5309C17.2377 21.4185 17 21.6382 17 21.9094V28.7821C17 29.0532 17.2377 29.273 17.5309 29.273H28.1491C28.4423 29.273 28.68 29.0532 28.68 28.7821V21.9094C28.68 21.6382 28.4423 21.4185 28.1491 21.4185Z" stroke="#135B80" stroke-width="1.75" stroke-linecap="round" stroke-linejoin="round"/>
<path d="M20.4509 21.4182V19.2091C20.4509 18.6232 20.7026 18.0613 21.1507 17.647C21.5987 17.2327 22.2064 17 22.84 17C23.4736 17 24.0813 17.2327 24.5293 17.647C24.9774 18.0613 25.2291 18.6232 25.2291 19.2091V21.4182" stroke="#135B80" stroke-width="1.75" stroke-linecap="round" stroke-linejoin="round"/>
</svg>
