<svg width="20" height="24" viewBox="0 0 20 24" fill="none" xmlns="http://www.w3.org/2000/svg">
<path d="M16.768 1.3539V1.88791H15.8811V1.3539C15.8811 1.15423 16.0436 0.991699 16.2433 0.991699H16.4012C16.6055 0.991699 16.768 1.15423 16.768 1.3539Z" fill="white"/>
<path d="M4.11825 1.3539V1.88791H3.23132V1.3539C3.23132 1.15423 3.39385 0.991699 3.59352 0.991699H3.75141C3.95573 0.991699 4.11825 1.15423 4.11825 1.3539Z" fill="white"/>
<path d="M20 3.62886V6.8608H0V3.62886C0 3.05305 0.469004 2.58405 1.04481 2.58405H2.53541V3.61028C2.53541 4.19538 3.00906 4.66902 3.59415 4.66902C3.78454 4.66902 3.94242 4.51114 3.94242 4.32075C3.94242 4.13037 3.78454 3.97248 3.59415 3.97248C3.39447 3.97248 3.23195 3.80996 3.23195 3.61028V2.58405H15.1892V3.61028C15.1892 4.19538 15.6629 4.66902 16.248 4.66902C16.4384 4.66902 16.5962 4.51114 16.5962 4.32075C16.5962 4.13037 16.4384 3.97248 16.248 3.97248C16.0483 3.97248 15.8858 3.80996 15.8858 3.61028V2.58405H18.9552C19.531 2.58405 20 3.05305 20 3.62886Z" fill="white"/>
<path d="M0 7.56287V20.9364C0 21.5122 0.469004 21.9813 1.04481 21.9813H14.5948C15.0313 21.9813 15.3889 21.6237 15.3889 21.1872V18.8608C15.3889 18.0388 16.0576 17.3702 16.8795 17.3702H19.2059C19.6424 17.3702 20 17.0126 20 16.5761V7.56287H0ZM4.41142 19.9102C4.41142 20.2863 4.10495 20.5882 3.72881 20.5882H2.07105C1.69492 20.5882 1.39308 20.2817 1.39308 19.9102V18.2524C1.39308 17.8763 1.69956 17.5745 2.07105 17.5745H3.72881C4.10495 17.5745 4.41142 17.881 4.41142 18.2524V19.9102ZM4.41142 15.6009C4.41142 15.9771 4.10495 16.2789 3.72881 16.2789H2.07105C1.69492 16.2789 1.39308 15.9724 1.39308 15.6009V13.9432C1.39308 13.567 1.69956 13.2652 2.07105 13.2652H3.72881C4.10495 13.2652 4.41142 13.5717 4.41142 13.9432V15.6009ZM4.41142 11.2917C4.41142 11.6678 4.10495 11.9696 3.72881 11.9696H2.07105C1.69492 11.9696 1.39308 11.6632 1.39308 11.2917V9.63391C1.39308 9.25778 1.69956 8.95595 2.07105 8.95595H3.72881C4.10495 8.95595 4.41142 9.26243 4.41142 9.63391V11.2917ZM9.14326 19.9102C9.14326 20.2863 8.83678 20.5882 8.46529 20.5882H6.80752C6.43139 20.5882 6.12491 20.2817 6.12491 19.9102V18.2524C6.12491 17.8763 6.43139 17.5745 6.80752 17.5745H8.46529C8.84142 17.5745 9.14326 17.881 9.14326 18.2524V19.9102ZM9.14326 15.6009C9.14326 15.9771 8.83678 16.2789 8.46529 16.2789H6.80752C6.43139 16.2789 6.12491 15.9724 6.12491 15.6009V13.9432C6.12491 13.567 6.43139 13.2652 6.80752 13.2652H8.46529C8.84142 13.2652 9.14326 13.5717 9.14326 13.9432V15.6009ZM9.14326 11.2917C9.14326 11.6678 8.83678 11.9696 8.46529 11.9696H6.80752C6.43139 11.9696 6.12491 11.6632 6.12491 11.2917V9.63391C6.12491 9.25778 6.43139 8.95595 6.80752 8.95595H8.46529C8.84142 8.95595 9.14326 9.26243 9.14326 9.63391V11.2917ZM13.8751 19.9056C13.8751 20.2817 13.5686 20.5882 13.1925 20.5882H11.5347C11.1586 20.5882 10.8567 20.2817 10.8567 19.9056V18.2478C10.8567 17.8717 11.1632 17.5698 11.5347 17.5698H13.1925C13.5686 17.5698 13.8751 17.8763 13.8751 18.2478V19.9056ZM13.8751 15.6009C13.8751 15.9771 13.5686 16.2789 13.1925 16.2789H11.5347C11.1586 16.2789 10.8567 15.9724 10.8567 15.6009V13.9432C10.8567 13.567 11.1632 13.2652 11.5347 13.2652H13.1925C13.5686 13.2652 13.8751 13.5717 13.8751 13.9432V15.6009ZM13.8751 11.2917C13.8751 11.6678 13.5686 11.9696 13.1925 11.9696H11.5347C11.1586 11.9696 10.8567 11.6632 10.8567 11.2917V9.63391C10.8567 9.25778 11.1632 8.95595 11.5347 8.95595H13.1925C13.5686 8.95595 13.8751 9.26243 13.8751 9.63391V11.2917ZM18.6069 15.7031C18.6069 16.0792 18.3004 16.3811 17.929 16.3811H16.2712C15.8951 16.3811 15.5886 16.0746 15.5886 15.7031V14.0453C15.5886 13.6692 15.8951 13.3674 16.2712 13.3674H17.929C18.3051 13.3674 18.6069 13.6738 18.6069 14.0453V15.7031ZM18.6069 11.2917C18.6069 11.6678 18.3004 11.9696 17.929 11.9696H16.2712C15.8951 11.9696 15.5886 11.6632 15.5886 11.2917V9.63391C15.5886 9.25778 15.8951 8.95595 16.2712 8.95595H17.929C18.3051 8.95595 18.6069 9.26243 18.6069 9.63391V11.2917Z" fill="white"/>
<path d="M19.559 18.0251L16.0438 21.5403C16.0717 21.4289 16.0856 21.3081 16.0856 21.1874V18.861C16.0856 18.4245 16.4432 18.0669 16.8797 18.0669H19.2061C19.3268 18.0669 19.4476 18.053 19.559 18.0251Z" fill="white"/>
<path d="M20 18.5628V22.3287C20 22.9045 19.531 23.3735 18.9552 23.3735H1.04481C0.469004 23.3735 0 22.9045 0 22.3287C0.292547 22.547 0.654748 22.677 1.04481 22.677H15.166C15.6304 22.677 16.0715 22.4959 16.3966 22.1662L20 18.5628Z" fill="white"/>
</svg>
