<svg width="19" height="18" viewBox="0 0 19 18" fill="none" xmlns="http://www.w3.org/2000/svg">
<path d="M9.16968 12.962C11.3106 12.962 13.0461 11.2264 13.0461 9.08552C13.0461 6.94461 11.3106 5.20905 9.16968 5.20905C7.02877 5.20905 5.29321 6.94461 5.29321 9.08552C5.29321 11.2264 7.02877 12.962 9.16968 12.962Z" stroke="#135B80" stroke-width="1.5" stroke-linecap="round" stroke-linejoin="round"/>
<path d="M14.7748 5.26144C14.9659 5.54201 15.1356 5.83653 15.2826 6.14253L17.378 7.30575C17.6332 8.47795 17.6341 9.69126 17.3806 10.8638L15.284 12.0277C15.1366 12.3335 14.9664 12.6277 14.7748 12.908L14.8152 15.3043C13.9276 16.1114 12.8773 16.7188 11.7351 17.0855L9.67885 15.8518C9.34033 15.877 9.0004 15.8767 8.66192 15.851L6.60685 17.084C5.46408 16.719 4.41288 16.1131 3.52417 15.3072L3.56453 12.9096C3.37345 12.629 3.20371 12.3345 3.05676 12.0285L0.961357 10.8653C0.706133 9.6931 0.705257 8.47979 0.958788 7.30722L3.05536 6.14337C3.20279 5.8376 3.37299 5.54334 3.56452 5.26308L3.52419 2.86679C4.41173 2.05966 5.46204 1.45225 6.60428 1.08553L8.6605 2.31929C8.99902 2.29408 9.33895 2.29435 9.67743 2.32009L11.7325 1.08701C12.8753 1.45208 13.9265 2.05798 14.8152 2.86383L14.7748 5.26144Z" stroke="#135B80" stroke-width="1.5" stroke-linecap="round" stroke-linejoin="round"/>
</svg>
