<svg width="20" height="20" viewBox="0 0 20 20" fill="none" xmlns="http://www.w3.org/2000/svg">
<path d="M20 6.09081L19.9197 11.4467L18.2302 10.4372L15.2693 15.396L6.25554 7.86483L1.08976 14.1162L0 13.2165L6.07392 5.86694L14.9018 13.2503L17.0137 9.71488L15.3242 8.70116L20 6.09081Z" fill="white"/>
<path d="M18.8564 -3.05176e-05L18.1088 5.30514L16.5544 4.08867L12.4108 9.38962L11.2999 8.5195L15.4435 3.21855L13.8892 2.00631L18.8564 -3.05176e-05Z" fill="white"/>
<path d="M10.3418 12.8914L7.55402 16.5535L5.72932 14.733L2.28264 19.1807L1.16754 18.3148L5.59415 12.5999L7.40619 14.412L9.21823 12.0339L10.3418 12.8914Z" fill="white"/>
</svg>
