<svg width="20" height="20" viewBox="0 0 20 20" fill="none" xmlns="http://www.w3.org/2000/svg">
<path d="M19.8033 9.7295C19.6718 9.85951 19.4877 9.935 19.2993 9.935H18.0635V19.329C18.0635 19.6981 17.748 20 17.3624 20H12.4543C12.0686 20 11.7531 19.6981 11.7531 19.329V13.961H8.24734V19.329C8.24734 19.6981 7.93182 20 7.54619 20H2.6381C2.25246 20 1.93694 19.6981 1.93694 19.329V9.935H0.701156C0.31552 9.935 0 9.63305 0 9.264C0 9.08367 0.07888 8.90753 0.214729 8.78172L9.51381 0.188719C9.7855 -0.0629063 10.215 -0.0629063 10.4867 0.188719L19.7857 8.78172C20.0662 9.04173 20.0706 9.4653 19.8033 9.7295Z" fill="white"/>
</svg>
