<?xml version="1.0"?>
<svg xmlns="http://www.w3.org/2000/svg" xmlns:xlink="http://www.w3.org/1999/xlink" xmlns:svgjs="http://svgjs.com/svgjs" version="1.1" width="18" height="18" x="0" y="0" viewBox="0 0 60 60" style="enable-background:new 0 0 512 512" xml:space="preserve" class=""><g>
<g xmlns="http://www.w3.org/2000/svg">
	<g>
		<path d="M48.232,54.15C52.597,47.684,55,39.148,55,30c0-9.199-2.425-17.768-6.832-24.245l3.584-4.096    c0.258-0.295,0.32-0.715,0.158-1.072C51.749,0.229,51.393,0,51,0H9C8.607,0,8.251,0.229,8.089,0.587    c-0.162,0.357-0.1,0.776,0.158,1.072l3.584,4.096C7.425,12.232,5,20.801,5,30c0,9.148,2.403,17.684,6.768,24.15l-3.534,4.207    c-0.25,0.297-0.305,0.713-0.141,1.065C8.258,59.775,8.611,60,9,60h42c0.389,0,0.742-0.225,0.906-0.578    c0.165-0.353,0.109-0.768-0.141-1.065L48.232,54.15z M16.904,4.587C17.066,4.229,17.422,4,17.815,4h24.37    c0.393,0,0.749,0.229,0.911,0.587s0.1,0.776-0.158,1.072L30.752,19.584c-0.19,0.217-0.464,0.341-0.752,0.341    s-0.563-0.125-0.752-0.341L17.063,5.659C16.804,5.363,16.742,4.944,16.904,4.587z M13.104,52.56C9.16,46.48,7,38.528,7,30    c0-8.596,2.19-16.598,6.189-22.693L15.3,9.72C11.889,15.28,10,22.436,10,30c0,7.46,1.847,14.548,5.184,20.084L13.104,52.56z     M43.322,55.422C43.158,55.775,42.805,56,42.416,56H17.584c-0.389,0-0.742-0.225-0.906-0.578    c-0.165-0.353-0.109-0.768,0.141-1.065l12.416-14.781c0.38-0.452,1.151-0.452,1.531,0l12.416,14.781    C43.432,54.654,43.487,55.07,43.322,55.422z M30.766,33.357C30.576,33.13,30.295,33,30,33s-0.576,0.13-0.766,0.357l-12.7,15.119    C13.602,43.337,12,36.836,12,30c0-6.957,1.651-13.545,4.669-18.717l12.579,14.375C29.438,25.875,29.711,26,30,26    s0.563-0.125,0.752-0.341l12.579-14.375C46.349,16.455,48,23.043,48,30c0,6.836-1.603,13.337-4.534,18.477L30.766,33.357z     M44.817,50.084C48.153,44.548,50,37.46,50,30c0-7.564-1.889-14.72-5.301-20.28l2.111-2.413C50.81,13.402,53,21.404,53,30    c0,8.528-2.16,16.48-6.104,22.56L44.817,50.084z" fill="#777777" data-original="#000000" style="" class=""/>
		<path d="M43,32v-5c0-0.552-0.448-1-1-1H30H18c-0.552,0-1,0.448-1,1v5c0,0.552,0.448,1,1,1h12h12C42.552,33,43,32.552,43,32z" fill="#777777" data-original="#000000" style="" class=""/>
		<path d="M30,46c-2.206,0-4,1.794-4,4s1.794,4,4,4s4-1.794,4-4S32.206,46,30,46z" fill="#777777" data-original="#000000" style="" class=""/>
		<path d="M30,14c2.206,0,4-1.794,4-4s-1.794-4-4-4s-4,1.794-4,4S27.794,14,30,14z" fill="#777777" data-original="#000000" style="" class=""/>
	</g>
</g>
<g xmlns="http://www.w3.org/2000/svg">
</g>
<g xmlns="http://www.w3.org/2000/svg">
</g>
<g xmlns="http://www.w3.org/2000/svg">
</g>
<g xmlns="http://www.w3.org/2000/svg">
</g>
<g xmlns="http://www.w3.org/2000/svg">
</g>
<g xmlns="http://www.w3.org/2000/svg">
</g>
<g xmlns="http://www.w3.org/2000/svg">
</g>
<g xmlns="http://www.w3.org/2000/svg">
</g>
<g xmlns="http://www.w3.org/2000/svg">
</g>
<g xmlns="http://www.w3.org/2000/svg">
</g>
<g xmlns="http://www.w3.org/2000/svg">
</g>
<g xmlns="http://www.w3.org/2000/svg">
</g>
<g xmlns="http://www.w3.org/2000/svg">
</g>
<g xmlns="http://www.w3.org/2000/svg">
</g>
<g xmlns="http://www.w3.org/2000/svg">
</g>
</g></svg>
