<svg width="72" height="64" viewBox="0 0 72 64" fill="none" xmlns="http://www.w3.org/2000/svg">
<path fill-rule="evenodd" clip-rule="evenodd" d="M36 23C37.6569 23 39 24.1513 39 25.5714V38.4286C39 39.8487 37.6569 41 36 41C34.3431 41 33 39.8487 33 38.4286V25.5714C33 24.1513 34.3431 23 36 23Z" fill="white"/>
<path fill-rule="evenodd" clip-rule="evenodd" d="M32.1457 1.02685C33.3178 0.354123 34.647 0 36 0C37.353 0 38.6822 0.354123 39.8543 1.02685C41.0264 1.69957 42.0001 2.66725 42.6779 3.83281L40.4711 5.10425L42.6779 3.83281L70.962 52.4722C71.6409 53.6396 71.9989 54.9644 72 56.3133C72.0011 57.6622 71.6453 58.9876 70.9684 60.1562C70.2915 61.3247 69.3173 62.2952 68.1439 62.97C66.9705 63.6448 65.6392 64 64.284 64H7.71594C6.36078 64 5.02953 63.6447 3.85613 62.97C2.68272 62.2952 1.70854 61.3247 1.03161 60.1562C0.354685 58.9876 -0.00111815 57.6622 2.6397e-06 56.3133C0.00112343 54.9644 0.35913 53.6396 1.038 52.4722L29.3221 3.83281L31.5854 5.13685L29.3221 3.83281C29.9999 2.66724 30.9736 1.69957 32.1457 1.02685ZM36 5.1202C35.549 5.1202 35.1059 5.23824 34.7152 5.46248C34.3245 5.68672 33.9999 6.00928 33.774 6.3978L5.48995 55.0372L3.26397 53.7547L5.48995 55.0372C5.26366 55.4263 5.14432 55.8679 5.14395 56.3176C5.14357 56.7672 5.26217 57.209 5.48782 57.5985C5.71346 57.988 6.03819 58.3115 6.42933 58.5365C6.82047 58.7614 7.26422 58.8798 7.71594 58.8798H64.2841C64.7358 58.8798 65.1795 58.7614 65.5707 58.5365C65.9618 58.3115 66.2865 57.9881 66.5122 57.5985C66.7378 57.209 66.8564 56.7672 66.856 56.3176C66.8557 55.868 66.7363 55.4263 66.51 55.0372L68.736 53.7547L66.51 55.0372L38.226 6.3978C38 6.00928 37.6754 5.68672 37.2847 5.46248C36.8941 5.23824 36.451 5.1202 36 5.1202Z" fill="white"/>
<path d="M36 54C38.2091 54 40 52.2091 40 50C40 47.7909 38.2091 46 36 46C33.7909 46 32 47.7909 32 50C32 52.2091 33.7909 54 36 54Z" fill="white"/>
</svg>
