<svg id="Layer_1" data-name="Layer 1" xmlns="http://www.w3.org/2000/svg" viewBox="0 0 20 18.66"><defs><style>.cls-1{fill:#5B7A8F;}</style></defs><title>hide-pass-02</title><path class="cls-1" d="M20,9.83a1.56,1.56,0,0,1-.23.78,12.13,12.13,0,0,1-4.2,4.1A10.71,10.71,0,0,1,10,16.28a10.8,10.8,0,0,1-5.59-1.57A11.9,11.9,0,0,1,.2,10.61a1.62,1.62,0,0,1,0-1.56A12,12,0,0,1,4.41,5,10.76,10.76,0,0,1,15.57,5a12.21,12.21,0,0,1,4.2,4.1A1.56,1.56,0,0,1,20,9.83Zm-1.45,0A11,11,0,0,0,14.3,5.89a4.75,4.75,0,0,1,.7,2.5,4.82,4.82,0,0,1-1.46,3.53A4.83,4.83,0,0,1,10,13.39a4.83,4.83,0,0,1-3.54-1.47A4.82,4.82,0,0,1,5,8.39a5,5,0,0,1,.66-2.5A11.33,11.33,0,0,0,1.41,9.83a11.21,11.21,0,0,0,3.73,3.65A9.23,9.23,0,0,0,10,14.83a9.16,9.16,0,0,0,4.84-1.35A11.24,11.24,0,0,0,18.55,9.83ZM6.6,8.39a.53.53,0,0,0,.16.39.53.53,0,0,0,.74,0,.57.57,0,0,0,.16-.39,2.18,2.18,0,0,1,.68-1.62A2.26,2.26,0,0,1,10,6.08a.49.49,0,0,0,.35-.15.51.51,0,0,0,.16-.38.5.5,0,0,0-.16-.37A.49.49,0,0,0,10,5,3.27,3.27,0,0,0,7.6,6,3.24,3.24,0,0,0,6.6,8.39Z"/></svg>