<svg width="14" height="14" viewBox="0 0 14 14" fill="none" xmlns="http://www.w3.org/2000/svg">
<path d="M10 8H8V10H10V12H8V14H10V12H12V14H14V12H12V10H14V8H12V10H10V8Z" fill="#135B80"/>
<path d="M2 2H4V4H2V2Z" fill="#135B80"/>
<path d="M2 0C1.46957 0 0.960859 0.210714 0.585786 0.585786C0.210714 0.960859 0 1.46957 0 2V4C0 4.53043 0.210714 5.03914 0.585786 5.41421C0.960859 5.78929 1.46957 6 2 6H4C4.53043 6 5.03914 5.78929 5.41421 5.41421C5.78929 5.03914 6 4.53043 6 4V2C6 1.46957 5.78929 0.960859 5.41421 0.585786C5.03914 0.210714 4.53043 0 4 0H2ZM1.25 1.75C1.25 1.61739 1.30268 1.49021 1.39645 1.39645C1.49021 1.30268 1.61739 1.25 1.75 1.25H4.25C4.38261 1.25 4.50979 1.30268 4.60355 1.39645C4.69732 1.49021 4.75 1.61739 4.75 1.75V4.25C4.75 4.38261 4.69732 4.50979 4.60355 4.60355C4.50979 4.69732 4.38261 4.75 4.25 4.75H1.75C1.61739 4.75 1.49021 4.69732 1.39645 4.60355C1.30268 4.50979 1.25 4.38261 1.25 4.25V1.75Z" fill="#135B80"/>
<path d="M2 10H4V12H2V10Z" fill="#135B80"/>
<path d="M2 8C1.46957 8 0.960859 8.21071 0.585786 8.58579C0.210714 8.96086 0 9.46957 0 10V12C0 12.5304 0.210714 13.0391 0.585786 13.4142C0.960859 13.7893 1.46957 14 2 14H4C4.53043 14 5.03914 13.7893 5.41421 13.4142C5.78929 13.0391 6 12.5304 6 12V10C6 9.46957 5.78929 8.96086 5.41421 8.58579C5.03914 8.21071 4.53043 8 4 8H2ZM1.25 9.75C1.25 9.61739 1.30268 9.49021 1.39645 9.39645C1.49021 9.30268 1.61739 9.25 1.75 9.25H4.25C4.38261 9.25 4.50979 9.30268 4.60355 9.39645C4.69732 9.49021 4.75 9.61739 4.75 9.75V12.25C4.75 12.3826 4.69732 12.5098 4.60355 12.6036C4.50979 12.6973 4.38261 12.75 4.25 12.75H1.75C1.61739 12.75 1.49021 12.6973 1.39645 12.6036C1.30268 12.5098 1.25 12.3826 1.25 12.25V9.75Z" fill="#135B80"/>
<path d="M10 2H12V4H10V2Z" fill="#135B80"/>
<path d="M10 0C9.46957 0 8.96086 0.210714 8.58579 0.585786C8.21071 0.960859 8 1.46957 8 2V4C8 4.53043 8.21071 5.03914 8.58579 5.41421C8.96086 5.78929 9.46957 6 10 6H12C12.5304 6 13.0391 5.78929 13.4142 5.41421C13.7893 5.03914 14 4.53043 14 4V2C14 1.46957 13.7893 0.960859 13.4142 0.585786C13.0391 0.210714 12.5304 0 12 0H10ZM9.25 1.75C9.25 1.61739 9.30268 1.49021 9.39645 1.39645C9.49021 1.30268 9.61739 1.25 9.75 1.25H12.25C12.3826 1.25 12.5098 1.30268 12.6036 1.39645C12.6973 1.49021 12.75 1.61739 12.75 1.75V4.25C12.75 4.38261 12.6973 4.50979 12.6036 4.60355C12.5098 4.69732 12.3826 4.75 12.25 4.75H9.75C9.61739 4.75 9.49021 4.69732 9.39645 4.60355C9.30268 4.50979 9.25 4.38261 9.25 4.25V1.75Z" fill="#135B80"/>
</svg>
