<svg id="Layer_1" data-name="Layer 1" xmlns="http://www.w3.org/2000/svg" viewBox="0 0 14 14"><defs><style>.cls-1{fill:#777;}.cls-2{fill:#fff;}</style></defs><title>icon-info</title><circle class="cls-1" cx="7" cy="7" r="7"/><path class="cls-2" d="M5.81,10.39,6,6.05a.34.34,0,0,1,.11-.25.37.37,0,0,1,.27-.11H7.79A.36.36,0,0,1,8,5.8a.47.47,0,0,1,.13.25l.15,4.34a.35.35,0,0,1-.1.25.38.38,0,0,1-.25.11H6.17a.35.35,0,0,1-.26-.11A.39.39,0,0,1,5.81,10.39Zm.27-5.71A.33.33,0,0,1,6,4.43V3.16a.38.38,0,0,1,.38-.35H7.79A.32.32,0,0,1,8,2.92a.34.34,0,0,1,.11.24V4.43A.33.33,0,0,1,8,4.68a.35.35,0,0,1-.25.1H6.35A.36.36,0,0,1,6.08,4.68Z"/></svg>