<svg id="Layer_1" data-name="Layer 1" xmlns="http://www.w3.org/2000/svg" viewBox="0 0 9.6 9.69"><title>icon-phone</title><path d="M9.18,7a1.21,1.21,0,0,1,0,1.82,2.58,2.58,0,0,1-.64.58A1.42,1.42,0,0,1,8,9.66a4.37,4.37,0,0,1-.59,0A4.51,4.51,0,0,1,4.89,8.58,15.32,15.32,0,0,1,2.75,6.74,14.68,14.68,0,0,1,.59,3.8a3.3,3.3,0,0,1-.5-2.53A1.7,1.7,0,0,1,.86.36l0,0A1.64,1.64,0,0,1,1.76,0,1.22,1.22,0,0,1,2.7.5l0,0a10.27,10.27,0,0,1,.88,1.3,1.34,1.34,0,0,1,0,1.45,1.39,1.39,0,0,0-.33.64,1.66,1.66,0,0,0,.36.49l0,0c.43.5.67.76.71.8s0,0,0,0l.06,0,0,.06c.37.36.63.62.8.77l0,0c.17.15.28.22.33.22A2.63,2.63,0,0,0,6.45,6a.76.76,0,0,1,.46-.14,2.41,2.41,0,0,1,1.19.42A5.21,5.21,0,0,1,9.18,7Z"/></svg>