<svg id="Layer_1" data-name="Layer 1" xmlns="http://www.w3.org/2000/svg" viewBox="0 0 16.46 16.39"><defs><style>.cls-1{fill:#0c3f77;}.cls-2{fill:red;}</style></defs><title>icon-reject</title><path class="cls-1" d="M4.44,15.34h0s0,0,0,0A1.77,1.77,0,0,0,4,15.24a1,1,0,0,0-.42.07L.63,16.39l.77-3.07a1.23,1.23,0,0,0-.14-.53s0,0,0-.07l-.07-.07A6.59,6.59,0,0,1,0,8.88a6.65,6.65,0,0,1,2.13-5A7.13,7.13,0,0,1,7.27,1.86,7.13,7.13,0,0,1,12.4,3.92a6.65,6.65,0,0,1,2.13,5,6.59,6.59,0,0,1-2.13,4.94,7.12,7.12,0,0,1-5.13,2A7.43,7.43,0,0,1,4.44,15.34ZM1,8.94a1.69,1.69,0,0,0,.47,1.22,1.69,1.69,0,0,0,1.22.47A1.63,1.63,0,0,0,4.42,8.94,1.64,1.64,0,0,0,2.73,7.25,1.63,1.63,0,0,0,1,8.94Zm4.51,0a1.61,1.61,0,0,0,1.69,1.69A1.63,1.63,0,0,0,8.93,8.94,1.64,1.64,0,0,0,7.24,7.25,1.63,1.63,0,0,0,5.55,8.94Zm4.51,0a1.65,1.65,0,0,0,.47,1.22,1.7,1.7,0,0,0,2.91-1.22,1.64,1.64,0,0,0-1.69-1.69,1.64,1.64,0,0,0-1.22.48A1.61,1.61,0,0,0,10.06,8.94Z"/><circle class="cls-2" cx="13.67" cy="2.79" r="2.79"/></svg>