<svg id="Layer_1" data-name="Layer 1" xmlns="http://www.w3.org/2000/svg" viewBox="0 0 24 24"><defs><style>.cls-1{fill:#539cd3;}.cls-2{fill:#fff;}</style></defs><title>icon-ad</title><circle class="cls-1" cx="12" cy="12" r="12"/><path class="cls-2" d="M16.5,16.5h-9a7.22,7.22,0,0,1,0-.94c.06-.31.69-.69,1.9-1.15l.68-.23a2.18,2.18,0,0,0,.63-.29,1.23,1.23,0,0,0,.09-.62v-.14a.91.91,0,0,0-.21-.56,2.22,2.22,0,0,1-.33-.94,1,1,0,0,0-.14-.38,2.15,2.15,0,0,1-.19-.56.69.69,0,0,1,0-.4,1.1,1.1,0,0,0,.06-.24c0-.25-.06-.5-.09-.77a1.63,1.63,0,0,1,.47-1.16A2,2,0,0,1,12,7.5a2,2,0,0,1,1.59.62,1.63,1.63,0,0,1,.47,1.16c0,.27-.06.52-.09.77a1.1,1.1,0,0,0,.06.24.69.69,0,0,1,0,.4,2.15,2.15,0,0,1-.19.56,1,1,0,0,0-.14.38,2.22,2.22,0,0,1-.33.94.91.91,0,0,0-.21.56c0,.46,0,.73.14.79a11.46,11.46,0,0,0,1.15.45l.11,0c1.21.46,1.84.84,1.9,1.15Z"/></svg>