<svg id="Layer_1" data-name="Layer 1" xmlns="http://www.w3.org/2000/svg" viewBox="0 0 7.41 10.43"><title>icon-map</title><path d="M1.09,1.07A3.61,3.61,0,0,1,3.71,0,3.6,3.6,0,0,1,6.32,1.07,3.48,3.48,0,0,1,7.41,3.65a6.4,6.4,0,0,1-.92,2.91,16.55,16.55,0,0,1-1.86,2.8l-.92,1.07A5.53,5.53,0,0,1,3.3,10c-.16-.19-.46-.57-.88-1.13s-.8-1.1-1.12-1.62a11.61,11.61,0,0,1-.89-1.8A4.58,4.58,0,0,1,0,3.65,3.48,3.48,0,0,1,1.09,1.07Zm1.68,3.5A1.26,1.26,0,0,0,3.71,5a1.24,1.24,0,0,0,.93-.39A1.23,1.23,0,0,0,5,3.65a1.31,1.31,0,0,0-1.32-1.3,1.29,1.29,0,0,0-.94.38,1.25,1.25,0,0,0-.38.92A1.22,1.22,0,0,0,2.77,4.57Z"/></svg>