<svg id="Layer_1" data-name="Layer 1" xmlns="http://www.w3.org/2000/svg" viewBox="0 0 265.02 44.41"><defs><style>.cls-1{fill:#f7f7f7;}</style></defs><title>logo-vsd</title><path class="cls-1" d="M55.25,21.79l-.4-.68L43,1.28,42.68.74a1.56,1.56,0,0,0-.35-.27C40.42,1.9,35.81,5.53,34.48,8L43,22.25l-13.15,22h12a1.83,1.83,0,0,0,.81-.41l.42-.71L54.85,23.4l.4-.68a1.13,1.13,0,0,0,0-.93Z"/><path class="cls-1" d="M36,.14,32.16.07,32,.24h3.83Z"/><path class="cls-1" d="M30.29,2.57a35.07,35.07,0,0,0-3.46,6.07A21.55,21.55,0,0,0,25.53,13a13.83,13.83,0,0,0,2,2.82A16.8,16.8,0,0,1,29.38,9.4a34.94,34.94,0,0,1,3-4.92L30.8,1.89C30.64,2.11,30.45,2.33,30.29,2.57Z"/><path class="cls-1" d="M32.35,4.48A43.15,43.15,0,0,1,35.86.24H32q-.63.81-1.23,1.65Z"/><path class="cls-1" d="M24.85,11.36a23.4,23.4,0,0,1,1.23-3.07,36.6,36.6,0,0,1,4.47-6.84L29.82.24h1.74l.15-.18L28.3,0S22.76,5,24.85,11.36Z"/><path class="cls-1" d="M30.55,1.45c.33-.4.66-.81,1-1.21H29.82Z"/><path class="cls-1" d="M41.61.24,36.32.15l-.08.09h5.37Z"/><path class="cls-1" d="M30.13,9.74a20.24,20.24,0,0,0-1.61,6.64c0,.15,0,.29,0,.44a22.64,22.64,0,0,0,2,1.65S30,13.68,34.24,7.64L32.68,5A33.51,33.51,0,0,0,30.13,9.74Z"/><path class="cls-1" d="M41.61.24H36.24c-.93,1.11-1.83,2.25-2.65,3.43-.31.45-.62.9-.91,1.36l1.56,2.61A32.37,32.37,0,0,1,41.61.24Z"/><path class="cls-1" d="M24.82,41.85a35.16,35.16,0,0,0,3.46-6.07,21.67,21.67,0,0,0,1.31-4.34,14.23,14.23,0,0,0-2-2.82A17,17,0,0,1,25.73,35a34.38,34.38,0,0,1-2.87,4.78l1.55,2.6Z"/><path class="cls-1" d="M19.16,44.27l3.8.07.05-.07H19.16Z"/><path class="cls-1" d="M22.86,39.79a44.13,44.13,0,0,1-3.69,4.48H23c.49-.62.95-1.24,1.4-1.88Z"/><path class="cls-1" d="M30.27,33.05A24.31,24.31,0,0,1,29,36.12a35.59,35.59,0,0,1-4.36,6.71l.86,1.44H23.47l-.07.08,3.42.06S32.36,39.43,30.27,33.05Z"/><path class="cls-1" d="M24.67,42.83q-.59.73-1.2,1.44h2.06Z"/><path class="cls-1" d="M25,34.67A20,20,0,0,0,26.59,28c0-.15,0-.29,0-.44a22.44,22.44,0,0,0-1.95-1.65s.47,4.72-3.67,10.7l1.56,2.6A32.4,32.4,0,0,0,25,34.67Z"/><path class="cls-1" d="M22.53,39.24,21,36.64a32.61,32.61,0,0,1-7.46,7.53l5.29.1c1-1.14,1.88-2.31,2.72-3.53C21.87,40.25,22.2,39.75,22.53,39.24Z"/><path class="cls-1" d="M30.74,20c-8.86-7.81-7.34-12-7.34-12-6.79,10,0,15,4.64,19.15a11.9,11.9,0,0,1,4.1,9.4S39.6,27.77,30.74,20Z"/><path class="cls-1" d="M20.54,36,12.38,22.25,25.53.24H13.62a1.63,1.63,0,0,0-.95.5l-.33.54L.5,21.11l-.4.68a1.13,1.13,0,0,0,0,.93l.4.68L12.3,43.15l.42.71s0,0,0,0A48.31,48.31,0,0,0,20.54,36Z"/><path class="cls-1" d="M66.91,19.06V13.19H65.08V12H70v1.2H68.16v5.87Z"/><path class="cls-1" d="M70.8,19.06V12h2.63a4.14,4.14,0,0,1,1.44.19,1.52,1.52,0,0,1,.72.68A2.29,2.29,0,0,1,75.86,14a2,2,0,0,1-.41,1.31,1.85,1.85,0,0,1-1.22.65,3,3,0,0,1,.67.6,8.33,8.33,0,0,1,.71,1.14l.75,1.38H74.87L74,17.52a8.73,8.73,0,0,0-.66-1,.87.87,0,0,0-.38-.3,1.85,1.85,0,0,0-.62-.08h-.26v2.95ZM72.05,15H73a4.69,4.69,0,0,0,1.12-.08.73.73,0,0,0,.35-.3,1.06,1.06,0,0,0,.13-.53,1,1,0,0,0-.17-.58.78.78,0,0,0-.47-.28c-.1,0-.41,0-.91,0h-1Z"/><path class="cls-1" d="M77,12h1.25v3.83a9,9,0,0,0,0,1.18,1.15,1.15,0,0,0,.38.7,1.17,1.17,0,0,0,.82.26,1.21,1.21,0,0,0,.81-.24,1,1,0,0,0,.32-.62,8.68,8.68,0,0,0,0-1.2V12H82v3.72a10.8,10.8,0,0,1-.1,1.8,2,2,0,0,1-.37.88,1.85,1.85,0,0,1-.73.58,2.85,2.85,0,0,1-1.19.21A3,3,0,0,1,78.23,19a2,2,0,0,1-.73-.61,2.26,2.26,0,0,1-.35-.78,10.09,10.09,0,0,1-.12-1.8Z"/><path class="cls-1" d="M83.29,19.06V12h1.22L87,16.71V12H88.2v7.07H87l-2.5-4.61v4.61Z"/><path class="cls-1" d="M92.4,16.46V15.27h2.69v2.82a3.28,3.28,0,0,1-1.14.76,3.66,3.66,0,0,1-1.5.33,3.07,3.07,0,0,1-1.7-.46,2.86,2.86,0,0,1-1.08-1.33,4.89,4.89,0,0,1-.36-1.89,4.55,4.55,0,0,1,.4-2,3,3,0,0,1,1.19-1.32,2.89,2.89,0,0,1,1.48-.35,2.67,2.67,0,0,1,1.8.56A2.5,2.5,0,0,1,95,14l-1.24.27a1.58,1.58,0,0,0-.49-.83,1.36,1.36,0,0,0-.9-.3,1.57,1.57,0,0,0-1.3.6,2.68,2.68,0,0,0-.49,1.76,3.06,3.06,0,0,0,.49,1.88,1.56,1.56,0,0,0,1.29.63,2,2,0,0,0,.78-.17,2.55,2.55,0,0,0,.68-.43v-.9Z"/><path class="cls-1" d="M100,19.06V13.19H98.2V12h4.92v1.2h-1.83v5.87Z"/><path class="cls-1" d="M109.5,19.06h-1.36l-.54-1.6h-2.47l-.51,1.6h-1.33L105.7,12H107Zm-4.58-7.47.89-1.42h1.1l.87,1.42h-1l-.49-.72-.46.72Zm2.28,4.68-.85-2.63-.84,2.63Z"/><path class="cls-1" d="M110.15,19.06V12H112l1.12,4.83L114.25,12h1.87v7.07H115V13.5l-1.23,5.56h-1.2l-1.22-5.56v5.56Z"/><path class="cls-1" d="M119.8,19.06v-7h1.25v5.82h3.1v1.19Z"/><path class="cls-1" d="M130.4,12h1.18v1a3.86,3.86,0,0,1-.09.94,1.48,1.48,0,0,1-.33.6,2.11,2.11,0,0,1-1.19.57v.64a12.24,12.24,0,0,1-.1,1.8,2.13,2.13,0,0,1-.38.88,2.22,2.22,0,0,1-1.92.79,2.36,2.36,0,0,1-2.06-.84,1.94,1.94,0,0,1-.35-.78,9.75,9.75,0,0,1-.13-1.8V12h1.25v3.83a8.73,8.73,0,0,0,0,1.18,1.09,1.09,0,0,0,1.21,1c.66,0,1-.28,1.12-.86a8.28,8.28,0,0,0,.06-1.2V12H130v2.53a1.27,1.27,0,0,0,.85-.51,1.19,1.19,0,0,0,.15-.66h-.57Z"/><path class="cls-1" d="M132.2,12h1.25v3.83A9,9,0,0,0,133.5,17a1.15,1.15,0,0,0,.38.7,1.2,1.2,0,0,0,.83.26,1.18,1.18,0,0,0,.8-.24,1,1,0,0,0,.32-.62,8.28,8.28,0,0,0,.06-1.2V12h1.25v3.72a12,12,0,0,1-.1,1.8,2.14,2.14,0,0,1-.38.88,1.85,1.85,0,0,1-.73.58,2.85,2.85,0,0,1-1.19.21A3,3,0,0,1,133.4,19a1.89,1.89,0,0,1-.72-.61,1.94,1.94,0,0,1-.35-.78,9.07,9.07,0,0,1-.13-1.8Z"/><path class="cls-1" d="M140.87,19.06V12h1.25v3.14L144.64,12h1.68L144,14.75l2.46,4.31h-1.62l-1.7-3.31-1,1.18v2.13Z"/><path class="cls-1" d="M148.72,19.06v-3L146.45,12h1.47l1.45,2.8L150.8,12h1.44L150,16.1v3Zm-.16-7.47.58-1.44h1.33l-1.16,1.44Z"/><path class="cls-1" d="M159.22,16.46l1.21.44a3.23,3.23,0,0,1-.93,1.72,2.38,2.38,0,0,1-1.64.56,2.52,2.52,0,0,1-2-1,4.06,4.06,0,0,1-.79-2.63,4.22,4.22,0,0,1,.8-2.74,2.58,2.58,0,0,1,2.1-1,2.4,2.4,0,0,1,1.84.77,2.93,2.93,0,0,1,.63,1.3l-1.23.34a1.59,1.59,0,0,0-.46-.87,1.23,1.23,0,0,0-.85-.32,1.31,1.31,0,0,0-1.11.57,3,3,0,0,0-.43,1.82,3.29,3.29,0,0,0,.42,1.91,1.31,1.31,0,0,0,1.1.57,1.16,1.16,0,0,0,.85-.36A2.24,2.24,0,0,0,159.22,16.46Z"/><path class="cls-1" d="M161.51,19.06V12h1.24v2.79h2.45V12h1.25v7.07H165.2V16h-2.45v3.09Z"/><path class="cls-1" d="M173.1,12h1.18v1a3.86,3.86,0,0,1-.09.94,1.48,1.48,0,0,1-.33.6,2.11,2.11,0,0,1-1.19.57v.64a12.24,12.24,0,0,1-.1,1.8,2.13,2.13,0,0,1-.38.88,2.25,2.25,0,0,1-1.92.79,2.36,2.36,0,0,1-2.06-.84,1.94,1.94,0,0,1-.35-.78,8.94,8.94,0,0,1-.13-1.8V12H169v3.83A8.73,8.73,0,0,0,169,17a1.08,1.08,0,0,0,1.21,1c.66,0,1-.28,1.12-.86a8.28,8.28,0,0,0,.06-1.2V12h1.25v2.53a1.3,1.3,0,0,0,.85-.51,1.29,1.29,0,0,0,.15-.66h-.57Zm-3.67-.4.59-1.44h1.33l-1.16,1.44Z"/><path class="cls-1" d="M174.92,19.06V12h1.22l2.53,4.72V12h1.16v7.07h-1.25l-2.5-4.61v4.61Z"/><path class="cls-1" d="M184,16.46V15.27h2.69v2.82a3.33,3.33,0,0,1-1.13.76,3.71,3.71,0,0,1-1.51.33,3.09,3.09,0,0,1-1.7-.46,2.86,2.86,0,0,1-1.08-1.33,4.89,4.89,0,0,1-.36-1.89,4.55,4.55,0,0,1,.4-2,3,3,0,0,1,1.19-1.32,2.89,2.89,0,0,1,1.48-.35,2.67,2.67,0,0,1,1.8.56,2.5,2.5,0,0,1,.83,1.52l-1.24.27a1.58,1.58,0,0,0-.49-.83,1.36,1.36,0,0,0-.9-.3,1.57,1.57,0,0,0-1.3.6,2.68,2.68,0,0,0-.49,1.76,3.06,3.06,0,0,0,.49,1.88A1.56,1.56,0,0,0,184,18a2,2,0,0,0,.78-.17,2.55,2.55,0,0,0,.68-.43v-.9Z"/><path class="cls-1" d="M190.29,19.06V12h1.25v3.14L194.06,12h1.68l-2.33,2.76,2.46,4.31h-1.62l-1.7-3.31-1,1.18v2.13Z"/><path class="cls-1" d="M196.52,19.06V12h1.25v2.79h2.45V12h1.25v7.07h-1.25V16h-2.45v3.09Z"/><path class="cls-1" d="M202.5,15.57a5,5,0,0,1,.29-1.81,3.49,3.49,0,0,1,.57-1,2.48,2.48,0,0,1,.8-.64,3.14,3.14,0,0,1,1.34-.28,2.72,2.72,0,0,1,2.18,1,4.05,4.05,0,0,1,.82,2.7,4.06,4.06,0,0,1-.81,2.68,3,3,0,0,1-4.37,0A4,4,0,0,1,202.5,15.57Zm1.29-.05a2.86,2.86,0,0,0,.49,1.82,1.53,1.53,0,0,0,2.45,0,3,3,0,0,0,.48-1.85,2.93,2.93,0,0,0-.46-1.81,1.5,1.5,0,0,0-1.24-.6,1.53,1.53,0,0,0-1.25.61A3,3,0,0,0,203.79,15.52Z"/><path class="cls-1" d="M215.06,19.06H213.7l-.54-1.6h-2.47l-.51,1.6h-1.33L211.26,12h1.32Zm-2.3-2.79-.85-2.63-.84,2.63Zm-1.57-4.68.58-1.44h1.33l-1.16,1.44Z"/><path class="cls-1" d="M215.73,19.06V12H217l2.53,4.72V12h1.16v7.07h-1.25l-2.5-4.61v4.61Z"/><path class="cls-1" d="M225.94,19.06,223.73,12h1.35l1.57,5.24L228.16,12h1.33l-2.22,7.07Z"/><path class="cls-1" d="M230.09,19.06V12h1.25v7.07Z"/><path class="cls-1" d="M232.53,19.06V12h4.58v1.2h-3.33v1.57h3.1V16h-3.1v1.92h3.45v1.19ZM235,11.4l-.46.35h-.84l.92-.62h.75l.92.62h-.83Zm-.57,9.6V19.64h1.19V21Z"/><path class="cls-1" d="M239.68,19.06V13.19h-1.83V12h4.91v1.2h-1.83v5.87Z"/><path class="cls-1" d="M246,19.06V12h1.22l2.53,4.72V12h1.16v7.07h-1.25l-2.5-4.61v4.61Z"/><path class="cls-1" d="M257.79,19.06h-1.36l-.54-1.6h-2.47l-.51,1.6h-1.33L254,12h1.32Zm-2.3-2.79-.85-2.63-.84,2.63Z"/><path class="cls-1" d="M258.44,19.06V12h1.87l1.12,4.83L262.54,12h1.87v7.07h-1.16V13.5L262,19.06h-1.2L259.6,13.5v5.56Z"/><path class="cls-1" d="M67.56,34.43l-2.21-7.07H66.7l1.57,5.24,1.51-5.24h1.33l-2.22,7.07Z"/><path class="cls-1" d="M71.71,34.43V27.36H73v7.07Z"/><path class="cls-1" d="M74.15,34.43V27.36h4.58v1.2H75.4v1.57h3.1v1.19H75.4v1.92h3.45v1.19Z"/><path class="cls-1" d="M81.3,34.43V28.56H79.47v-1.2h4.91v1.2H82.55v5.87Z"/><path class="cls-1" d="M85.2,34.43V27.36h1.22L89,32.09V27.36h1.16v7.07H88.86l-2.5-4.61v4.61Z"/><path class="cls-1" d="M97,34.43H95.65l-.54-1.6H92.64l-.51,1.6H90.8l2.41-7.07h1.32Zm-2.3-2.79L93.86,29,93,31.64Z"/><path class="cls-1" d="M97.65,34.43V27.36h1.87l1.13,4.83,1.11-4.83h1.87v7.07h-1.16V28.87l-1.23,5.56H100l-1.22-5.56v5.56Z"/><path class="cls-1" d="M107,32.13l1.22-.13a1.79,1.79,0,0,0,.44,1,1.29,1.29,0,0,0,.91.32,1.25,1.25,0,0,0,.91-.29.92.92,0,0,0,.31-.68.75.75,0,0,0-.13-.43,1.07,1.07,0,0,0-.45-.3c-.15-.06-.48-.16-1-.31a3.17,3.17,0,0,1-1.41-.7,2,2,0,0,1-.57-1.42,2,2,0,0,1,.27-1,1.63,1.63,0,0,1,.77-.72,2.79,2.79,0,0,1,1.22-.25,2.39,2.39,0,0,1,1.75.59,2.21,2.21,0,0,1,.62,1.56l-1.25.06a1.3,1.3,0,0,0-.35-.79,1.18,1.18,0,0,0-.79-.23,1.3,1.3,0,0,0-.85.25.58.58,0,0,0,0,.87,3,3,0,0,0,1.15.47,5.62,5.62,0,0,1,1.34.51,1.91,1.91,0,0,1,.69.72,2.39,2.39,0,0,1,.24,1.13,2.24,2.24,0,0,1-.29,1.13,1.83,1.83,0,0,1-.84.79,3.14,3.14,0,0,1-1.34.26,2.46,2.46,0,0,1-1.8-.62A2.91,2.91,0,0,1,107,32.13Z"/><path class="cls-1" d="M113,34.43V27.36h4.58v1.2h-3.34v1.57h3.11v1.19h-3.11v1.92h3.46v1.19Z"/><path class="cls-1" d="M122.76,31.84l1.21.43A3.19,3.19,0,0,1,123,34a2.38,2.38,0,0,1-1.64.56,2.52,2.52,0,0,1-2-1,4,4,0,0,1-.79-2.63,4.24,4.24,0,0,1,.8-2.74,2.57,2.57,0,0,1,2.09-1,2.41,2.41,0,0,1,1.85.77,2.93,2.93,0,0,1,.63,1.3l-1.24.34a1.52,1.52,0,0,0-.45-.87,1.23,1.23,0,0,0-.85-.32,1.31,1.31,0,0,0-1.11.57,3,3,0,0,0-.43,1.83,3.31,3.31,0,0,0,.42,1.91,1.32,1.32,0,0,0,1.1.56,1.16,1.16,0,0,0,.85-.36A2.25,2.25,0,0,0,122.76,31.84Z"/><path class="cls-1" d="M125,27.36h1.25v3.83a9.25,9.25,0,0,0,0,1.19,1.16,1.16,0,0,0,.38.69,1.45,1.45,0,0,0,1.63,0,1,1,0,0,0,.32-.61,8.37,8.37,0,0,0,.06-1.2V27.36H130v3.72a10.65,10.65,0,0,1-.1,1.8,2,2,0,0,1-.37.88,1.77,1.77,0,0,1-.73.58,2.85,2.85,0,0,1-1.19.21,3,3,0,0,1-1.34-.23,2,2,0,0,1-.73-.61,2.26,2.26,0,0,1-.35-.78,10,10,0,0,1-.12-1.79Z"/><path class="cls-1" d="M131.29,34.43V27.36h2.62a4.16,4.16,0,0,1,1.45.19,1.55,1.55,0,0,1,.71.68,2.19,2.19,0,0,1,.27,1.12,2.07,2.07,0,0,1-.4,1.31,1.9,1.9,0,0,1-1.23.65,3,3,0,0,1,.67.6,8,8,0,0,1,.71,1.14l.76,1.38h-1.5l-.9-1.53a9.2,9.2,0,0,0-.66-1,1,1,0,0,0-.37-.3,2,2,0,0,0-.63-.08h-.26v2.95Zm1.24-4.08h.93a4.19,4.19,0,0,0,1.12-.08.69.69,0,0,0,.35-.3,1,1,0,0,0,.13-.53,1,1,0,0,0-.17-.58.78.78,0,0,0-.47-.28c-.1,0-.4,0-.91,0h-1Z"/><path class="cls-1" d="M137.48,34.43V27.36h1.25v7.07Z"/><path class="cls-1" d="M141.32,34.43V28.56h-1.84v-1.2h4.92v1.2h-1.83v5.87Z"/><path class="cls-1" d="M145.16,34.43V27.36h1.25v7.07Z"/><path class="cls-1" d="M147.6,34.43V27.36h4.59v1.2h-3.34v1.57H152v1.19h-3.11v1.92h3.46v1.19Z"/><path class="cls-1" d="M153.05,32.13l1.22-.13a1.79,1.79,0,0,0,.44,1,1.28,1.28,0,0,0,.91.32,1.26,1.26,0,0,0,.91-.29.91.91,0,0,0,.3-.68.69.69,0,0,0-.13-.43,1,1,0,0,0-.45-.3c-.14-.06-.48-.16-1-.31a3.17,3.17,0,0,1-1.41-.7,2,2,0,0,1-.57-1.42,2,2,0,0,1,.27-1,1.73,1.73,0,0,1,.77-.72,2.85,2.85,0,0,1,1.22-.25,2.41,2.41,0,0,1,1.76.59,2.21,2.21,0,0,1,.61,1.56l-1.25.06a1.24,1.24,0,0,0-.34-.79,1.2,1.2,0,0,0-.79-.23,1.29,1.29,0,0,0-.85.25.53.53,0,0,0-.2.44.58.58,0,0,0,.18.43,3,3,0,0,0,1.15.47,5.56,5.56,0,0,1,1.35.51,1.81,1.81,0,0,1,.68.72,2.28,2.28,0,0,1,.25,1.13,2.35,2.35,0,0,1-.29,1.13,1.83,1.83,0,0,1-.84.79,3.15,3.15,0,0,1-1.35.26,2.47,2.47,0,0,1-1.8-.62A2.85,2.85,0,0,1,153.05,32.13Z"/><path class="cls-1" d="M161.53,27.36h2.28a3.9,3.9,0,0,1,1.18.14,2.05,2.05,0,0,1,.93.65,3.05,3.05,0,0,1,.59,1.15,5.69,5.69,0,0,1,.2,1.67,5.11,5.11,0,0,1-.19,1.5,3.1,3.1,0,0,1-.66,1.25,2.06,2.06,0,0,1-.88.56,3.27,3.27,0,0,1-1.1.15h-2.35Zm1.25,1.2v4.68h.93a3.26,3.26,0,0,0,.75-.06,1.08,1.08,0,0,0,.51-.3,1.65,1.65,0,0,0,.33-.68,5.56,5.56,0,0,0,.12-1.3,5,5,0,0,0-.12-1.25,1.72,1.72,0,0,0-.36-.69,1.15,1.15,0,0,0-.58-.33,4.49,4.49,0,0,0-1-.07Z"/><path class="cls-1" d="M167.77,34.43V27.36h4.59v1.2H169v1.57h3.11v1.19H169v1.92h3.46v1.19Z"/><path class="cls-1" d="M173.54,34.43V27.36h2a6.39,6.39,0,0,1,1.49.11,1.69,1.69,0,0,1,.89.69,2.44,2.44,0,0,1,.36,1.38,2.52,2.52,0,0,1-.21,1.09,1.83,1.83,0,0,1-.53.7,1.73,1.73,0,0,1-.64.34,6.89,6.89,0,0,1-1.3.1h-.81v2.66Zm1.25-5.87v2h.68a3,3,0,0,0,1-.11.94.94,0,0,0,.39-.35,1.1,1.1,0,0,0,.14-.55,1,1,0,0,0-.2-.64.86.86,0,0,0-.5-.31,5.47,5.47,0,0,0-.9-.05Z"/><path class="cls-1" d="M179.05,30.94a5,5,0,0,1,.28-1.81,3.29,3.29,0,0,1,.58-1,2.38,2.38,0,0,1,.8-.64,3.1,3.1,0,0,1,1.33-.28,2.75,2.75,0,0,1,2.19,1,4.05,4.05,0,0,1,.82,2.7,4,4,0,0,1-.82,2.68,2.69,2.69,0,0,1-2.17,1,2.75,2.75,0,0,1-2.2-1A4,4,0,0,1,179.05,30.94Zm1.29-.05a3,3,0,0,0,.48,1.83,1.55,1.55,0,0,0,2.46,0,3,3,0,0,0,.48-1.84,2.94,2.94,0,0,0-.47-1.82,1.49,1.49,0,0,0-1.24-.6,1.51,1.51,0,0,0-1.24.61A2.89,2.89,0,0,0,180.34,30.89Z"/><path class="cls-1" d="M185.71,32.13l1.21-.13a1.8,1.8,0,0,0,.45,1,1.5,1.5,0,0,0,1.81,0,.89.89,0,0,0,.31-.68.75.75,0,0,0-.13-.43,1.07,1.07,0,0,0-.45-.3c-.15-.06-.48-.16-1-.31a3.17,3.17,0,0,1-1.41-.7,2,2,0,0,1-.57-1.42,2,2,0,0,1,.27-1,1.68,1.68,0,0,1,.77-.72,2.82,2.82,0,0,1,1.22-.25,2.39,2.39,0,0,1,1.75.59,2.21,2.21,0,0,1,.62,1.56l-1.25.06a1.29,1.29,0,0,0-.34-.79,1.2,1.2,0,0,0-.79-.23,1.32,1.32,0,0,0-.86.25.56.56,0,0,0-.2.44.59.59,0,0,0,.19.43,3,3,0,0,0,1.15.47,5.56,5.56,0,0,1,1.35.51,1.81,1.81,0,0,1,.68.72,2.39,2.39,0,0,1,.25,1.13,2.25,2.25,0,0,1-.3,1.13,1.81,1.81,0,0,1-.83.79,3.15,3.15,0,0,1-1.35.26,2.47,2.47,0,0,1-1.8-.62A2.85,2.85,0,0,1,185.71,32.13Z"/><path class="cls-1" d="M193.18,34.43V28.56h-1.84v-1.2h4.92v1.2h-1.83v5.87Z"/><path class="cls-1" d="M197,34.43V27.36h1.25v7.07Z"/><path class="cls-1" d="M199.47,34.43V27.36h2.63a4.14,4.14,0,0,1,1.44.19,1.52,1.52,0,0,1,.72.68,2.29,2.29,0,0,1,.27,1.12,2.07,2.07,0,0,1-.41,1.31,1.85,1.85,0,0,1-1.22.65,3,3,0,0,1,.67.6,9,9,0,0,1,.71,1.14l.75,1.38h-1.49l-.9-1.53a9.2,9.2,0,0,0-.66-1,1,1,0,0,0-.38-.3,1.88,1.88,0,0,0-.63-.08h-.25v2.95Zm1.25-4.08h.92a4.28,4.28,0,0,0,1.13-.08.73.73,0,0,0,.35-.3,1.07,1.07,0,0,0,.12-.53,1,1,0,0,0-.16-.58.78.78,0,0,0-.47-.28c-.1,0-.41,0-.91,0h-1Z"/><path class="cls-1" d="M207,34.43v-3l-2.26-4.1h1.46l1.46,2.8,1.42-2.8h1.44l-2.27,4.11v3Z"/></svg>