<svg width="56" height="56" viewBox="0 0 56 56" fill="none" xmlns="http://www.w3.org/2000/svg">
<path d="M43.3 20.8L41.9 18.9L41 21.1C40.2 23 39.8 27.5 38.3 27.4C36.3 27.3 35.8 25.9 35 21.8C34.2 17.9 33.1 9.8 28.7 6.5L27.9 6L27.1 6.6C22.7 9.9 21.7 14.7 20.9 18.6C20.1 22.7 19.6 24.2 17.6 24.2C16.6 24.2 15.5 23 14.8 21.1L13.9 18.9L12.5 20.8C9.89998 24.5 8.59998 26.7 8.59998 30.6C8.59998 35.6 10.7 40.8 14.3 44.5C17.8 48 22.5 49.9 27.8 49.9H28C33.3 49.9 38 48 41.5 44.5C45.2 40.8 47.3 35.7 47.3 30.6C47.2 26.5 45.8 24.3 43.3 20.8ZM39.7 42.7C36.7 45.7 32.6 47.4 28 47.4H27.9C23.3 47.4 19.3 45.8 16.2 42.7C13.1 39.6 11.2 35.1 11.2 30.7C11.2 28 11.8 26.5 13.4 24.1C14.5 25.9 16 26.8 17.6 26.8C19.6 26.8 21 25.9 22 24.2C22.7 22.8 23.1 21 23.5 19.1C24.2 15.7 24.9 11.9 27.9 9.3C30.9 12 31.8 19 32.5 22.4C32.9 24.3 33.3 26.1 34 27.4C34.9 29.1 36.4 30 38.4 30C40 30 41.5 29.3 42.5 24.1C44.1 26.5 44.7 28.1 44.7 30.7C44.7 35 42.8 39.5 39.7 42.7Z" fill="#777777" stroke="#777777" stroke-width="0.5"/>
<path d="M28 54C42.3594 54 54 42.3594 54 28C54 13.6406 42.3594 2 28 2C13.6406 2 2 13.6406 2 28C2 42.3594 13.6406 54 28 54Z" stroke="#777777" stroke-width="3" stroke-miterlimit="10"/>
<path d="M47 10L10 47" stroke="#777777" stroke-width="3" stroke-miterlimit="10"/>
</svg>
