<svg width="18" height="20" viewBox="0 0 18 20" fill="none" xmlns="http://www.w3.org/2000/svg">
<path d="M9 10.8425C3.18898 10.8425 0 13.6063 0 18.5669C0 18.9213 0.283465 19.2756 0.708661 19.2756H17.2913C17.6457 19.2756 18 18.9921 18 18.5669C18 13.6063 14.811 10.8425 9 10.8425ZM1.41732 17.8583C1.70079 14.1024 4.25197 12.2599 9 12.2599C13.748 12.2599 16.2992 14.1732 16.5827 17.8583H1.41732Z" fill="#547588"/>
<path d="M9.00041 0C6.30749 0 4.32324 2.05512 4.32324 4.74803C4.32324 7.51181 6.44923 9.77953 9.00041 9.77953C11.5516 9.77953 13.6776 7.51181 13.6776 4.74803C13.6776 2.05512 11.6225 0 9.00041 0ZM9.00041 8.43307C7.22875 8.43307 5.74057 6.80315 5.74057 4.74803C5.74057 2.83465 7.08702 1.41732 9.00041 1.41732C10.8429 1.41732 12.2602 2.83465 12.2602 4.74803C12.2602 6.80315 10.7721 8.43307 9.00041 8.43307Z" fill="#547588"/>
</svg>
