<svg width="26" height="26" viewBox="0 0 26 26" fill="none" xmlns="http://www.w3.org/2000/svg">
<path d="M21.158 7.02832H16.8415V9.58977H21.158C22.4421 9.58977 23.4381 10.2451 23.4381 10.8094V22.1682C23.4381 22.7321 22.4421 23.3883 21.158 23.3883H4.84114C3.55743 23.3883 2.56145 22.7321 2.56145 22.1682V10.8107C2.56145 10.2464 3.55743 9.59062 4.84114 9.59062H9.15718V7.02917H4.84114C2.12643 7.02917 0 8.69027 0 10.8107V22.1686C0 24.2895 2.12643 25.9498 4.84114 25.9498H21.1589C23.8727 25.9498 26 24.2887 26 22.1686V10.8107C25.9996 8.68942 23.8731 7.02832 21.158 7.02832Z" fill="#255888"/>
<path d="M16.8753 12.3819C16.5474 12.3819 16.22 12.5074 15.9698 12.7576L14.3664 14.3606V8.79929V6.23784V1.33053C14.3664 0.62357 13.793 0.0498047 13.0856 0.0498047C12.3783 0.0498047 11.8049 0.62357 11.8049 1.33053V6.23741V8.79886V14.4469L10.1148 12.7572C9.86462 12.507 9.53675 12.3815 9.20931 12.3815C8.88188 12.3815 8.55401 12.507 8.30384 12.7572C7.8035 13.2566 7.8035 14.0678 8.30384 14.5677L12.1277 18.3915C12.3778 18.6417 12.7057 18.7659 13.0327 18.7659C13.0361 18.7659 13.0395 18.7659 13.0425 18.7659C13.0455 18.7659 13.0489 18.7659 13.0519 18.7659C13.3798 18.7659 13.7068 18.6417 13.957 18.3915L17.7808 14.5677C18.2811 14.0678 18.2811 13.2566 17.7808 12.7572C17.5306 12.5074 17.2036 12.3819 16.8753 12.3819Z" fill="#255888"/>
</svg>
