<svg width="44" height="50" viewBox="0 0 44 50" fill="none" xmlns="http://www.w3.org/2000/svg">
<path d="M39.1855 17.3337L37.6404 15.2368L36.7575 17.5544C35.8746 19.6513 35.4332 24.6176 33.7777 24.5073C31.5705 24.3969 31.0187 22.8518 30.1358 18.3269C29.2528 14.0228 28.0389 5.08342 23.1829 1.44145L22.1896 1L21.3067 1.66218C16.4508 5.30415 15.3472 10.6016 14.4642 14.9057C13.5813 19.4306 13.0295 21.086 10.8223 21.086C9.71865 21.086 8.50466 19.7617 7.73212 17.6648L6.73886 15.2368L5.19378 17.3337C2.32435 21.3067 1 23.7347 1 28.1492C1 33.6674 3.31762 39.4062 7.29067 43.4896C11.1534 47.3523 16.3404 49.4492 22.1896 49.4492H22.3C28.1492 49.4492 33.3363 47.3523 37.199 43.4896C41.2824 39.4062 43.6 33.7777 43.6 28.1492C43.4896 23.6244 41.9446 21.1964 39.1855 17.3337ZM35.2124 41.3927C31.9016 44.7036 27.3767 46.5798 22.3 46.5798H22.1896C17.113 46.5798 12.6984 44.814 9.2772 41.3927C5.85596 37.9715 3.75907 33.0052 3.75907 28.1492C3.75907 25.1694 4.42124 23.514 6.18705 20.8653C7.40104 22.8518 9.05648 23.8451 10.8223 23.8451C13.0295 23.8451 14.5746 22.8518 15.6782 20.9756C16.4508 19.4306 16.8922 17.444 17.3337 15.3472C18.1062 11.5948 18.8788 7.40104 22.1896 4.53161C25.5005 7.5114 26.4938 15.2368 27.2663 18.9891C27.7078 21.086 28.1492 23.0725 28.9218 24.5073C29.915 26.3834 31.5705 27.3767 33.7777 27.3767C35.5435 27.3767 37.199 26.6041 38.3026 20.8653C40.0684 23.514 40.7306 25.2798 40.7306 28.1492C40.7306 33.0052 38.6337 37.9715 35.2124 41.3927Z" fill="white" stroke="white" stroke-width="0.5"/>
</svg>
