<svg width="24" height="24" viewBox="0 0 24 24" fill="none" xmlns="http://www.w3.org/2000/svg">
<path d="M18.0938 10.7483C18.6115 10.7483 19.0312 10.3298 19.0312 9.8136C19.0312 9.29738 18.6115 8.87891 18.0938 8.87891C17.576 8.87891 17.1562 9.29738 17.1562 9.8136C17.1562 10.3298 17.576 10.7483 18.0938 10.7483Z" fill="#7A7A7A"/>
<path d="M20.25 1.86928H19.0312V0.934641C19.0312 0.418439 18.6115 0 18.0938 0C17.576 0 17.1562 0.418439 17.1562 0.934641V1.86928H12.8906V0.934641C12.8906 0.418439 12.4709 0 11.9531 0C11.4353 0 11.0156 0.418439 11.0156 0.934641V1.86928H6.79688V0.934641C6.79688 0.418439 6.37716 0 5.85938 0C5.34159 0 4.92188 0.418439 4.92188 0.934641V1.86928H3.75C1.68225 1.86928 0 3.5464 0 5.60785V20.1883C0 22.2497 1.68225 23.9268 3.75 23.9268H10.9219C11.4397 23.9268 11.8594 23.5084 11.8594 22.9922C11.8594 22.476 11.4397 22.0575 10.9219 22.0575H3.75C2.71613 22.0575 1.875 21.219 1.875 20.1883V5.60785C1.875 4.57713 2.71613 3.73857 3.75 3.73857H4.92188V4.67321C4.92188 5.18941 5.34159 5.60785 5.85938 5.60785C6.37716 5.60785 6.79688 5.18941 6.79688 4.67321V3.73857H11.0156V4.67321C11.0156 5.18941 11.4353 5.60785 11.9531 5.60785C12.4709 5.60785 12.8906 5.18941 12.8906 4.67321V3.73857H17.1562V4.67321C17.1562 5.18941 17.576 5.60785 18.0938 5.60785C18.6115 5.60785 19.0312 5.18941 19.0312 4.67321V3.73857H20.25C21.2839 3.73857 22.125 4.57713 22.125 5.60785V10.9353C22.125 11.4515 22.5447 11.8699 23.0625 11.8699C23.5803 11.8699 24 11.4515 24 10.9353V5.60785C24 3.5464 22.3177 1.86928 20.25 1.86928Z" fill="#7A7A7A"/>
<path d="M18.3281 12.6177C15.2006 12.6177 12.6562 15.1543 12.6562 18.2723C12.6562 21.3903 15.2006 23.9269 18.3281 23.9269C21.4556 23.9269 24 21.3903 24 18.2723C24 15.1543 21.4556 12.6177 18.3281 12.6177ZM18.3281 22.0576C16.2345 22.0576 14.5312 20.3595 14.5312 18.2723C14.5312 16.185 16.2345 14.487 18.3281 14.487C20.4217 14.487 22.125 16.185 22.125 18.2723C22.125 20.3595 20.4217 22.0576 18.3281 22.0576Z" fill="#7A7A7A"/>
<path d="M19.6875 17.3374H19.2656V16.356C19.2656 15.8398 18.8459 15.4214 18.3281 15.4214C17.8103 15.4214 17.3906 15.8398 17.3906 16.356V18.2721C17.3906 18.7883 17.8103 19.2067 18.3281 19.2067H19.6875C20.2053 19.2067 20.625 18.7883 20.625 18.2721C20.625 17.7559 20.2053 17.3374 19.6875 17.3374Z" fill="#7A7A7A"/>
<path d="M14.0156 10.7483C14.5334 10.7483 14.9531 10.3298 14.9531 9.8136C14.9531 9.29738 14.5334 8.87891 14.0156 8.87891C13.4979 8.87891 13.0781 9.29738 13.0781 9.8136C13.0781 10.3298 13.4979 10.7483 14.0156 10.7483Z" fill="#7A7A7A"/>
<path d="M9.9375 14.8141C10.4553 14.8141 10.875 14.3956 10.875 13.8795C10.875 13.3633 10.4553 12.9448 9.9375 12.9448C9.41973 12.9448 9 13.3633 9 13.8795C9 14.3956 9.41973 14.8141 9.9375 14.8141Z" fill="#7A7A7A"/>
<path d="M5.85938 10.7483C6.37714 10.7483 6.79688 10.3298 6.79688 9.8136C6.79688 9.29738 6.37714 8.87891 5.85938 8.87891C5.34161 8.87891 4.92188 9.29738 4.92188 9.8136C4.92188 10.3298 5.34161 10.7483 5.85938 10.7483Z" fill="#7A7A7A"/>
<path d="M5.85938 14.8141C6.37714 14.8141 6.79688 14.3956 6.79688 13.8795C6.79688 13.3633 6.37714 12.9448 5.85938 12.9448C5.34161 12.9448 4.92188 13.3633 4.92188 13.8795C4.92188 14.3956 5.34161 14.8141 5.85938 14.8141Z" fill="#7A7A7A"/>
<path d="M5.85938 18.8795C6.37714 18.8795 6.79688 18.4611 6.79688 17.9449C6.79688 17.4287 6.37714 17.0103 5.85938 17.0103C5.34161 17.0103 4.92188 17.4287 4.92188 17.9449C4.92188 18.4611 5.34161 18.8795 5.85938 18.8795Z" fill="#7A7A7A"/>
<path d="M9.9375 18.8795C10.4553 18.8795 10.875 18.4611 10.875 17.9449C10.875 17.4287 10.4553 17.0103 9.9375 17.0103C9.41973 17.0103 9 17.4287 9 17.9449C9 18.4611 9.41973 18.8795 9.9375 18.8795Z" fill="#7A7A7A"/>
<path d="M9.9375 10.7483C10.4553 10.7483 10.875 10.3298 10.875 9.8136C10.875 9.29738 10.4553 8.87891 9.9375 8.87891C9.41973 8.87891 9 9.29738 9 9.8136C9 10.3298 9.41973 10.7483 9.9375 10.7483Z" fill="#7A7A7A"/>
</svg>
