<svg width="22" height="20" viewBox="0 0 22 20" fill="none" xmlns="http://www.w3.org/2000/svg">
<path d="M20.6658 17.3335H11.3328C10.9649 17.3335 10.6662 17.0348 10.6662 16.6668C10.6662 16.2988 10.6662 3.70207 10.6662 3.33409C10.6662 2.9661 10.9649 2.66745 11.3328 2.66745H20.6658C21.0337 2.66745 21.3324 2.9661 21.3324 3.33409V16.6668C21.3324 17.0348 21.0337 17.3335 20.6658 17.3335Z" fill="#ECEFF1"/>
<path d="M13.9993 6.66726H11.3328C10.9648 6.66726 10.6661 6.3686 10.6661 6.00062C10.6661 5.63264 10.9648 5.33398 11.3328 5.33398H13.9993C14.3673 5.33398 14.666 5.63264 14.666 6.00062C14.666 6.3686 14.3673 6.66726 13.9993 6.66726Z" fill="#388E3C"/>
<path d="M13.9993 9.33382H11.3328C10.9648 9.33382 10.6661 9.03517 10.6661 8.66719C10.6661 8.2992 10.9648 8.00055 11.3328 8.00055H13.9993C14.3673 8.00055 14.666 8.2992 14.666 8.66719C14.666 9.03517 14.3673 9.33382 13.9993 9.33382Z" fill="#388E3C"/>
<path d="M13.9993 12.0004H11.3328C10.9648 12.0004 10.6661 11.7017 10.6661 11.3338C10.6661 10.9658 10.9648 10.6671 11.3328 10.6671H13.9993C14.3673 10.6671 14.666 10.9658 14.666 11.3338C14.666 11.7017 14.3673 12.0004 13.9993 12.0004Z" fill="#388E3C"/>
<path d="M13.9993 14.6669H11.3328C10.9648 14.6669 10.6661 14.3682 10.6661 14.0003C10.6661 13.6323 10.9648 13.3336 11.3328 13.3336H13.9993C14.3673 13.3336 14.666 13.6323 14.666 14.0003C14.666 14.3682 14.3673 14.6669 13.9993 14.6669Z" fill="#388E3C"/>
<path d="M17.9992 6.66726H16.6659C16.2979 6.66726 15.9993 6.3686 15.9993 6.00062C15.9993 5.63264 16.2979 5.33398 16.6659 5.33398H17.9992C18.3672 5.33398 18.6658 5.63264 18.6658 6.00062C18.6658 6.3686 18.3672 6.66726 17.9992 6.66726Z" fill="#388E3C"/>
<path d="M17.9992 9.33382H16.6659C16.2979 9.33382 15.9993 9.03517 15.9993 8.66719C15.9993 8.2992 16.2979 8.00055 16.6659 8.00055H17.9992C18.3672 8.00055 18.6658 8.2992 18.6658 8.66719C18.6658 9.03517 18.3672 9.33382 17.9992 9.33382Z" fill="#388E3C"/>
<path d="M17.9992 12.0004H16.6659C16.2979 12.0004 15.9993 11.7017 15.9993 11.3338C15.9993 10.9658 16.2979 10.6671 16.6659 10.6671H17.9992C18.3672 10.6671 18.6658 10.9658 18.6658 11.3338C18.6658 11.7017 18.3672 12.0004 17.9992 12.0004Z" fill="#388E3C"/>
<path d="M17.9992 14.6669H16.6659C16.2979 14.6669 15.9993 14.3682 15.9993 14.0003C15.9993 13.6323 16.2979 13.3336 16.6659 13.3336H17.9992C18.3672 13.3336 18.6658 13.6323 18.6658 14.0003C18.6658 14.3682 18.3672 14.6669 17.9992 14.6669Z" fill="#388E3C"/>
<path d="M11.7581 0.154225C11.6061 0.0275638 11.4022 -0.0271004 11.2102 0.0128978L0.543976 2.01281C0.22799 2.07147 0 2.34613 0 2.66745V17.3335C0 17.6534 0.22799 17.9294 0.543976 17.9881L11.2102 19.988C11.2502 19.996 11.2915 20 11.3328 20C11.4875 20 11.6381 19.9467 11.7581 19.8467C11.9115 19.72 11.9995 19.5307 11.9995 19.3334V0.667535C11.9995 0.468877 11.9115 0.280886 11.7581 0.154225Z" fill="#2E7D32"/>
<path d="M9.16761 12.2284L7.0597 9.81913L9.19161 7.07792C9.41827 6.78727 9.36493 6.36862 9.07561 6.14196C8.78629 5.9153 8.36765 5.96864 8.13966 6.25796L6.16508 8.79651L4.50115 6.89526C4.25716 6.61527 3.83585 6.58994 3.56119 6.8326C3.28387 7.07525 3.25588 7.49657 3.49853 7.77255L5.33178 9.86846L3.4732 12.2577C3.24654 12.5483 3.29987 12.967 3.58919 13.1936C3.71185 13.2883 3.85718 13.3336 3.99984 13.3336C4.1985 13.3336 4.39449 13.2456 4.52648 13.0763L6.22641 10.8897L8.16499 13.1043C8.29698 13.2563 8.48097 13.3336 8.6663 13.3336C8.82229 13.3336 8.97828 13.279 9.10495 13.1683C9.38227 12.9257 9.41027 12.5043 9.16761 12.2284Z" fill="#FAFAFA"/>
</svg>
