<svg width="18" height="20" viewBox="0 0 18 20" fill="255888" xmlns="http://www.w3.org/2000/svg">
<path d="M18 3.71429V4.57143C18 4.71429 18 4.85714 17.8571 4.85714C17.7143 5 17.7143 5 17.5714 5H16.2857V17.1429C16.2857 17.8571 16.1429 18.4286 15.7143 19C15.2857 19.5714 14.8571 19.7143 14.2857 19.7143H3.71429C3.14286 19.7143 2.71429 19.4286 2.28571 19C1.85714 18.5714 1.71429 17.8571 1.71429 17.1429V4.85714H0.428571C0.285714 4.85714 0.142857 4.85714 0.142857 4.71429C0 4.71429 0 4.57143 0 4.42857V3.71429C0 3.57143 0 3.42857 0.142857 3.42857C0.285714 3.28571 0.285714 3.28571 0.428571 3.28571H4.28571L5.14286 1.14286C5.28571 0.857143 5.42857 0.571429 5.85714 0.285714C6.28571 0.142857 6.57143 0 7 0H11.1429C11.4286 0 11.7143 0.142857 12 0.285714C12.2857 0.428571 12.5714 0.714286 12.7143 1.14286L13.5714 3.28571H17.5714C17.7143 3.28571 17.8571 3.28571 17.8571 3.42857C18 3.42857 18 3.57143 18 3.71429ZM14.7143 4.85714H3.28571V17C3.28571 17.1429 3.28571 17.2857 3.42857 17.5714C3.42857 17.7143 3.57143 17.8571 3.57143 18C3.57143 18.1429 3.71429 18.1429 3.71429 18.1429H14.2857C14.4286 18 14.5714 17.8571 14.5714 17.7143C14.5714 17.5714 14.7143 17.4286 14.7143 17.1429V4.85714ZM5 15.4286C4.85714 15.2857 4.85714 15.2857 4.85714 15.1429V7.71429C4.85714 7.57143 4.85714 7.42857 5 7.42857C5.14286 7.28571 5.14286 7.28571 5.28571 7.28571H6.14286C6.28571 7.28571 6.42857 7.28571 6.42857 7.42857C6.57143 7.57143 6.57143 7.57143 6.57143 7.71429V15.1429C6.57143 15.2857 6.57143 15.4286 6.42857 15.4286C6.28571 15.5714 6.28571 15.5714 6.14286 15.5714H5.28571C5.14286 15.5714 5.14286 15.5714 5 15.4286ZM6.14286 3.28571H11.8571L11.2857 1.71429C11.2857 1.71429 11.1429 1.57143 11 1.57143H7C6.85714 1.57143 6.85714 1.71429 6.71428 1.71429L6.14286 3.28571ZM8.28571 15.4286C8.14286 15.2857 8.14286 15.2857 8.14286 15.1429V7.71429C8.14286 7.57143 8.14286 7.42857 8.28571 7.42857C8.42857 7.42857 8.42857 7.28571 8.57143 7.28571H9.42857C9.57143 7.28571 9.71429 7.28571 9.71429 7.42857C9.85714 7.57143 9.85714 7.57143 9.85714 7.71429V15.1429C9.85714 15.2857 9.85714 15.4286 9.71429 15.4286C9.57143 15.5714 9.57143 15.5714 9.42857 15.5714H8.57143C8.42857 15.5714 8.42857 15.5714 8.28571 15.4286ZM11.5714 15.4286C11.5714 15.4286 11.4286 15.2857 11.4286 15.1429V7.71429C11.4286 7.57143 11.4286 7.42857 11.5714 7.42857C11.7143 7.28571 11.7143 7.28571 11.8571 7.28571H12.7143C12.8571 7.28571 13 7.28571 13 7.42857C13.1429 7.57143 13.1429 7.57143 13.1429 7.71429V15.1429C13.1429 15.2857 13.1429 15.4286 13 15.4286C12.8571 15.5714 12.8571 15.5714 12.7143 15.5714H11.8571C11.7143 15.5714 11.7143 15.5714 11.5714 15.4286Z" fill="#ffffff"/>
</svg>
