<svg width="20" height="19" viewBox="0 0 20 19" fill="none" xmlns="http://www.w3.org/2000/svg">
<path d="M5.21455 0.303223V17.0388C5.21455 17.6284 5.07064 18.1808 4.81531 18.6729H17.6792C18.9373 18.6729 20.0004 17.6098 20.0004 16.3518V0.303223H5.21455ZM8.5106 4.32348H14.4156C14.9356 4.32348 15.358 4.74593 15.358 5.26587C15.358 5.78582 14.9356 6.20827 14.4156 6.20827H8.5106C7.99066 6.20827 7.56821 5.78582 7.56821 5.26587C7.56821 4.74593 7.99066 4.32348 8.5106 4.32348ZM14.4156 15.0287H8.5106C7.99066 15.0287 7.56821 14.6062 7.56821 14.0863C7.56821 13.5664 7.99066 13.1439 8.5106 13.1439H14.4156C14.9356 13.1439 15.358 13.5664 15.358 14.0863C15.3534 14.6062 14.9356 15.0287 14.4156 15.0287ZM16.6718 10.7578H8.5106C7.99066 10.7578 7.56821 10.3353 7.56821 9.81536C7.56821 9.29542 7.99066 8.87297 8.5106 8.87297H16.6765C17.1964 8.87297 17.6189 9.29542 17.6189 9.81536C17.6142 10.3353 17.1918 10.7578 16.6718 10.7578Z" fill="#95ABC3"/>
<path d="M3.32855 10.1308V17.0386C3.32855 17.8463 2.74826 18.5195 1.98692 18.6727H1.6666V18.7052C0.747415 18.7005 0 17.9577 0 17.0386V11.7927C0 10.8735 0.747415 10.1308 1.66195 10.1308H3.32855Z" fill="#95ABC3"/>
</svg>
