<svg width="20" height="20" viewBox="0 0 26 25" fill="none" xmlns="http://www.w3.org/2000/svg">
<path d="M14.7031 0C14.3145 0 14 0.314484 14 0.703125V10.5938C14 10.9824 14.3145 11.2969 14.7031 11.2969H24.5469C24.9355 11.2969 25.25 10.9824 25.25 10.5938C25.25 4.77787 20.519 0 14.7031 0Z" fill="white"/>
<path d="M14.7557 23.4235L11.3437 14.2785V4.5625C11.3437 4.17386 11.0293 3.85938 10.6406 3.85938C4.82475 3.85938 0 8.59037 0 14.4062C0 20.2221 4.82475 25 10.6406 25C11.9137 25 13.1599 24.7741 14.3444 24.3291C14.7076 24.1925 14.8917 23.7873 14.7557 23.4235Z" fill="white"/>
<path d="M24.547 13H14.7033C14.4725 13 14.257 13.1133 14.1251 13.3028C13.994 13.4923 13.9638 13.734 14.0448 13.9503L17.5013 23.2147C17.5672 23.3891 17.6991 23.5306 17.8694 23.6075C18.0398 23.685 18.2318 23.6915 18.4077 23.6253C22.5001 22.0852 25.2501 18.0702 25.2501 13.7031C25.2501 13.3145 24.9357 13 24.547 13Z" fill="white"/>
</svg>
