<svg width="16" height="16" viewBox="0 0 16 16" fill="none" xmlns="http://www.w3.org/2000/svg">
<path d="M14.5938 6.59375H12.2188V3.3125C12.2188 2.02016 11.1673 0.96875 9.875 0.96875H4.25C3.99113 0.96875 3.78125 1.17862 3.78125 1.4375V6.59375H1.40625C0.630844 6.59375 0 7.22459 0 8V10.8125C0 11.5879 0.630844 12.2188 1.40625 12.2188H3.78125V14.5625C3.78125 14.8214 3.99113 15.0312 4.25 15.0312H11.75C12.0089 15.0312 12.2188 14.8214 12.2188 14.5625V12.2188H14.5938C15.3692 12.2188 16 11.5879 16 10.8125V8C16 7.22459 15.3692 6.59375 14.5938 6.59375ZM11.2006 2.84375H10.3438V1.98688C10.7426 2.12834 11.0592 2.44488 11.2006 2.84375ZM4.71875 1.90625H9.40625V3.3125C9.40625 3.57137 9.61613 3.78125 9.875 3.78125H11.2812V6.59375H4.71875V1.90625ZM11.2812 14.0938H4.71875V11.2812H11.2812V14.0938ZM15.0625 10.8125C15.0625 11.071 14.8522 11.2812 14.5938 11.2812H12.2188V10.8125C12.2188 10.5536 12.0089 10.3438 11.75 10.3438H4.25C3.99113 10.3438 3.78125 10.5536 3.78125 10.8125V11.2812H1.40625C1.14778 11.2812 0.9375 11.071 0.9375 10.8125V8C0.9375 7.74153 1.14778 7.53125 1.40625 7.53125H14.5938C14.8522 7.53125 15.0625 7.74153 15.0625 8V10.8125Z" fill="#F58A20"/>
<path d="M11.75 9.40625C12.0089 9.40625 12.2188 9.19638 12.2188 8.9375C12.2188 8.67862 12.0089 8.46875 11.75 8.46875C11.4911 8.46875 11.2812 8.67862 11.2812 8.9375C11.2812 9.19638 11.4911 9.40625 11.75 9.40625Z" fill="#F58A20"/>
<path d="M9.875 9.40625C10.1339 9.40625 10.3438 9.19638 10.3438 8.9375C10.3438 8.67862 10.1339 8.46875 9.875 8.46875C9.61612 8.46875 9.40625 8.67862 9.40625 8.9375C9.40625 9.19638 9.61612 9.40625 9.875 9.40625Z" fill="#F58A20"/>
<path d="M9.875 12.2188H6.125C5.86612 12.2188 5.65625 12.4286 5.65625 12.6875C5.65625 12.9464 5.86612 13.1562 6.125 13.1562H9.875C10.1339 13.1562 10.3438 12.9464 10.3438 12.6875C10.3438 12.4286 10.1339 12.2188 9.875 12.2188Z" fill="#F58A20"/>
</svg>
