<svg width="16" height="16" viewBox="0 0 16 16" fill="none" xmlns="http://www.w3.org/2000/svg">
<g opacity="0.65">
<path d="M2.5 7.16667V3.5C2.5 3.36739 2.55268 3.24021 2.64645 3.14645C2.74021 3.05268 2.86739 3 3 3H13C13.1326 3 13.2598 3.05268 13.3536 3.14645C13.4473 3.24021 13.5 3.36739 13.5 3.5V7.16667C13.5 12.4176 9.04338 14.1573 8.15351 14.4523C8.05403 14.4866 7.94597 14.4866 7.84649 14.4523C6.95663 14.1573 2.5 12.4176 2.5 7.16667Z" stroke="#135B80" stroke-width="1.5" stroke-linecap="round" stroke-linejoin="round"/>
<path d="M9.28491 7.64209H10.3162V6.61084" stroke="#135B80" stroke-linecap="round" stroke-linejoin="round"/>
<path d="M6.91309 6.91313C7.08865 6.73757 7.29707 6.5983 7.52645 6.50329C7.75583 6.40828 8.00168 6.35938 8.24996 6.35938C8.49824 6.35938 8.74409 6.40828 8.97347 6.50329C9.20285 6.5983 9.41127 6.73757 9.58683 6.91313L10.316 7.64233" stroke="#135B80" stroke-linecap="round" stroke-linejoin="round"/>
<path d="M7.21509 8.85791H6.18384V9.88916" stroke="#135B80" stroke-linecap="round" stroke-linejoin="round"/>
<path d="M9.58679 9.58663C9.41123 9.76219 9.20281 9.90145 8.97343 9.99646C8.74405 10.0915 8.4982 10.1404 8.24992 10.1404C8.00164 10.1404 7.75579 10.0915 7.5264 9.99646C7.29702 9.90145 7.0886 9.76219 6.91304 9.58663L6.18384 8.85742" stroke="#135B80" stroke-linecap="round" stroke-linejoin="round"/>
</g>
</svg>
